solid ASCII
  facet normal 7.071068e-01 -2.753039e-15 7.071068e-01
    outer loop
      vertex   -3.758875e+02 1.740000e+01 -6.000000e-01
      vertex   -3.758875e+02 3.200000e+01 -6.000000e-01
      vertex   -3.764875e+02 1.740000e+01 0.000000e+00
    endloop
  endfacet
  facet normal 7.071068e-01 -2.644366e-15 7.071068e-01
    outer loop
      vertex   -3.764875e+02 1.740000e+01 0.000000e+00
      vertex   -3.758875e+02 3.200000e+01 -6.000000e-01
      vertex   -3.764875e+02 3.260000e+01 0.000000e+00
    endloop
  endfacet
  facet normal -1.395638e-15 -7.071068e-01 7.071068e-01
    outer loop
      vertex   -3.764875e+02 3.260000e+01 0.000000e+00
      vertex   -3.758875e+02 3.200000e+01 -6.000000e-01
      vertex   -3.728875e+02 3.260000e+01 0.000000e+00
    endloop
  endfacet
  facet normal -1.679127e-15 -7.071068e-01 7.071068e-01
    outer loop
      vertex   -3.728875e+02 3.260000e+01 0.000000e+00
      vertex   -3.758875e+02 3.200000e+01 -6.000000e-01
      vertex   -3.728875e+02 3.200000e+01 -6.000000e-01
    endloop
  endfacet
  facet normal 0.000000e+00 -0.000000e+00 1.000000e+00
    outer loop
      vertex   -3.728875e+02 3.260000e+01 0.000000e+00
      vertex   -3.728875e+02 3.500000e+01 0.000000e+00
      vertex   -3.764875e+02 3.260000e+01 0.000000e+00
    endloop
  endfacet
  facet normal 0.000000e+00 -0.000000e+00 1.000000e+00
    outer loop
      vertex   -3.764875e+02 3.260000e+01 0.000000e+00
      vertex   -3.728875e+02 3.500000e+01 0.000000e+00
      vertex   -3.777875e+02 3.500000e+01 0.000000e+00
    endloop
  endfacet
  facet normal 0.000000e+00 0.000000e+00 1.000000e+00
    outer loop
      vertex   -3.764875e+02 3.260000e+01 0.000000e+00
      vertex   -3.777875e+02 3.500000e+01 0.000000e+00
      vertex   -3.777875e+02 1.740000e+01 0.000000e+00
    endloop
  endfacet
  facet normal 0.000000e+00 0.000000e+00 1.000000e+00
    outer loop
      vertex   -3.808875e+02 1.740000e+01 0.000000e+00
      vertex   -3.758875e+02 8.800000e+00 0.000000e+00
      vertex   -3.777875e+02 1.740000e+01 0.000000e+00
    endloop
  endfacet
  facet normal -0.000000e+00 0.000000e+00 1.000000e+00
    outer loop
      vertex   -3.777875e+02 1.740000e+01 0.000000e+00
      vertex   -3.758875e+02 8.800000e+00 0.000000e+00
      vertex   -3.764875e+02 1.740000e+01 0.000000e+00
    endloop
  endfacet
  facet normal 0.000000e+00 0.000000e+00 1.000000e+00
    outer loop
      vertex   -3.777875e+02 1.740000e+01 0.000000e+00
      vertex   -3.764875e+02 1.740000e+01 0.000000e+00
      vertex   -3.764875e+02 3.260000e+01 0.000000e+00
    endloop
  endfacet
  facet normal 0.000000e+00 0.000000e+00 1.000000e+00
    outer loop
      vertex   -3.808875e+02 1.740000e+01 0.000000e+00
      vertex   -3.808875e+02 3.000000e+00 0.000000e+00
      vertex   -3.758875e+02 8.800000e+00 0.000000e+00
    endloop
  endfacet
  facet normal 0.000000e+00 0.000000e+00 1.000000e+00
    outer loop
      vertex   -3.758875e+02 8.800000e+00 0.000000e+00
      vertex   -3.808875e+02 3.000000e+00 0.000000e+00
      vertex   -3.758875e+02 5.000000e+00 0.000000e+00
    endloop
  endfacet
  facet normal 0.000000e+00 0.000000e+00 1.000000e+00
    outer loop
      vertex   -3.758875e+02 5.000000e+00 0.000000e+00
      vertex   -3.808875e+02 3.000000e+00 0.000000e+00
      vertex   -3.728875e+02 4.785061e-13 0.000000e+00
    endloop
  endfacet
  facet normal 0.000000e+00 0.000000e+00 1.000000e+00
    outer loop
      vertex   -3.758875e+02 5.000000e+00 0.000000e+00
      vertex   -3.728875e+02 4.785061e-13 0.000000e+00
      vertex   -3.728875e+02 5.000000e+00 0.000000e+00
    endloop
  endfacet
  facet normal 0.000000e+00 0.000000e+00 1.000000e+00
    outer loop
      vertex   -4.028875e+02 3.000000e+00 0.000000e+00
      vertex   -4.028875e+02 5.611816e-13 0.000000e+00
      vertex   -3.808875e+02 3.000000e+00 0.000000e+00
    endloop
  endfacet
  facet normal 0.000000e+00 0.000000e+00 1.000000e+00
    outer loop
      vertex   -3.808875e+02 3.000000e+00 0.000000e+00
      vertex   -4.028875e+02 5.611816e-13 0.000000e+00
      vertex   -3.728875e+02 4.785061e-13 0.000000e+00
    endloop
  endfacet
  facet normal 0.000000e+00 -0.000000e+00 1.000000e+00
    outer loop
      vertex   -3.728875e+02 8.800000e+00 0.000000e+00
      vertex   -3.728875e+02 1.740000e+01 0.000000e+00
      vertex   -3.758875e+02 8.800000e+00 0.000000e+00
    endloop
  endfacet
  facet normal 0.000000e+00 -0.000000e+00 1.000000e+00
    outer loop
      vertex   -3.758875e+02 8.800000e+00 0.000000e+00
      vertex   -3.728875e+02 1.740000e+01 0.000000e+00
      vertex   -3.764875e+02 1.740000e+01 0.000000e+00
    endloop
  endfacet
  facet normal -7.071068e-01 2.283771e-15 7.071068e-01
    outer loop
      vertex   -3.777875e+02 3.500000e+01 0.000000e+00
      vertex   -3.783875e+02 3.500000e+01 -6.000000e-01
      vertex   -3.777875e+02 1.740000e+01 0.000000e+00
    endloop
  endfacet
  facet normal -7.071068e-01 0.000000e+00 7.071068e-01
    outer loop
      vertex   -3.777875e+02 1.740000e+01 0.000000e+00
      vertex   -3.783875e+02 3.500000e+01 -6.000000e-01
      vertex   -3.783875e+02 1.740000e+01 -6.000000e-01
    endloop
  endfacet
  facet normal -0.000000e+00 1.000000e+00 0.000000e+00
    outer loop
      vertex   -3.783875e+02 3.500000e+01 -6.000000e-01
      vertex   -3.777875e+02 3.500000e+01 0.000000e+00
      vertex   -3.783875e+02 3.500000e+01 -1.340000e+01
    endloop
  endfacet
  facet normal 1.291896e-15 1.000000e+00 -5.784608e-17
    outer loop
      vertex   -3.783875e+02 3.500000e+01 -1.340000e+01
      vertex   -3.777875e+02 3.500000e+01 0.000000e+00
      vertex   -3.728875e+02 3.500000e+01 -1.340000e+01
    endloop
  endfacet
  facet normal 1.450087e-15 1.000000e+00 -0.000000e+00
    outer loop
      vertex   -3.728875e+02 3.500000e+01 -1.340000e+01
      vertex   -3.777875e+02 3.500000e+01 0.000000e+00
      vertex   -3.728875e+02 3.500000e+01 0.000000e+00
    endloop
  endfacet
  facet normal -1.000000e+00 -0.000000e+00 0.000000e+00
    outer loop
      vertex   -3.783875e+02 3.500000e+01 -6.000000e-01
      vertex   -3.783875e+02 2.450000e+01 -2.002846e+00
      vertex   -3.783875e+02 1.740000e+01 -6.000000e-01
    endloop
  endfacet
  facet normal -1.000000e+00 0.000000e+00 0.000000e+00
    outer loop
      vertex   -3.783875e+02 1.740000e+01 -6.000000e-01
      vertex   -3.783875e+02 2.450000e+01 -2.002846e+00
      vertex   -3.783875e+02 2.120000e+01 -2.002846e+00
    endloop
  endfacet
  facet normal -1.000000e+00 0.000000e+00 0.000000e+00
    outer loop
      vertex   -3.783875e+02 1.740000e+01 -6.000000e-01
      vertex   -3.783875e+02 2.120000e+01 -2.002846e+00
      vertex   -3.783875e+02 2.120000e+01 -1.140000e+01
    endloop
  endfacet
  facet normal -1.000000e+00 0.000000e+00 0.000000e+00
    outer loop
      vertex   -3.783875e+02 2.450000e+01 -2.002846e+00
      vertex   -3.783875e+02 3.500000e+01 -6.000000e-01
      vertex   -3.783875e+02 2.450000e+01 -1.140000e+01
    endloop
  endfacet
  facet normal -1.000000e+00 0.000000e+00 0.000000e+00
    outer loop
      vertex   -3.783875e+02 2.450000e+01 -1.140000e+01
      vertex   -3.783875e+02 3.500000e+01 -6.000000e-01
      vertex   -3.783875e+02 3.500000e+01 -1.340000e+01
    endloop
  endfacet
  facet normal -1.000000e+00 0.000000e+00 -0.000000e+00
    outer loop
      vertex   -3.783875e+02 2.450000e+01 -1.140000e+01
      vertex   -3.783875e+02 3.500000e+01 -1.340000e+01
      vertex   -3.783875e+02 1.740000e+01 -1.340000e+01
    endloop
  endfacet
  facet normal -1.000000e+00 -0.000000e+00 0.000000e+00
    outer loop
      vertex   -3.783875e+02 2.450000e+01 -1.140000e+01
      vertex   -3.783875e+02 1.740000e+01 -1.340000e+01
      vertex   -3.783875e+02 2.120000e+01 -1.140000e+01
    endloop
  endfacet
  facet normal -1.000000e+00 -0.000000e+00 0.000000e+00
    outer loop
      vertex   -3.783875e+02 2.120000e+01 -1.140000e+01
      vertex   -3.783875e+02 1.740000e+01 -1.340000e+01
      vertex   -3.783875e+02 1.740000e+01 -6.000000e-01
    endloop
  endfacet
  facet normal -7.071068e-01 1.545937e-15 -7.071068e-01
    outer loop
      vertex   -3.766875e+02 3.000000e+00 -1.340000e+01
      vertex   -3.766875e+02 2.900000e+01 -1.340000e+01
      vertex   -3.762875e+02 3.000000e+00 -1.380000e+01
    endloop
  endfacet
  facet normal -7.071068e-01 1.545937e-15 -7.071068e-01
    outer loop
      vertex   -3.762875e+02 3.000000e+00 -1.380000e+01
      vertex   -3.766875e+02 2.900000e+01 -1.340000e+01
      vertex   -3.762875e+02 2.900000e+01 -1.380000e+01
    endloop
  endfacet
  facet normal -5.679745e-01 4.375843e-01 -6.970832e-01
    outer loop
      vertex   -3.758875e+02 3.119089e+01 -1.340000e+01
      vertex   -3.758875e+02 3.100412e+01 -1.351724e+01
      vertex   -3.760691e+02 3.095523e+01 -1.340000e+01
    endloop
  endfacet
  facet normal -5.694744e-01 4.192760e-01 -7.070407e-01
    outer loop
      vertex   -3.760691e+02 3.095523e+01 -1.340000e+01
      vertex   -3.758875e+02 3.100412e+01 -1.351724e+01
      vertex   -3.758875e+02 3.082693e+01 -1.362232e+01
    endloop
  endfacet
  facet normal -5.960422e-01 3.811383e-01 -7.067300e-01
    outer loop
      vertex   -3.760691e+02 3.095523e+01 -1.340000e+01
      vertex   -3.758875e+02 3.082693e+01 -1.362232e+01
      vertex   -3.762293e+02 3.070459e+01 -1.340000e+01
    endloop
  endfacet
  facet normal -5.960516e-01 3.905015e-01 -7.015918e-01
    outer loop
      vertex   -3.762293e+02 3.070459e+01 -1.340000e+01
      vertex   -3.758875e+02 3.082693e+01 -1.362232e+01
      vertex   -3.758875e+02 3.065813e+01 -1.371627e+01
    endloop
  endfacet
  facet normal -6.044695e-01 3.667262e-01 -7.071977e-01
    outer loop
      vertex   -3.762293e+02 3.070459e+01 -1.340000e+01
      vertex   -3.758875e+02 3.065813e+01 -1.371627e+01
      vertex   -3.758875e+02 3.049666e+01 -1.380000e+01
    endloop
  endfacet
  facet normal -6.273271e-01 3.277068e-01 -7.064482e-01
    outer loop
      vertex   -3.762293e+02 3.070459e+01 -1.340000e+01
      vertex   -3.758875e+02 3.049666e+01 -1.380000e+01
      vertex   -3.763671e+02 3.044091e+01 -1.340000e+01
    endloop
  endfacet
  facet normal -6.276249e-01 3.257825e-01 -7.070734e-01
    outer loop
      vertex   -3.763671e+02 3.044091e+01 -1.340000e+01
      vertex   -3.758875e+02 3.049666e+01 -1.380000e+01
      vertex   -3.760078e+02 3.026494e+01 -1.380000e+01
    endloop
  endfacet
  facet normal -6.535243e-01 2.715948e-01 -7.065000e-01
    outer loop
      vertex   -3.763671e+02 3.044091e+01 -1.340000e+01
      vertex   -3.760078e+02 3.026494e+01 -1.380000e+01
      vertex   -3.764812e+02 3.016619e+01 -1.340000e+01
    endloop
  endfacet
  facet normal -6.536271e-01 2.700041e-01 -7.070144e-01
    outer loop
      vertex   -3.764812e+02 3.016619e+01 -1.340000e+01
      vertex   -3.760078e+02 3.026494e+01 -1.380000e+01
      vertex   -3.761075e+02 3.002365e+01 -1.380000e+01
    endloop
  endfacet
  facet normal -6.747141e-01 2.134117e-01 -7.065524e-01
    outer loop
      vertex   -3.764812e+02 3.016619e+01 -1.340000e+01
      vertex   -3.761075e+02 3.002365e+01 -1.380000e+01
      vertex   -3.765710e+02 2.988255e+01 -1.340000e+01
    endloop
  endfacet
  facet normal -6.746838e-01 2.121715e-01 -7.069548e-01
    outer loop
      vertex   -3.765710e+02 2.988255e+01 -1.340000e+01
      vertex   -3.761075e+02 3.002365e+01 -1.380000e+01
      vertex   -3.761858e+02 2.977460e+01 -1.380000e+01
    endloop
  endfacet
  facet normal -6.907349e-01 1.536033e-01 -7.066055e-01
    outer loop
      vertex   -3.765710e+02 2.988255e+01 -1.340000e+01
      vertex   -3.761858e+02 2.977460e+01 -1.380000e+01
      vertex   -3.766355e+02 2.959214e+01 -1.340000e+01
    endloop
  endfacet
  facet normal -6.906346e-01 1.527224e-01 -7.068944e-01
    outer loop
      vertex   -3.766355e+02 2.959214e+01 -1.340000e+01
      vertex   -3.761858e+02 2.977460e+01 -1.380000e+01
      vertex   -3.762421e+02 2.951968e+01 -1.380000e+01
    endloop
  endfacet
  facet normal -7.014649e-01 9.262792e-02 -7.066591e-01
    outer loop
      vertex   -3.766355e+02 2.959214e+01 -1.340000e+01
      vertex   -3.762421e+02 2.951968e+01 -1.380000e+01
      vertex   -3.766745e+02 2.929721e+01 -1.340000e+01
    endloop
  endfacet
  facet normal -7.013579e-01 9.210650e-02 -7.068334e-01
    outer loop
      vertex   -3.766745e+02 2.929721e+01 -1.340000e+01
      vertex   -3.762421e+02 2.951968e+01 -1.380000e+01
      vertex   -3.762761e+02 2.926083e+01 -1.380000e+01
    endloop
  endfacet
  facet normal -7.068227e-01 3.095260e-02 -7.067133e-01
    outer loop
      vertex   -3.766745e+02 2.929721e+01 -1.340000e+01
      vertex   -3.762761e+02 2.926083e+01 -1.380000e+01
      vertex   -3.766875e+02 2.900000e+01 -1.340000e+01
    endloop
  endfacet
  facet normal -7.067717e-01 3.078255e-02 -7.067717e-01
    outer loop
      vertex   -3.766875e+02 2.900000e+01 -1.340000e+01
      vertex   -3.762761e+02 2.926083e+01 -1.380000e+01
      vertex   -3.762875e+02 2.900000e+01 -1.380000e+01
    endloop
  endfacet
  facet normal -8.585524e-01 5.127259e-01 0.000000e+00
    outer loop
      vertex   -3.758875e+02 3.049666e+01 -1.340000e+01
      vertex   -3.758382e+02 3.057930e+01 -1.786667e+01
      vertex   -3.758875e+02 3.049666e+01 -1.380000e+01
    endloop
  endfacet
  facet normal -8.736222e-01 4.866044e-01 -7.136526e-04
    outer loop
      vertex   -3.758875e+02 3.049666e+01 -1.380000e+01
      vertex   -3.758382e+02 3.057930e+01 -1.786667e+01
      vertex   -3.759730e+02 3.033722e+01 -1.786667e+01
    endloop
  endfacet
  facet normal -8.875535e-01 4.607042e-01 5.947183e-04
    outer loop
      vertex   -3.758875e+02 3.049666e+01 -1.380000e+01
      vertex   -3.759730e+02 3.033722e+01 -1.786667e+01
      vertex   -3.760078e+02 3.026494e+01 -1.380000e+01
    endloop
  endfacet
  facet normal -9.147937e-01 4.039209e-01 -6.474250e-04
    outer loop
      vertex   -3.760078e+02 3.026494e+01 -1.380000e+01
      vertex   -3.759730e+02 3.033722e+01 -1.786667e+01
      vertex   -3.760849e+02 3.008372e+01 -1.786667e+01
    endloop
  endfacet
  facet normal -9.242475e-01 3.817935e-01 5.179456e-04
    outer loop
      vertex   -3.760078e+02 3.026494e+01 -1.380000e+01
      vertex   -3.760849e+02 3.008372e+01 -1.786667e+01
      vertex   -3.761075e+02 3.002365e+01 -1.380000e+01
    endloop
  endfacet
  facet normal -9.481605e-01 3.177914e-01 -5.601076e-04
    outer loop
      vertex   -3.761075e+02 3.002365e+01 -1.380000e+01
      vertex   -3.760849e+02 3.008372e+01 -1.786667e+01
      vertex   -3.761730e+02 2.982099e+01 -1.786667e+01
    endloop
  endfacet
  facet normal -9.539418e-01 2.999914e-01 4.200843e-04
    outer loop
      vertex   -3.761075e+02 3.002365e+01 -1.380000e+01
      vertex   -3.761730e+02 2.982099e+01 -1.786667e+01
      vertex   -3.761858e+02 2.977460e+01 -1.380000e+01
    endloop
  endfacet
  facet normal -9.734380e-01 2.289505e-01 -4.517031e-04
    outer loop
      vertex   -3.761858e+02 2.977460e+01 -1.380000e+01
      vertex   -3.761730e+02 2.982099e+01 -1.786667e+01
      vertex   -3.762364e+02 2.955125e+01 -1.786667e+01
    endloop
  endfacet
  facet normal -9.764116e-01 2.159173e-01 3.011372e-04
    outer loop
      vertex   -3.761858e+02 2.977460e+01 -1.380000e+01
      vertex   -3.762364e+02 2.955125e+01 -1.786667e+01
      vertex   -3.762421e+02 2.951968e+01 -1.380000e+01
    endloop
  endfacet
  facet normal -9.904104e-01 1.381563e-01 -3.222144e-04
    outer loop
      vertex   -3.762421e+02 2.951968e+01 -1.380000e+01
      vertex   -3.762364e+02 2.955125e+01 -1.786667e+01
      vertex   -3.762747e+02 2.927681e+01 -1.786667e+01
    endloop
  endfacet
  facet normal -9.914867e-01 1.302079e-01 1.611078e-04
    outer loop
      vertex   -3.762421e+02 2.951968e+01 -1.380000e+01
      vertex   -3.762747e+02 2.927681e+01 -1.786667e+01
      vertex   -3.762761e+02 2.926083e+01 -1.380000e+01
    endloop
  endfacet
  facet normal -9.990529e-01 4.351249e-02 -1.821815e-04
    outer loop
      vertex   -3.762761e+02 2.926083e+01 -1.380000e+01
      vertex   -3.762747e+02 2.927681e+01 -1.786667e+01
      vertex   -3.762875e+02 2.900000e+01 -1.380000e+01
    endloop
  endfacet
  facet normal -9.989330e-01 4.618346e-02 0.000000e+00
    outer loop
      vertex   -3.762875e+02 2.900000e+01 -1.380000e+01
      vertex   -3.762747e+02 2.927681e+01 -1.786667e+01
      vertex   -3.762747e+02 2.927681e+01 -2.233333e+01
    endloop
  endfacet
  facet normal -9.989330e-01 4.618346e-02 0.000000e+00
    outer loop
      vertex   -3.762875e+02 2.900000e+01 -1.380000e+01
      vertex   -3.762747e+02 2.927681e+01 -2.233333e+01
      vertex   -3.762875e+02 2.900000e+01 -2.680000e+01
    endloop
  endfacet
  facet normal -9.989330e-01 4.618346e-02 -3.679072e-17
    outer loop
      vertex   -3.762875e+02 2.900000e+01 -2.680000e+01
      vertex   -3.762747e+02 2.927681e+01 -2.233333e+01
      vertex   -3.762747e+02 2.927681e+01 -2.680000e+01
    endloop
  endfacet
  facet normal -9.904104e-01 1.381564e-01 -1.098873e-16
    outer loop
      vertex   -3.762747e+02 2.927681e+01 -2.680000e+01
      vertex   -3.762747e+02 2.927681e+01 -2.233333e+01
      vertex   -3.762364e+02 2.955125e+01 -2.680000e+01
    endloop
  endfacet
  facet normal -9.904104e-01 1.381564e-01 0.000000e+00
    outer loop
      vertex   -3.762364e+02 2.955125e+01 -2.680000e+01
      vertex   -3.762747e+02 2.927681e+01 -2.233333e+01
      vertex   -3.762364e+02 2.955125e+01 -2.233333e+01
    endloop
  endfacet
  facet normal -9.734381e-01 2.289505e-01 0.000000e+00
    outer loop
      vertex   -3.762364e+02 2.955125e+01 -2.680000e+01
      vertex   -3.762364e+02 2.955125e+01 -2.233333e+01
      vertex   -3.761730e+02 2.982099e+01 -2.680000e+01
    endloop
  endfacet
  facet normal -9.734381e-01 2.289505e-01 0.000000e+00
    outer loop
      vertex   -3.761730e+02 2.982099e+01 -2.680000e+01
      vertex   -3.762364e+02 2.955125e+01 -2.233333e+01
      vertex   -3.761730e+02 2.982099e+01 -2.233333e+01
    endloop
  endfacet
  facet normal -9.481606e-01 3.177914e-01 0.000000e+00
    outer loop
      vertex   -3.761730e+02 2.982099e+01 -2.680000e+01
      vertex   -3.761730e+02 2.982099e+01 -2.233333e+01
      vertex   -3.760849e+02 3.008372e+01 -2.680000e+01
    endloop
  endfacet
  facet normal -9.481606e-01 3.177914e-01 2.527661e-16
    outer loop
      vertex   -3.760849e+02 3.008372e+01 -2.680000e+01
      vertex   -3.761730e+02 2.982099e+01 -2.233333e+01
      vertex   -3.760849e+02 3.008372e+01 -2.233333e+01
    endloop
  endfacet
  facet normal -9.147939e-01 4.039210e-01 3.212722e-16
    outer loop
      vertex   -3.760849e+02 3.008372e+01 -2.680000e+01
      vertex   -3.760849e+02 3.008372e+01 -2.233333e+01
      vertex   -3.759730e+02 3.033722e+01 -2.680000e+01
    endloop
  endfacet
  facet normal -9.147939e-01 4.039210e-01 0.000000e+00
    outer loop
      vertex   -3.759730e+02 3.033722e+01 -2.680000e+01
      vertex   -3.760849e+02 3.008372e+01 -2.233333e+01
      vertex   -3.759730e+02 3.033722e+01 -2.233333e+01
    endloop
  endfacet
  facet normal -8.736224e-01 4.866045e-01 0.000000e+00
    outer loop
      vertex   -3.759730e+02 3.033722e+01 -2.680000e+01
      vertex   -3.759730e+02 3.033722e+01 -2.233333e+01
      vertex   -3.758382e+02 3.057930e+01 -2.680000e+01
    endloop
  endfacet
  facet normal -8.736224e-01 4.866045e-01 0.000000e+00
    outer loop
      vertex   -3.758382e+02 3.057930e+01 -2.680000e+01
      vertex   -3.759730e+02 3.033722e+01 -2.233333e+01
      vertex   -3.758382e+02 3.057930e+01 -2.233333e+01
    endloop
  endfacet
  facet normal -8.249975e-01 5.651364e-01 0.000000e+00
    outer loop
      vertex   -3.758382e+02 3.057930e+01 -2.680000e+01
      vertex   -3.758382e+02 3.057930e+01 -2.233333e+01
      vertex   -3.756816e+02 3.080790e+01 -2.680000e+01
    endloop
  endfacet
  facet normal -8.249975e-01 5.651364e-01 0.000000e+00
    outer loop
      vertex   -3.756816e+02 3.080790e+01 -2.680000e+01
      vertex   -3.758382e+02 3.057930e+01 -2.233333e+01
      vertex   -3.756816e+02 3.080790e+01 -2.233333e+01
    endloop
  endfacet
  facet normal -7.693340e-01 6.388468e-01 0.000000e+00
    outer loop
      vertex   -3.756816e+02 3.080790e+01 -2.680000e+01
      vertex   -3.756816e+02 3.080790e+01 -2.233333e+01
      vertex   -3.755045e+02 3.102109e+01 -2.680000e+01
    endloop
  endfacet
  facet normal -7.693340e-01 6.388468e-01 1.524385e-15
    outer loop
      vertex   -3.755045e+02 3.102109e+01 -2.680000e+01
      vertex   -3.756816e+02 3.080790e+01 -2.233333e+01
      vertex   -3.755045e+02 3.102109e+01 -2.233333e+01
    endloop
  endfacet
  facet normal -7.071068e-01 7.071068e-01 1.687264e-15
    outer loop
      vertex   -3.755045e+02 3.102109e+01 -2.680000e+01
      vertex   -3.755045e+02 3.102109e+01 -2.233333e+01
      vertex   -3.753086e+02 3.121703e+01 -2.680000e+01
    endloop
  endfacet
  facet normal -7.071068e-01 7.071068e-01 1.124842e-15
    outer loop
      vertex   -3.753086e+02 3.121703e+01 -2.680000e+01
      vertex   -3.755045e+02 3.102109e+01 -2.233333e+01
      vertex   -3.753086e+02 3.121703e+01 -2.233333e+01
    endloop
  endfacet
  facet normal -6.388468e-01 7.693340e-01 1.223831e-15
    outer loop
      vertex   -3.753086e+02 3.121703e+01 -2.680000e+01
      vertex   -3.753086e+02 3.121703e+01 -2.233333e+01
      vertex   -3.750954e+02 3.139405e+01 -2.680000e+01
    endloop
  endfacet
  facet normal -6.388468e-01 7.693340e-01 1.835747e-15
    outer loop
      vertex   -3.750954e+02 3.139405e+01 -2.680000e+01
      vertex   -3.753086e+02 3.121703e+01 -2.233333e+01
      vertex   -3.750954e+02 3.139405e+01 -2.233333e+01
    endloop
  endfacet
  facet normal -5.651364e-01 8.249975e-01 1.968569e-15
    outer loop
      vertex   -3.750954e+02 3.139405e+01 -2.680000e+01
      vertex   -3.750954e+02 3.139405e+01 -2.233333e+01
      vertex   -3.748668e+02 3.155065e+01 -2.680000e+01
    endloop
  endfacet
  facet normal -5.651364e-01 8.249975e-01 1.312379e-15
    outer loop
      vertex   -3.748668e+02 3.155065e+01 -2.680000e+01
      vertex   -3.750954e+02 3.139405e+01 -2.233333e+01
      vertex   -3.748668e+02 3.155065e+01 -2.233333e+01
    endloop
  endfacet
  facet normal -4.866045e-01 8.736224e-01 1.389730e-15
    outer loop
      vertex   -3.748668e+02 3.155065e+01 -2.680000e+01
      vertex   -3.748668e+02 3.155065e+01 -2.233333e+01
      vertex   -3.746247e+02 3.168549e+01 -2.680000e+01
    endloop
  endfacet
  facet normal -4.866045e-01 8.736224e-01 0.000000e+00
    outer loop
      vertex   -3.746247e+02 3.168549e+01 -2.680000e+01
      vertex   -3.748668e+02 3.155065e+01 -2.233333e+01
      vertex   -3.746247e+02 3.168549e+01 -2.233333e+01
    endloop
  endfacet
  facet normal -4.039210e-01 9.147939e-01 0.000000e+00
    outer loop
      vertex   -3.746247e+02 3.168549e+01 -2.680000e+01
      vertex   -3.746247e+02 3.168549e+01 -2.233333e+01
      vertex   -3.743712e+02 3.179742e+01 -2.680000e+01
    endloop
  endfacet
  facet normal -4.039210e-01 9.147939e-01 0.000000e+00
    outer loop
      vertex   -3.743712e+02 3.179742e+01 -2.680000e+01
      vertex   -3.746247e+02 3.168549e+01 -2.233333e+01
      vertex   -3.743712e+02 3.179742e+01 -2.233333e+01
    endloop
  endfacet
  facet normal -3.177914e-01 9.481606e-01 0.000000e+00
    outer loop
      vertex   -3.743712e+02 3.179742e+01 -2.680000e+01
      vertex   -3.743712e+02 3.179742e+01 -2.233333e+01
      vertex   -3.741085e+02 3.188548e+01 -2.680000e+01
    endloop
  endfacet
  facet normal -3.177914e-01 9.481606e-01 0.000000e+00
    outer loop
      vertex   -3.741085e+02 3.188548e+01 -2.680000e+01
      vertex   -3.743712e+02 3.179742e+01 -2.233333e+01
      vertex   -3.741085e+02 3.188548e+01 -2.233333e+01
    endloop
  endfacet
  facet normal -2.289505e-01 9.734381e-01 0.000000e+00
    outer loop
      vertex   -3.741085e+02 3.188548e+01 -2.680000e+01
      vertex   -3.741085e+02 3.188548e+01 -2.233333e+01
      vertex   -3.738387e+02 3.194892e+01 -2.680000e+01
    endloop
  endfacet
  facet normal -2.289505e-01 9.734381e-01 0.000000e+00
    outer loop
      vertex   -3.738387e+02 3.194892e+01 -2.680000e+01
      vertex   -3.741085e+02 3.188548e+01 -2.233333e+01
      vertex   -3.738387e+02 3.194892e+01 -2.233333e+01
    endloop
  endfacet
  facet normal -1.381564e-01 9.904104e-01 0.000000e+00
    outer loop
      vertex   -3.738387e+02 3.194892e+01 -2.680000e+01
      vertex   -3.738387e+02 3.194892e+01 -2.233333e+01
      vertex   -3.735643e+02 3.198720e+01 -2.680000e+01
    endloop
  endfacet
  facet normal -1.381564e-01 9.904104e-01 0.000000e+00
    outer loop
      vertex   -3.735643e+02 3.198720e+01 -2.680000e+01
      vertex   -3.738387e+02 3.194892e+01 -2.233333e+01
      vertex   -3.735643e+02 3.198720e+01 -2.233333e+01
    endloop
  endfacet
  facet normal -4.618346e-02 9.989330e-01 0.000000e+00
    outer loop
      vertex   -3.735643e+02 3.198720e+01 -2.680000e+01
      vertex   -3.735643e+02 3.198720e+01 -2.233333e+01
      vertex   -3.732875e+02 3.200000e+01 -2.680000e+01
    endloop
  endfacet
  facet normal -4.618346e-02 9.989330e-01 0.000000e+00
    outer loop
      vertex   -3.732875e+02 3.200000e+01 -2.680000e+01
      vertex   -3.735643e+02 3.198720e+01 -2.233333e+01
      vertex   -3.735643e+02 3.198720e+01 -1.786667e+01
    endloop
  endfacet
  facet normal -4.618346e-02 9.989330e-01 0.000000e+00
    outer loop
      vertex   -3.732875e+02 3.200000e+01 -2.680000e+01
      vertex   -3.735643e+02 3.198720e+01 -1.786667e+01
      vertex   -3.732875e+02 3.200000e+01 -1.340000e+01
    endloop
  endfacet
  facet normal -4.764021e-02 9.988646e-01 9.047284e-05
    outer loop
      vertex   -3.732875e+02 3.200000e+01 -1.340000e+01
      vertex   -3.735643e+02 3.198720e+01 -1.786667e+01
      vertex   -3.735730e+02 3.198638e+01 -1.340000e+01
    endloop
  endfacet
  facet normal -1.381564e-01 9.904104e-01 -8.761889e-05
    outer loop
      vertex   -3.735730e+02 3.198638e+01 -1.340000e+01
      vertex   -3.735643e+02 3.198720e+01 -1.786667e+01
      vertex   -3.738387e+02 3.194892e+01 -1.786667e+01
    endloop
  endfacet
  facet normal -1.424881e-01 9.897965e-01 1.752376e-04
    outer loop
      vertex   -3.735730e+02 3.198638e+01 -1.340000e+01
      vertex   -3.738387e+02 3.194892e+01 -1.786667e+01
      vertex   -3.738559e+02 3.194565e+01 -1.340000e+01
    endloop
  endfacet
  facet normal -2.289505e-01 9.734380e-01 -1.695293e-04
    outer loop
      vertex   -3.738559e+02 3.194565e+01 -1.340000e+01
      vertex   -3.738387e+02 3.194892e+01 -1.786667e+01
      vertex   -3.741085e+02 3.188548e+01 -1.786667e+01
    endloop
  endfacet
  facet normal -2.360425e-01 9.717427e-01 2.542935e-04
    outer loop
      vertex   -3.738559e+02 3.194565e+01 -1.340000e+01
      vertex   -3.741085e+02 3.188548e+01 -1.786667e+01
      vertex   -3.741337e+02 3.187818e+01 -1.340000e+01
    endloop
  endfacet
  facet normal -3.177914e-01 9.481606e-01 -2.457306e-04
    outer loop
      vertex   -3.741337e+02 3.187818e+01 -1.340000e+01
      vertex   -3.741085e+02 3.188548e+01 -1.786667e+01
      vertex   -3.743712e+02 3.179742e+01 -1.786667e+01
    endloop
  endfacet
  facet normal -3.274540e-01 9.448671e-01 3.276400e-04
    outer loop
      vertex   -3.741337e+02 3.187818e+01 -1.340000e+01
      vertex   -3.743712e+02 3.179742e+01 -1.786667e+01
      vertex   -3.744038e+02 3.178458e+01 -1.340000e+01
    endloop
  endfacet
  facet normal -4.039210e-01 9.147938e-01 -3.162220e-04
    outer loop
      vertex   -3.744038e+02 3.178458e+01 -1.340000e+01
      vertex   -3.743712e+02 3.179742e+01 -1.786667e+01
      vertex   -3.746247e+02 3.168549e+01 -1.786667e+01
    endloop
  endfacet
  facet normal -4.158927e-01 9.094136e-01 3.952763e-04
    outer loop
      vertex   -3.744038e+02 3.178458e+01 -1.340000e+01
      vertex   -3.746247e+02 3.168549e+01 -1.786667e+01
      vertex   -3.746637e+02 3.166570e+01 -1.340000e+01
    endloop
  endfacet
  facet normal -4.866044e-01 8.736223e-01 -3.810031e-04
    outer loop
      vertex   -3.746637e+02 3.166570e+01 -1.340000e+01
      vertex   -3.746247e+02 3.168549e+01 -1.786667e+01
      vertex   -3.748668e+02 3.155065e+01 -1.786667e+01
    endloop
  endfacet
  facet normal -5.005558e-01 8.657041e-01 4.572019e-04
    outer loop
      vertex   -3.746637e+02 3.166570e+01 -1.340000e+01
      vertex   -3.748668e+02 3.155065e+01 -1.786667e+01
      vertex   -3.749112e+02 3.152262e+01 -1.340000e+01
    endloop
  endfacet
  facet normal -5.651364e-01 8.249974e-01 -4.400732e-04
    outer loop
      vertex   -3.749112e+02 3.152262e+01 -1.340000e+01
      vertex   -3.748668e+02 3.155065e+01 -1.786667e+01
      vertex   -3.750954e+02 3.139405e+01 -1.786667e+01
    endloop
  endfacet
  facet normal -5.806747e-01 8.141355e-01 5.134163e-04
    outer loop
      vertex   -3.749112e+02 3.152262e+01 -1.340000e+01
      vertex   -3.750954e+02 3.139405e+01 -1.786667e+01
      vertex   -3.751439e+02 3.135664e+01 -1.340000e+01
    endloop
  endfacet
  facet normal -6.388467e-01 7.693339e-01 -4.934318e-04
    outer loop
      vertex   -3.751439e+02 3.135664e+01 -1.340000e+01
      vertex   -3.750954e+02 3.139405e+01 -1.786667e+01
      vertex   -3.753086e+02 3.121703e+01 -1.786667e+01
    endloop
  endfacet
  facet normal -6.555220e-01 7.551759e-01 5.639191e-04
    outer loop
      vertex   -3.751439e+02 3.135664e+01 -1.340000e+01
      vertex   -3.753086e+02 3.121703e+01 -1.786667e+01
      vertex   -3.753598e+02 3.116927e+01 -1.340000e+01
    endloop
  endfacet
  facet normal -7.071067e-01 7.071067e-01 -5.410785e-04
    outer loop
      vertex   -3.753598e+02 3.116927e+01 -1.340000e+01
      vertex   -3.753086e+02 3.121703e+01 -1.786667e+01
      vertex   -3.755045e+02 3.102109e+01 -1.786667e+01
    endloop
  endfacet
  facet normal -7.244182e-01 6.893605e-01 6.087097e-04
    outer loop
      vertex   -3.753598e+02 3.116927e+01 -1.340000e+01
      vertex   -3.755045e+02 3.102109e+01 -1.786667e+01
      vertex   -3.755568e+02 3.096220e+01 -1.340000e+01
    endloop
  endfacet
  facet normal -7.693338e-01 6.388467e-01 -5.830130e-04
    outer loop
      vertex   -3.755568e+02 3.096220e+01 -1.340000e+01
      vertex   -3.755045e+02 3.102109e+01 -1.786667e+01
      vertex   -3.756816e+02 3.080790e+01 -1.786667e+01
    endloop
  endfacet
  facet normal -7.867379e-01 6.172868e-01 6.477878e-04
    outer loop
      vertex   -3.755568e+02 3.096220e+01 -1.340000e+01
      vertex   -3.756816e+02 3.080790e+01 -1.786667e+01
      vertex   -3.757333e+02 3.073732e+01 -1.340000e+01
    endloop
  endfacet
  facet normal -8.249973e-01 5.651363e-01 -6.192347e-04
    outer loop
      vertex   -3.757333e+02 3.073732e+01 -1.340000e+01
      vertex   -3.756816e+02 3.080790e+01 -1.786667e+01
      vertex   -3.758382e+02 3.057930e+01 -1.786667e+01
    endloop
  endfacet
  facet normal -8.419153e-01 5.396093e-01 6.811531e-04
    outer loop
      vertex   -3.757333e+02 3.073732e+01 -1.340000e+01
      vertex   -3.758382e+02 3.057930e+01 -1.786667e+01
      vertex   -3.758875e+02 3.049666e+01 -1.340000e+01
    endloop
  endfacet
  facet normal -8.736224e-01 4.866045e-01 0.000000e+00
    outer loop
      vertex   -3.758382e+02 3.057930e+01 -1.786667e+01
      vertex   -3.758382e+02 3.057930e+01 -2.233333e+01
      vertex   -3.759730e+02 3.033722e+01 -1.786667e+01
    endloop
  endfacet
  facet normal -8.736224e-01 4.866045e-01 0.000000e+00
    outer loop
      vertex   -3.759730e+02 3.033722e+01 -1.786667e+01
      vertex   -3.758382e+02 3.057930e+01 -2.233333e+01
      vertex   -3.759730e+02 3.033722e+01 -2.233333e+01
    endloop
  endfacet
  facet normal -9.147939e-01 4.039210e-01 0.000000e+00
    outer loop
      vertex   -3.759730e+02 3.033722e+01 -1.786667e+01
      vertex   -3.759730e+02 3.033722e+01 -2.233333e+01
      vertex   -3.760849e+02 3.008372e+01 -1.786667e+01
    endloop
  endfacet
  facet normal -9.147939e-01 4.039210e-01 -3.212722e-16
    outer loop
      vertex   -3.760849e+02 3.008372e+01 -1.786667e+01
      vertex   -3.759730e+02 3.033722e+01 -2.233333e+01
      vertex   -3.760849e+02 3.008372e+01 -2.233333e+01
    endloop
  endfacet
  facet normal -9.481606e-01 3.177914e-01 -2.527661e-16
    outer loop
      vertex   -3.760849e+02 3.008372e+01 -1.786667e+01
      vertex   -3.760849e+02 3.008372e+01 -2.233333e+01
      vertex   -3.761730e+02 2.982099e+01 -1.786667e+01
    endloop
  endfacet
  facet normal -9.481606e-01 3.177914e-01 0.000000e+00
    outer loop
      vertex   -3.761730e+02 2.982099e+01 -1.786667e+01
      vertex   -3.760849e+02 3.008372e+01 -2.233333e+01
      vertex   -3.761730e+02 2.982099e+01 -2.233333e+01
    endloop
  endfacet
  facet normal -9.734381e-01 2.289505e-01 0.000000e+00
    outer loop
      vertex   -3.761730e+02 2.982099e+01 -1.786667e+01
      vertex   -3.761730e+02 2.982099e+01 -2.233333e+01
      vertex   -3.762364e+02 2.955125e+01 -1.786667e+01
    endloop
  endfacet
  facet normal -9.734381e-01 2.289505e-01 -1.821035e-16
    outer loop
      vertex   -3.762364e+02 2.955125e+01 -1.786667e+01
      vertex   -3.761730e+02 2.982099e+01 -2.233333e+01
      vertex   -3.762364e+02 2.955125e+01 -2.233333e+01
    endloop
  endfacet
  facet normal -9.904104e-01 1.381564e-01 -1.098873e-16
    outer loop
      vertex   -3.762364e+02 2.955125e+01 -1.786667e+01
      vertex   -3.762364e+02 2.955125e+01 -2.233333e+01
      vertex   -3.762747e+02 2.927681e+01 -1.786667e+01
    endloop
  endfacet
  facet normal -9.904104e-01 1.381564e-01 0.000000e+00
    outer loop
      vertex   -3.762747e+02 2.927681e+01 -1.786667e+01
      vertex   -3.762364e+02 2.955125e+01 -2.233333e+01
      vertex   -3.762747e+02 2.927681e+01 -2.233333e+01
    endloop
  endfacet
  facet normal -8.249975e-01 5.651364e-01 0.000000e+00
    outer loop
      vertex   -3.758382e+02 3.057930e+01 -2.233333e+01
      vertex   -3.758382e+02 3.057930e+01 -1.786667e+01
      vertex   -3.756816e+02 3.080790e+01 -2.233333e+01
    endloop
  endfacet
  facet normal -8.249975e-01 5.651364e-01 0.000000e+00
    outer loop
      vertex   -3.756816e+02 3.080790e+01 -2.233333e+01
      vertex   -3.758382e+02 3.057930e+01 -1.786667e+01
      vertex   -3.756816e+02 3.080790e+01 -1.786667e+01
    endloop
  endfacet
  facet normal -7.693340e-01 6.388468e-01 0.000000e+00
    outer loop
      vertex   -3.756816e+02 3.080790e+01 -2.233333e+01
      vertex   -3.756816e+02 3.080790e+01 -1.786667e+01
      vertex   -3.755045e+02 3.102109e+01 -2.233333e+01
    endloop
  endfacet
  facet normal -7.693340e-01 6.388468e-01 -1.016257e-15
    outer loop
      vertex   -3.755045e+02 3.102109e+01 -2.233333e+01
      vertex   -3.756816e+02 3.080790e+01 -1.786667e+01
      vertex   -3.755045e+02 3.102109e+01 -1.786667e+01
    endloop
  endfacet
  facet normal -7.071068e-01 7.071068e-01 -1.124842e-15
    outer loop
      vertex   -3.755045e+02 3.102109e+01 -2.233333e+01
      vertex   -3.755045e+02 3.102109e+01 -1.786667e+01
      vertex   -3.753086e+02 3.121703e+01 -2.233333e+01
    endloop
  endfacet
  facet normal -7.071068e-01 7.071068e-01 0.000000e+00
    outer loop
      vertex   -3.753086e+02 3.121703e+01 -2.233333e+01
      vertex   -3.755045e+02 3.102109e+01 -1.786667e+01
      vertex   -3.753086e+02 3.121703e+01 -1.786667e+01
    endloop
  endfacet
  facet normal -6.388468e-01 7.693340e-01 0.000000e+00
    outer loop
      vertex   -3.753086e+02 3.121703e+01 -2.233333e+01
      vertex   -3.753086e+02 3.121703e+01 -1.786667e+01
      vertex   -3.750954e+02 3.139405e+01 -2.233333e+01
    endloop
  endfacet
  facet normal -6.388468e-01 7.693340e-01 0.000000e+00
    outer loop
      vertex   -3.750954e+02 3.139405e+01 -2.233333e+01
      vertex   -3.753086e+02 3.121703e+01 -1.786667e+01
      vertex   -3.750954e+02 3.139405e+01 -1.786667e+01
    endloop
  endfacet
  facet normal -5.651364e-01 8.249975e-01 0.000000e+00
    outer loop
      vertex   -3.750954e+02 3.139405e+01 -2.233333e+01
      vertex   -3.750954e+02 3.139405e+01 -1.786667e+01
      vertex   -3.748668e+02 3.155065e+01 -2.233333e+01
    endloop
  endfacet
  facet normal -5.651364e-01 8.249975e-01 -6.561895e-16
    outer loop
      vertex   -3.748668e+02 3.155065e+01 -2.233333e+01
      vertex   -3.750954e+02 3.139405e+01 -1.786667e+01
      vertex   -3.748668e+02 3.155065e+01 -1.786667e+01
    endloop
  endfacet
  facet normal -4.866045e-01 8.736224e-01 -6.948650e-16
    outer loop
      vertex   -3.748668e+02 3.155065e+01 -2.233333e+01
      vertex   -3.748668e+02 3.155065e+01 -1.786667e+01
      vertex   -3.746247e+02 3.168549e+01 -2.233333e+01
    endloop
  endfacet
  facet normal -4.866045e-01 8.736224e-01 0.000000e+00
    outer loop
      vertex   -3.746247e+02 3.168549e+01 -2.233333e+01
      vertex   -3.748668e+02 3.155065e+01 -1.786667e+01
      vertex   -3.746247e+02 3.168549e+01 -1.786667e+01
    endloop
  endfacet
  facet normal -4.039210e-01 9.147939e-01 0.000000e+00
    outer loop
      vertex   -3.746247e+02 3.168549e+01 -2.233333e+01
      vertex   -3.746247e+02 3.168549e+01 -1.786667e+01
      vertex   -3.743712e+02 3.179742e+01 -2.233333e+01
    endloop
  endfacet
  facet normal -4.039210e-01 9.147939e-01 0.000000e+00
    outer loop
      vertex   -3.743712e+02 3.179742e+01 -2.233333e+01
      vertex   -3.746247e+02 3.168549e+01 -1.786667e+01
      vertex   -3.743712e+02 3.179742e+01 -1.786667e+01
    endloop
  endfacet
  facet normal -3.177914e-01 9.481606e-01 0.000000e+00
    outer loop
      vertex   -3.743712e+02 3.179742e+01 -2.233333e+01
      vertex   -3.743712e+02 3.179742e+01 -1.786667e+01
      vertex   -3.741085e+02 3.188548e+01 -2.233333e+01
    endloop
  endfacet
  facet normal -3.177914e-01 9.481606e-01 7.541515e-16
    outer loop
      vertex   -3.741085e+02 3.188548e+01 -2.233333e+01
      vertex   -3.743712e+02 3.179742e+01 -1.786667e+01
      vertex   -3.741085e+02 3.188548e+01 -1.786667e+01
    endloop
  endfacet
  facet normal -2.289505e-01 9.734381e-01 7.742567e-16
    outer loop
      vertex   -3.741085e+02 3.188548e+01 -2.233333e+01
      vertex   -3.741085e+02 3.188548e+01 -1.786667e+01
      vertex   -3.738387e+02 3.194892e+01 -2.233333e+01
    endloop
  endfacet
  facet normal -2.289505e-01 9.734381e-01 0.000000e+00
    outer loop
      vertex   -3.738387e+02 3.194892e+01 -2.233333e+01
      vertex   -3.741085e+02 3.188548e+01 -1.786667e+01
      vertex   -3.738387e+02 3.194892e+01 -1.786667e+01
    endloop
  endfacet
  facet normal -1.381564e-01 9.904104e-01 0.000000e+00
    outer loop
      vertex   -3.738387e+02 3.194892e+01 -2.233333e+01
      vertex   -3.738387e+02 3.194892e+01 -1.786667e+01
      vertex   -3.735643e+02 3.198720e+01 -2.233333e+01
    endloop
  endfacet
  facet normal -1.381564e-01 9.904104e-01 0.000000e+00
    outer loop
      vertex   -3.735643e+02 3.198720e+01 -2.233333e+01
      vertex   -3.738387e+02 3.194892e+01 -1.786667e+01
      vertex   -3.735643e+02 3.198720e+01 -1.786667e+01
    endloop
  endfacet
  facet normal -1.000000e+00 2.186285e-15 7.468506e-31
    outer loop
      vertex   -3.762875e+02 3.000000e+00 -1.380000e+01
      vertex   -3.762875e+02 2.900000e+01 -1.380000e+01
      vertex   -3.762875e+02 3.000000e+00 -2.680000e+01
    endloop
  endfacet
  facet normal -1.000000e+00 2.186285e-15 0.000000e+00
    outer loop
      vertex   -3.762875e+02 3.000000e+00 -2.680000e+01
      vertex   -3.762875e+02 2.900000e+01 -1.380000e+01
      vertex   -3.762875e+02 2.900000e+01 -2.680000e+01
    endloop
  endfacet
  facet normal -0.000000e+00 0.000000e+00 1.000000e+00
    outer loop
      vertex   -3.758875e+02 3.049666e+01 -1.340000e+01
      vertex   -3.758875e+02 1.740000e+01 -1.340000e+01
      vertex   -3.757333e+02 3.073732e+01 -1.340000e+01
    endloop
  endfacet
  facet normal -0.000000e+00 0.000000e+00 1.000000e+00
    outer loop
      vertex   -3.757333e+02 3.073732e+01 -1.340000e+01
      vertex   -3.758875e+02 1.740000e+01 -1.340000e+01
      vertex   -3.755568e+02 3.096220e+01 -1.340000e+01
    endloop
  endfacet
  facet normal -0.000000e+00 0.000000e+00 1.000000e+00
    outer loop
      vertex   -3.755568e+02 3.096220e+01 -1.340000e+01
      vertex   -3.758875e+02 1.740000e+01 -1.340000e+01
      vertex   -3.753598e+02 3.116927e+01 -1.340000e+01
    endloop
  endfacet
  facet normal -0.000000e+00 0.000000e+00 1.000000e+00
    outer loop
      vertex   -3.753598e+02 3.116927e+01 -1.340000e+01
      vertex   -3.758875e+02 1.740000e+01 -1.340000e+01
      vertex   -3.751439e+02 3.135664e+01 -1.340000e+01
    endloop
  endfacet
  facet normal -0.000000e+00 0.000000e+00 1.000000e+00
    outer loop
      vertex   -3.751439e+02 3.135664e+01 -1.340000e+01
      vertex   -3.758875e+02 1.740000e+01 -1.340000e+01
      vertex   -3.749112e+02 3.152262e+01 -1.340000e+01
    endloop
  endfacet
  facet normal -0.000000e+00 0.000000e+00 1.000000e+00
    outer loop
      vertex   -3.749112e+02 3.152262e+01 -1.340000e+01
      vertex   -3.758875e+02 1.740000e+01 -1.340000e+01
      vertex   -3.746637e+02 3.166570e+01 -1.340000e+01
    endloop
  endfacet
  facet normal 0.000000e+00 0.000000e+00 1.000000e+00
    outer loop
      vertex   -3.746637e+02 3.166570e+01 -1.340000e+01
      vertex   -3.758875e+02 1.740000e+01 -1.340000e+01
      vertex   -3.728875e+02 1.740000e+01 -1.340000e+01
    endloop
  endfacet
  facet normal -0.000000e+00 0.000000e+00 1.000000e+00
    outer loop
      vertex   -3.746637e+02 3.166570e+01 -1.340000e+01
      vertex   -3.728875e+02 1.740000e+01 -1.340000e+01
      vertex   -3.744038e+02 3.178458e+01 -1.340000e+01
    endloop
  endfacet
  facet normal -0.000000e+00 0.000000e+00 1.000000e+00
    outer loop
      vertex   -3.744038e+02 3.178458e+01 -1.340000e+01
      vertex   -3.728875e+02 1.740000e+01 -1.340000e+01
      vertex   -3.741337e+02 3.187818e+01 -1.340000e+01
    endloop
  endfacet
  facet normal -0.000000e+00 0.000000e+00 1.000000e+00
    outer loop
      vertex   -3.741337e+02 3.187818e+01 -1.340000e+01
      vertex   -3.728875e+02 1.740000e+01 -1.340000e+01
      vertex   -3.738559e+02 3.194565e+01 -1.340000e+01
    endloop
  endfacet
  facet normal -0.000000e+00 0.000000e+00 1.000000e+00
    outer loop
      vertex   -3.738559e+02 3.194565e+01 -1.340000e+01
      vertex   -3.728875e+02 1.740000e+01 -1.340000e+01
      vertex   -3.735730e+02 3.198638e+01 -1.340000e+01
    endloop
  endfacet
  facet normal -0.000000e+00 0.000000e+00 1.000000e+00
    outer loop
      vertex   -3.735730e+02 3.198638e+01 -1.340000e+01
      vertex   -3.728875e+02 1.740000e+01 -1.340000e+01
      vertex   -3.732875e+02 3.200000e+01 -1.340000e+01
    endloop
  endfacet
  facet normal -0.000000e+00 0.000000e+00 1.000000e+00
    outer loop
      vertex   -3.732875e+02 3.200000e+01 -1.340000e+01
      vertex   -3.728875e+02 1.740000e+01 -1.340000e+01
      vertex   -3.728875e+02 3.200000e+01 -1.340000e+01
    endloop
  endfacet
  facet normal -0.000000e+00 0.000000e+00 1.000000e+00
    outer loop
      vertex   -3.758875e+02 5.000000e+00 -1.340000e+01
      vertex   -3.728875e+02 5.000000e+00 -1.340000e+01
      vertex   -3.758875e+02 8.800000e+00 -1.340000e+01
    endloop
  endfacet
  facet normal 0.000000e+00 0.000000e+00 1.000000e+00
    outer loop
      vertex   -3.758875e+02 8.800000e+00 -1.340000e+01
      vertex   -3.728875e+02 5.000000e+00 -1.340000e+01
      vertex   -3.728875e+02 8.800000e+00 -1.340000e+01
    endloop
  endfacet
  facet normal 0.000000e+00 1.000000e+00 0.000000e+00
    outer loop
      vertex   -3.728875e+02 3.200000e+01 -1.340000e+01
      vertex   -3.728875e+02 3.200000e+01 -2.680000e+01
      vertex   -3.732875e+02 3.200000e+01 -1.340000e+01
    endloop
  endfacet
  facet normal 0.000000e+00 1.000000e+00 0.000000e+00
    outer loop
      vertex   -3.732875e+02 3.200000e+01 -1.340000e+01
      vertex   -3.728875e+02 3.200000e+01 -2.680000e+01
      vertex   -3.732875e+02 3.200000e+01 -2.680000e+01
    endloop
  endfacet
  facet normal -0.000000e+00 0.000000e+00 -1.000000e+00
    outer loop
      vertex   -3.728875e+02 3.200000e+01 -2.680000e+01
      vertex   -3.728875e+02 3.000000e+00 -2.680000e+01
      vertex   -3.732875e+02 3.200000e+01 -2.680000e+01
    endloop
  endfacet
  facet normal 0.000000e+00 -0.000000e+00 -1.000000e+00
    outer loop
      vertex   -3.732875e+02 3.200000e+01 -2.680000e+01
      vertex   -3.728875e+02 3.000000e+00 -2.680000e+01
      vertex   -3.735643e+02 3.198720e+01 -2.680000e+01
    endloop
  endfacet
  facet normal 0.000000e+00 -0.000000e+00 -1.000000e+00
    outer loop
      vertex   -3.735643e+02 3.198720e+01 -2.680000e+01
      vertex   -3.728875e+02 3.000000e+00 -2.680000e+01
      vertex   -3.738387e+02 3.194892e+01 -2.680000e+01
    endloop
  endfacet
  facet normal 0.000000e+00 -0.000000e+00 -1.000000e+00
    outer loop
      vertex   -3.738387e+02 3.194892e+01 -2.680000e+01
      vertex   -3.728875e+02 3.000000e+00 -2.680000e+01
      vertex   -3.741085e+02 3.188548e+01 -2.680000e+01
    endloop
  endfacet
  facet normal 0.000000e+00 -0.000000e+00 -1.000000e+00
    outer loop
      vertex   -3.741085e+02 3.188548e+01 -2.680000e+01
      vertex   -3.728875e+02 3.000000e+00 -2.680000e+01
      vertex   -3.743712e+02 3.179742e+01 -2.680000e+01
    endloop
  endfacet
  facet normal 0.000000e+00 -0.000000e+00 -1.000000e+00
    outer loop
      vertex   -3.743712e+02 3.179742e+01 -2.680000e+01
      vertex   -3.728875e+02 3.000000e+00 -2.680000e+01
      vertex   -3.746247e+02 3.168549e+01 -2.680000e+01
    endloop
  endfacet
  facet normal 0.000000e+00 -0.000000e+00 -1.000000e+00
    outer loop
      vertex   -3.746247e+02 3.168549e+01 -2.680000e+01
      vertex   -3.728875e+02 3.000000e+00 -2.680000e+01
      vertex   -3.762875e+02 3.000000e+00 -2.680000e+01
    endloop
  endfacet
  facet normal 0.000000e+00 0.000000e+00 -1.000000e+00
    outer loop
      vertex   -3.746247e+02 3.168549e+01 -2.680000e+01
      vertex   -3.762875e+02 3.000000e+00 -2.680000e+01
      vertex   -3.748668e+02 3.155065e+01 -2.680000e+01
    endloop
  endfacet
  facet normal 0.000000e+00 0.000000e+00 -1.000000e+00
    outer loop
      vertex   -3.748668e+02 3.155065e+01 -2.680000e+01
      vertex   -3.762875e+02 3.000000e+00 -2.680000e+01
      vertex   -3.750954e+02 3.139405e+01 -2.680000e+01
    endloop
  endfacet
  facet normal 0.000000e+00 0.000000e+00 -1.000000e+00
    outer loop
      vertex   -3.750954e+02 3.139405e+01 -2.680000e+01
      vertex   -3.762875e+02 3.000000e+00 -2.680000e+01
      vertex   -3.753086e+02 3.121703e+01 -2.680000e+01
    endloop
  endfacet
  facet normal 0.000000e+00 0.000000e+00 -1.000000e+00
    outer loop
      vertex   -3.753086e+02 3.121703e+01 -2.680000e+01
      vertex   -3.762875e+02 3.000000e+00 -2.680000e+01
      vertex   -3.755045e+02 3.102109e+01 -2.680000e+01
    endloop
  endfacet
  facet normal 0.000000e+00 0.000000e+00 -1.000000e+00
    outer loop
      vertex   -3.755045e+02 3.102109e+01 -2.680000e+01
      vertex   -3.762875e+02 3.000000e+00 -2.680000e+01
      vertex   -3.756816e+02 3.080790e+01 -2.680000e+01
    endloop
  endfacet
  facet normal 0.000000e+00 0.000000e+00 -1.000000e+00
    outer loop
      vertex   -3.756816e+02 3.080790e+01 -2.680000e+01
      vertex   -3.762875e+02 3.000000e+00 -2.680000e+01
      vertex   -3.762875e+02 2.900000e+01 -2.680000e+01
    endloop
  endfacet
  facet normal 0.000000e+00 0.000000e+00 -1.000000e+00
    outer loop
      vertex   -3.756816e+02 3.080790e+01 -2.680000e+01
      vertex   -3.762875e+02 2.900000e+01 -2.680000e+01
      vertex   -3.758382e+02 3.057930e+01 -2.680000e+01
    endloop
  endfacet
  facet normal 0.000000e+00 0.000000e+00 -1.000000e+00
    outer loop
      vertex   -3.758382e+02 3.057930e+01 -2.680000e+01
      vertex   -3.762875e+02 2.900000e+01 -2.680000e+01
      vertex   -3.759730e+02 3.033722e+01 -2.680000e+01
    endloop
  endfacet
  facet normal 0.000000e+00 0.000000e+00 -1.000000e+00
    outer loop
      vertex   -3.759730e+02 3.033722e+01 -2.680000e+01
      vertex   -3.762875e+02 2.900000e+01 -2.680000e+01
      vertex   -3.760849e+02 3.008372e+01 -2.680000e+01
    endloop
  endfacet
  facet normal 0.000000e+00 0.000000e+00 -1.000000e+00
    outer loop
      vertex   -3.760849e+02 3.008372e+01 -2.680000e+01
      vertex   -3.762875e+02 2.900000e+01 -2.680000e+01
      vertex   -3.761730e+02 2.982099e+01 -2.680000e+01
    endloop
  endfacet
  facet normal 0.000000e+00 0.000000e+00 -1.000000e+00
    outer loop
      vertex   -3.761730e+02 2.982099e+01 -2.680000e+01
      vertex   -3.762875e+02 2.900000e+01 -2.680000e+01
      vertex   -3.762364e+02 2.955125e+01 -2.680000e+01
    endloop
  endfacet
  facet normal 0.000000e+00 0.000000e+00 -1.000000e+00
    outer loop
      vertex   -3.762364e+02 2.955125e+01 -2.680000e+01
      vertex   -3.762875e+02 2.900000e+01 -2.680000e+01
      vertex   -3.762747e+02 2.927681e+01 -2.680000e+01
    endloop
  endfacet
  facet normal 2.562053e-15 1.000000e+00 3.416071e-16
    outer loop
      vertex   -3.762875e+02 3.000000e+00 -1.380000e+01
      vertex   -3.762875e+02 3.000000e+00 -2.680000e+01
      vertex   -3.766875e+02 3.000000e+00 -1.340000e+01
    endloop
  endfacet
  facet normal 2.537653e-15 1.000000e+00 3.408787e-16
    outer loop
      vertex   -3.766875e+02 3.000000e+00 -1.340000e+01
      vertex   -3.762875e+02 3.000000e+00 -2.680000e+01
      vertex   -3.808875e+02 3.000000e+00 -1.340000e+01
    endloop
  endfacet
  facet normal 2.147173e-15 1.000000e+00 2.068335e-16
    outer loop
      vertex   -3.808875e+02 3.000000e+00 -1.340000e+01
      vertex   -3.762875e+02 3.000000e+00 -2.680000e+01
      vertex   -4.028875e+02 3.000000e+00 -5.340000e+01
    endloop
  endfacet
  facet normal 2.523234e-15 1.000000e+00 0.000000e+00
    outer loop
      vertex   -3.808875e+02 3.000000e+00 -1.340000e+01
      vertex   -4.028875e+02 3.000000e+00 -5.340000e+01
      vertex   -4.028875e+02 3.000000e+00 0.000000e+00
    endloop
  endfacet
  facet normal 1.306145e-15 1.000000e+00 -1.001705e-16
    outer loop
      vertex   -3.728875e+02 3.000000e+00 -2.680000e+01
      vertex   -3.728875e+02 3.000000e+00 -5.340000e+01
      vertex   -3.762875e+02 3.000000e+00 -2.680000e+01
    endloop
  endfacet
  facet normal 2.324067e-15 1.000000e+00 2.993985e-17
    outer loop
      vertex   -3.762875e+02 3.000000e+00 -2.680000e+01
      vertex   -3.728875e+02 3.000000e+00 -5.340000e+01
      vertex   -4.028875e+02 3.000000e+00 -5.340000e+01
    endloop
  endfacet
  facet normal 2.523234e-15 1.000000e+00 0.000000e+00
    outer loop
      vertex   -4.028875e+02 3.000000e+00 0.000000e+00
      vertex   -3.808875e+02 3.000000e+00 0.000000e+00
      vertex   -3.808875e+02 3.000000e+00 -1.340000e+01
    endloop
  endfacet
  facet normal -0.000000e+00 0.000000e+00 -1.000000e+00
    outer loop
      vertex   -3.758875e+02 3.119089e+01 -1.340000e+01
      vertex   -3.760691e+02 3.095523e+01 -1.340000e+01
      vertex   -3.758875e+02 3.200000e+01 -1.340000e+01
    endloop
  endfacet
  facet normal 0.000000e+00 0.000000e+00 -1.000000e+00
    outer loop
      vertex   -3.758875e+02 3.200000e+01 -1.340000e+01
      vertex   -3.760691e+02 3.095523e+01 -1.340000e+01
      vertex   -3.762293e+02 3.070459e+01 -1.340000e+01
    endloop
  endfacet
  facet normal 0.000000e+00 0.000000e+00 -1.000000e+00
    outer loop
      vertex   -3.758875e+02 3.200000e+01 -1.340000e+01
      vertex   -3.762293e+02 3.070459e+01 -1.340000e+01
      vertex   -3.763671e+02 3.044091e+01 -1.340000e+01
    endloop
  endfacet
  facet normal -0.000000e+00 0.000000e+00 -1.000000e+00
    outer loop
      vertex   -3.758875e+02 3.200000e+01 -1.340000e+01
      vertex   -3.763671e+02 3.044091e+01 -1.340000e+01
      vertex   -3.783875e+02 3.500000e+01 -1.340000e+01
    endloop
  endfacet
  facet normal 0.000000e+00 0.000000e+00 -1.000000e+00
    outer loop
      vertex   -3.783875e+02 3.500000e+01 -1.340000e+01
      vertex   -3.763671e+02 3.044091e+01 -1.340000e+01
      vertex   -3.764812e+02 3.016619e+01 -1.340000e+01
    endloop
  endfacet
  facet normal 0.000000e+00 0.000000e+00 -1.000000e+00
    outer loop
      vertex   -3.783875e+02 3.500000e+01 -1.340000e+01
      vertex   -3.764812e+02 3.016619e+01 -1.340000e+01
      vertex   -3.765710e+02 2.988255e+01 -1.340000e+01
    endloop
  endfacet
  facet normal -0.000000e+00 0.000000e+00 -1.000000e+00
    outer loop
      vertex   -3.765710e+02 2.988255e+01 -1.340000e+01
      vertex   -3.766355e+02 2.959214e+01 -1.340000e+01
      vertex   -3.783875e+02 3.500000e+01 -1.340000e+01
    endloop
  endfacet
  facet normal 0.000000e+00 0.000000e+00 -1.000000e+00
    outer loop
      vertex   -3.783875e+02 3.500000e+01 -1.340000e+01
      vertex   -3.766355e+02 2.959214e+01 -1.340000e+01
      vertex   -3.766745e+02 2.929721e+01 -1.340000e+01
    endloop
  endfacet
  facet normal 0.000000e+00 0.000000e+00 -1.000000e+00
    outer loop
      vertex   -3.783875e+02 3.500000e+01 -1.340000e+01
      vertex   -3.766745e+02 2.929721e+01 -1.340000e+01
      vertex   -3.766875e+02 2.900000e+01 -1.340000e+01
    endloop
  endfacet
  facet normal 0.000000e+00 0.000000e+00 -1.000000e+00
    outer loop
      vertex   -3.783875e+02 3.500000e+01 -1.340000e+01
      vertex   -3.766875e+02 2.900000e+01 -1.340000e+01
      vertex   -3.783875e+02 1.740000e+01 -1.340000e+01
    endloop
  endfacet
  facet normal 0.000000e+00 0.000000e+00 -1.000000e+00
    outer loop
      vertex   -3.783875e+02 1.740000e+01 -1.340000e+01
      vertex   -3.766875e+02 2.900000e+01 -1.340000e+01
      vertex   -3.766875e+02 3.000000e+00 -1.340000e+01
    endloop
  endfacet
  facet normal 0.000000e+00 -0.000000e+00 -1.000000e+00
    outer loop
      vertex   -3.783875e+02 1.740000e+01 -1.340000e+01
      vertex   -3.766875e+02 3.000000e+00 -1.340000e+01
      vertex   -3.808875e+02 3.000000e+00 -1.340000e+01
    endloop
  endfacet
  facet normal 0.000000e+00 0.000000e+00 -1.000000e+00
    outer loop
      vertex   -3.808875e+02 3.000000e+00 -1.340000e+01
      vertex   -3.808875e+02 1.740000e+01 -1.340000e+01
      vertex   -3.783875e+02 1.740000e+01 -1.340000e+01
    endloop
  endfacet
  facet normal 0.000000e+00 0.000000e+00 -1.000000e+00
    outer loop
      vertex   -3.783875e+02 3.500000e+01 -1.340000e+01
      vertex   -3.728875e+02 3.500000e+01 -1.340000e+01
      vertex   -3.758875e+02 3.200000e+01 -1.340000e+01
    endloop
  endfacet
  facet normal 0.000000e+00 0.000000e+00 -1.000000e+00
    outer loop
      vertex   -3.758875e+02 3.200000e+01 -1.340000e+01
      vertex   -3.728875e+02 3.500000e+01 -1.340000e+01
      vertex   -3.732875e+02 3.200000e+01 -1.340000e+01
    endloop
  endfacet
  facet normal 0.000000e+00 0.000000e+00 -1.000000e+00
    outer loop
      vertex   -3.732875e+02 3.200000e+01 -1.340000e+01
      vertex   -3.728875e+02 3.500000e+01 -1.340000e+01
      vertex   -3.728875e+02 3.200000e+01 -1.340000e+01
    endloop
  endfacet
  facet normal -2.842171e-15 -1.000000e+00 0.000000e+00
    outer loop
      vertex   -3.758875e+02 2.450000e+01 -1.140000e+01
      vertex   -3.758875e+02 2.450000e+01 -2.002846e+00
      vertex   -3.783875e+02 2.450000e+01 -1.140000e+01
    endloop
  endfacet
  facet normal -2.842171e-15 -1.000000e+00 0.000000e+00
    outer loop
      vertex   -3.783875e+02 2.450000e+01 -1.140000e+01
      vertex   -3.758875e+02 2.450000e+01 -2.002846e+00
      vertex   -3.783875e+02 2.450000e+01 -2.002846e+00
    endloop
  endfacet
  facet normal -0.000000e+00 -0.000000e+00 -1.000000e+00
    outer loop
      vertex   -3.758875e+02 2.450000e+01 -2.002846e+00
      vertex   -3.758875e+02 2.120000e+01 -2.002846e+00
      vertex   -3.783875e+02 2.450000e+01 -2.002846e+00
    endloop
  endfacet
  facet normal 0.000000e+00 0.000000e+00 -1.000000e+00
    outer loop
      vertex   -3.783875e+02 2.450000e+01 -2.002846e+00
      vertex   -3.758875e+02 2.120000e+01 -2.002846e+00
      vertex   -3.783875e+02 2.120000e+01 -2.002846e+00
    endloop
  endfacet
  facet normal 4.263256e-15 1.000000e+00 0.000000e+00
    outer loop
      vertex   -3.758875e+02 2.120000e+01 -2.002846e+00
      vertex   -3.758875e+02 2.120000e+01 -1.140000e+01
      vertex   -3.783875e+02 2.120000e+01 -2.002846e+00
    endloop
  endfacet
  facet normal 4.263256e-15 1.000000e+00 0.000000e+00
    outer loop
      vertex   -3.783875e+02 2.120000e+01 -2.002846e+00
      vertex   -3.758875e+02 2.120000e+01 -1.140000e+01
      vertex   -3.783875e+02 2.120000e+01 -1.140000e+01
    endloop
  endfacet
  facet normal 0.000000e+00 -0.000000e+00 1.000000e+00
    outer loop
      vertex   -3.758875e+02 2.120000e+01 -1.140000e+01
      vertex   -3.758875e+02 2.450000e+01 -1.140000e+01
      vertex   -3.783875e+02 2.120000e+01 -1.140000e+01
    endloop
  endfacet
  facet normal 0.000000e+00 0.000000e+00 1.000000e+00
    outer loop
      vertex   -3.783875e+02 2.120000e+01 -1.140000e+01
      vertex   -3.758875e+02 2.450000e+01 -1.140000e+01
      vertex   -3.783875e+02 2.450000e+01 -1.140000e+01
    endloop
  endfacet
  facet normal 0.000000e+00 0.000000e+00 -1.000000e+00
    outer loop
      vertex   -4.028875e+02 3.000000e+00 -5.340000e+01
      vertex   -3.728875e+02 3.000000e+00 -5.340000e+01
      vertex   -4.028875e+02 5.611816e-13 -5.340000e+01
    endloop
  endfacet
  facet normal 0.000000e+00 0.000000e+00 -1.000000e+00
    outer loop
      vertex   -4.028875e+02 5.611816e-13 -5.340000e+01
      vertex   -3.728875e+02 3.000000e+00 -5.340000e+01
      vertex   -3.728875e+02 4.785061e-13 -5.340000e+01
    endloop
  endfacet
  facet normal 3.438110e-15 1.000000e+00 8.404269e-15
    outer loop
      vertex   -3.777875e+02 1.740000e+01 0.000000e+00
      vertex   -3.783875e+02 1.740000e+01 -6.000000e-01
      vertex   -3.808875e+02 1.740000e+01 0.000000e+00
    endloop
  endfacet
  facet normal 1.421085e-15 1.000000e+00 0.000000e+00
    outer loop
      vertex   -3.808875e+02 1.740000e+01 0.000000e+00
      vertex   -3.783875e+02 1.740000e+01 -6.000000e-01
      vertex   -3.808875e+02 1.740000e+01 -1.340000e+01
    endloop
  endfacet
  facet normal 2.842171e-15 1.000000e+00 -2.775558e-16
    outer loop
      vertex   -3.808875e+02 1.740000e+01 -1.340000e+01
      vertex   -3.783875e+02 1.740000e+01 -6.000000e-01
      vertex   -3.783875e+02 1.740000e+01 -1.340000e+01
    endloop
  endfacet
  facet normal 2.368476e-15 1.000000e+00 -2.775558e-16
    outer loop
      vertex   -3.758875e+02 1.740000e+01 -1.340000e+01
      vertex   -3.758875e+02 1.740000e+01 -6.000000e-01
      vertex   -3.728875e+02 1.740000e+01 -1.340000e+01
    endloop
  endfacet
  facet normal 3.552714e-15 1.000000e+00 -0.000000e+00
    outer loop
      vertex   -3.728875e+02 1.740000e+01 -1.340000e+01
      vertex   -3.758875e+02 1.740000e+01 -6.000000e-01
      vertex   -3.728875e+02 1.740000e+01 0.000000e+00
    endloop
  endfacet
  facet normal 2.960595e-15 1.000000e+00 2.960595e-15
    outer loop
      vertex   -3.728875e+02 1.740000e+01 0.000000e+00
      vertex   -3.758875e+02 1.740000e+01 -6.000000e-01
      vertex   -3.764875e+02 1.740000e+01 0.000000e+00
    endloop
  endfacet
  facet normal -2.755848e-15 -1.000000e+00 0.000000e+00
    outer loop
      vertex   -4.028875e+02 5.611816e-13 -5.340000e+01
      vertex   -3.728875e+02 4.785061e-13 -5.340000e+01
      vertex   -4.028875e+02 5.611816e-13 0.000000e+00
    endloop
  endfacet
  facet normal -2.755848e-15 -1.000000e+00 0.000000e+00
    outer loop
      vertex   -4.028875e+02 5.611816e-13 0.000000e+00
      vertex   -3.728875e+02 4.785061e-13 -5.340000e+01
      vertex   -3.728875e+02 4.785061e-13 0.000000e+00
    endloop
  endfacet
  facet normal -1.000000e+00 0.000000e+00 0.000000e+00
    outer loop
      vertex   -4.028875e+02 3.000000e+00 -5.340000e+01
      vertex   -4.028875e+02 5.611816e-13 -5.340000e+01
      vertex   -4.028875e+02 3.000000e+00 0.000000e+00
    endloop
  endfacet
  facet normal -1.000000e+00 -0.000000e+00 0.000000e+00
    outer loop
      vertex   -4.028875e+02 3.000000e+00 0.000000e+00
      vertex   -4.028875e+02 5.611816e-13 -5.340000e+01
      vertex   -4.028875e+02 5.611816e-13 0.000000e+00
    endloop
  endfacet
  facet normal -1.000000e+00 3.947460e-15 0.000000e+00
    outer loop
      vertex   -3.808875e+02 1.740000e+01 -1.340000e+01
      vertex   -3.808875e+02 3.000000e+00 -1.340000e+01
      vertex   -3.808875e+02 1.740000e+01 0.000000e+00
    endloop
  endfacet
  facet normal -1.000000e+00 3.947460e-15 0.000000e+00
    outer loop
      vertex   -3.808875e+02 1.740000e+01 0.000000e+00
      vertex   -3.808875e+02 3.000000e+00 -1.340000e+01
      vertex   -3.808875e+02 3.000000e+00 0.000000e+00
    endloop
  endfacet
  facet normal -2.960595e-15 -1.000000e+00 0.000000e+00
    outer loop
      vertex   -3.758875e+02 8.800000e+00 -1.340000e+01
      vertex   -3.728875e+02 8.800000e+00 -1.340000e+01
      vertex   -3.758875e+02 8.800000e+00 0.000000e+00
    endloop
  endfacet
  facet normal -2.960595e-15 -1.000000e+00 0.000000e+00
    outer loop
      vertex   -3.758875e+02 8.800000e+00 0.000000e+00
      vertex   -3.728875e+02 8.800000e+00 -1.340000e+01
      vertex   -3.728875e+02 8.800000e+00 0.000000e+00
    endloop
  endfacet
  facet normal 1.000000e+00 0.000000e+00 0.000000e+00
    outer loop
      vertex   -3.758875e+02 5.000000e+00 -1.340000e+01
      vertex   -3.758875e+02 8.800000e+00 -1.340000e+01
      vertex   -3.758875e+02 5.000000e+00 0.000000e+00
    endloop
  endfacet
  facet normal 1.000000e+00 -0.000000e+00 0.000000e+00
    outer loop
      vertex   -3.758875e+02 5.000000e+00 0.000000e+00
      vertex   -3.758875e+02 8.800000e+00 -1.340000e+01
      vertex   -3.758875e+02 8.800000e+00 0.000000e+00
    endloop
  endfacet
  facet normal 2.960595e-15 1.000000e+00 -0.000000e+00
    outer loop
      vertex   -3.728875e+02 5.000000e+00 -1.340000e+01
      vertex   -3.758875e+02 5.000000e+00 -1.340000e+01
      vertex   -3.728875e+02 5.000000e+00 0.000000e+00
    endloop
  endfacet
  facet normal 2.960595e-15 1.000000e+00 0.000000e+00
    outer loop
      vertex   -3.728875e+02 5.000000e+00 0.000000e+00
      vertex   -3.758875e+02 5.000000e+00 -1.340000e+01
      vertex   -3.758875e+02 5.000000e+00 0.000000e+00
    endloop
  endfacet
  facet normal 1.000000e+00 -1.894781e-14 1.898011e-30
    outer loop
      vertex   -3.728875e+02 3.000000e+00 -5.340000e+01
      vertex   -3.728875e+02 3.000000e+00 -2.680000e+01
      vertex   -3.728875e+02 4.785061e-13 -5.340000e+01
    endloop
  endfacet
  facet normal 1.000000e+00 -1.894781e-14 0.000000e+00
    outer loop
      vertex   -3.728875e+02 4.785061e-13 -5.340000e+01
      vertex   -3.728875e+02 3.000000e+00 -2.680000e+01
      vertex   -3.728875e+02 4.785061e-13 0.000000e+00
    endloop
  endfacet
  facet normal 1.000000e+00 -8.120488e-15 1.212013e-15
    outer loop
      vertex   -3.728875e+02 4.785061e-13 0.000000e+00
      vertex   -3.728875e+02 3.000000e+00 -2.680000e+01
      vertex   -3.728875e+02 5.000000e+00 -1.340000e+01
    endloop
  endfacet
  facet normal 1.000000e+00 -1.136868e-14 0.000000e+00
    outer loop
      vertex   -3.728875e+02 4.785061e-13 0.000000e+00
      vertex   -3.728875e+02 5.000000e+00 -1.340000e+01
      vertex   -3.728875e+02 5.000000e+00 0.000000e+00
    endloop
  endfacet
  facet normal 1.000000e+00 -1.960118e-15 2.106395e-15
    outer loop
      vertex   -3.728875e+02 3.200000e+01 -2.680000e+01
      vertex   -3.728875e+02 1.740000e+01 -1.340000e+01
      vertex   -3.728875e+02 3.000000e+00 -2.680000e+01
    endloop
  endfacet
  facet normal 1.000000e+00 0.000000e+00 0.000000e+00
    outer loop
      vertex   -3.728875e+02 3.000000e+00 -2.680000e+01
      vertex   -3.728875e+02 1.740000e+01 -1.340000e+01
      vertex   -3.728875e+02 8.800000e+00 -1.340000e+01
    endloop
  endfacet
  facet normal 1.000000e+00 0.000000e+00 0.000000e+00
    outer loop
      vertex   -3.728875e+02 3.000000e+00 -2.680000e+01
      vertex   -3.728875e+02 8.800000e+00 -1.340000e+01
      vertex   -3.728875e+02 5.000000e+00 -1.340000e+01
    endloop
  endfacet
  facet normal 1.000000e+00 -3.893385e-15 0.000000e+00
    outer loop
      vertex   -3.728875e+02 3.200000e+01 -2.680000e+01
      vertex   -3.728875e+02 3.200000e+01 -1.340000e+01
      vertex   -3.728875e+02 1.740000e+01 -1.340000e+01
    endloop
  endfacet
  facet normal 1.000000e+00 0.000000e+00 0.000000e+00
    outer loop
      vertex   -3.728875e+02 1.740000e+01 0.000000e+00
      vertex   -3.728875e+02 8.800000e+00 0.000000e+00
      vertex   -3.728875e+02 1.740000e+01 -1.340000e+01
    endloop
  endfacet
  facet normal 1.000000e+00 0.000000e+00 0.000000e+00
    outer loop
      vertex   -3.728875e+02 1.740000e+01 -1.340000e+01
      vertex   -3.728875e+02 8.800000e+00 0.000000e+00
      vertex   -3.728875e+02 8.800000e+00 -1.340000e+01
    endloop
  endfacet
  facet normal 0.000000e+00 -1.000000e+00 0.000000e+00
    outer loop
      vertex   -3.728875e+02 3.200000e+01 -1.340000e+01
      vertex   -3.728875e+02 3.200000e+01 -6.000000e-01
      vertex   -3.732875e+02 3.200000e+01 -1.340000e+01
    endloop
  endfacet
  facet normal -2.368476e-15 -1.000000e+00 7.401487e-17
    outer loop
      vertex   -3.732875e+02 3.200000e+01 -1.340000e+01
      vertex   -3.728875e+02 3.200000e+01 -6.000000e-01
      vertex   -3.758875e+02 3.200000e+01 -6.000000e-01
    endloop
  endfacet
  facet normal -2.732857e-15 -1.000000e+00 0.000000e+00
    outer loop
      vertex   -3.732875e+02 3.200000e+01 -1.340000e+01
      vertex   -3.758875e+02 3.200000e+01 -6.000000e-01
      vertex   -3.758875e+02 3.200000e+01 -1.340000e+01
    endloop
  endfacet
  facet normal 1.000000e+00 -3.893385e-15 2.081510e-14
    outer loop
      vertex   -3.758875e+02 1.740000e+01 -6.000000e-01
      vertex   -3.758875e+02 2.450000e+01 -2.002846e+00
      vertex   -3.758875e+02 3.200000e+01 -6.000000e-01
    endloop
  endfacet
  facet normal 1.000000e+00 0.000000e+00 0.000000e+00
    outer loop
      vertex   -3.758875e+02 3.200000e+01 -6.000000e-01
      vertex   -3.758875e+02 2.450000e+01 -2.002846e+00
      vertex   -3.758875e+02 2.450000e+01 -1.140000e+01
    endloop
  endfacet
  facet normal 1.000000e+00 0.000000e+00 0.000000e+00
    outer loop
      vertex   -3.758875e+02 3.200000e+01 -6.000000e-01
      vertex   -3.758875e+02 2.450000e+01 -1.140000e+01
      vertex   -3.758875e+02 3.049666e+01 -1.340000e+01
    endloop
  endfacet
  facet normal 1.000000e+00 -4.340298e-15 -1.301365e-14
    outer loop
      vertex   -3.758875e+02 3.049666e+01 -1.340000e+01
      vertex   -3.758875e+02 2.450000e+01 -1.140000e+01
      vertex   -3.758875e+02 1.740000e+01 -1.340000e+01
    endloop
  endfacet
  facet normal 1.000000e+00 0.000000e+00 -2.842171e-14
    outer loop
      vertex   -3.758875e+02 1.740000e+01 -1.340000e+01
      vertex   -3.758875e+02 2.450000e+01 -1.140000e+01
      vertex   -3.758875e+02 2.120000e+01 -1.140000e+01
    endloop
  endfacet
  facet normal 1.000000e+00 -1.495879e-14 4.151900e-30
    outer loop
      vertex   -3.758875e+02 1.740000e+01 -1.340000e+01
      vertex   -3.758875e+02 2.120000e+01 -1.140000e+01
      vertex   -3.758875e+02 1.740000e+01 -6.000000e-01
    endloop
  endfacet
  facet normal 1.000000e+00 -1.495879e-14 0.000000e+00
    outer loop
      vertex   -3.758875e+02 1.740000e+01 -6.000000e-01
      vertex   -3.758875e+02 2.120000e+01 -1.140000e+01
      vertex   -3.758875e+02 2.120000e+01 -2.002846e+00
    endloop
  endfacet
  facet normal 1.000000e+00 0.000000e+00 4.052006e-14
    outer loop
      vertex   -3.758875e+02 1.740000e+01 -6.000000e-01
      vertex   -3.758875e+02 2.120000e+01 -2.002846e+00
      vertex   -3.758875e+02 2.450000e+01 -2.002846e+00
    endloop
  endfacet
  facet normal 1.000000e+00 0.000000e+00 0.000000e+00
    outer loop
      vertex   -3.758875e+02 3.049666e+01 -1.380000e+01
      vertex   -3.758875e+02 3.065813e+01 -1.371627e+01
      vertex   -3.758875e+02 3.049666e+01 -1.340000e+01
    endloop
  endfacet
  facet normal 1.000000e+00 0.000000e+00 0.000000e+00
    outer loop
      vertex   -3.758875e+02 3.049666e+01 -1.340000e+01
      vertex   -3.758875e+02 3.065813e+01 -1.371627e+01
      vertex   -3.758875e+02 3.082693e+01 -1.362232e+01
    endloop
  endfacet
  facet normal 1.000000e+00 1.705586e-13 2.533795e-13
    outer loop
      vertex   -3.758875e+02 3.049666e+01 -1.340000e+01
      vertex   -3.758875e+02 3.082693e+01 -1.362232e+01
      vertex   -3.758875e+02 3.100412e+01 -1.351724e+01
    endloop
  endfacet
  facet normal 1.000000e+00 0.000000e+00 -4.848293e-13
    outer loop
      vertex   -3.758875e+02 3.100412e+01 -1.351724e+01
      vertex   -3.758875e+02 3.119089e+01 -1.340000e+01
      vertex   -3.758875e+02 3.049666e+01 -1.340000e+01
    endloop
  endfacet
  facet normal 1.000000e+00 0.000000e+00 0.000000e+00
    outer loop
      vertex   -3.758875e+02 3.049666e+01 -1.340000e+01
      vertex   -3.758875e+02 3.119089e+01 -1.340000e+01
      vertex   -3.758875e+02 3.200000e+01 -6.000000e-01
    endloop
  endfacet
  facet normal 1.000000e+00 0.000000e+00 0.000000e+00
    outer loop
      vertex   -3.758875e+02 3.119089e+01 -1.340000e+01
      vertex   -3.758875e+02 3.200000e+01 -1.340000e+01
      vertex   -3.758875e+02 3.200000e+01 -6.000000e-01
    endloop
  endfacet
  facet normal 1.000000e+00 -0.000000e+00 0.000000e+00
    outer loop
      vertex   -3.728875e+02 3.200000e+01 -6.000000e-01
      vertex   -3.728875e+02 3.200000e+01 -1.340000e+01
      vertex   -3.728875e+02 3.260000e+01 0.000000e+00
    endloop
  endfacet
  facet normal 1.000000e+00 0.000000e+00 0.000000e+00
    outer loop
      vertex   -3.728875e+02 3.260000e+01 0.000000e+00
      vertex   -3.728875e+02 3.200000e+01 -1.340000e+01
      vertex   -3.728875e+02 3.500000e+01 -1.340000e+01
    endloop
  endfacet
  facet normal 1.000000e+00 -0.000000e+00 0.000000e+00
    outer loop
      vertex   -3.728875e+02 3.260000e+01 0.000000e+00
      vertex   -3.728875e+02 3.500000e+01 -1.340000e+01
      vertex   -3.728875e+02 3.500000e+01 0.000000e+00
    endloop
  endfacet
endsolid
