solid ASCII
  facet normal -7.071068e-01 -7.931118e-16 7.071068e-01
    outer loop
      vertex   1.637579e-14 1.740000e+01 -6.000000e-01
      vertex   6.000000e-01 1.740000e+01 0.000000e+00
      vertex   2.900224e-32 3.200000e+01 -6.000000e-01
    endloop
  endfacet
  facet normal -7.071068e-01 -7.962366e-16 7.071068e-01
    outer loop
      vertex   2.900224e-32 3.200000e+01 -6.000000e-01
      vertex   6.000000e-01 1.740000e+01 0.000000e+00
      vertex   6.000000e-01 3.260000e+01 0.000000e+00
    endloop
  endfacet
  facet normal 0.000000e+00 -7.071068e-01 7.071068e-01
    outer loop
      vertex   6.000000e-01 3.260000e+01 0.000000e+00
      vertex   -3.000000e+00 3.260000e+01 0.000000e+00
      vertex   2.900224e-32 3.200000e+01 -6.000000e-01
    endloop
  endfacet
  facet normal 0.000000e+00 -7.071068e-01 7.071068e-01
    outer loop
      vertex   2.900224e-32 3.200000e+01 -6.000000e-01
      vertex   -3.000000e+00 3.260000e+01 0.000000e+00
      vertex   -3.000000e+00 3.200000e+01 -6.000000e-01
    endloop
  endfacet
  facet normal 0.000000e+00 0.000000e+00 1.000000e+00
    outer loop
      vertex   -3.000000e+00 3.260000e+01 0.000000e+00
      vertex   6.000000e-01 3.260000e+01 0.000000e+00
      vertex   -3.000000e+00 3.500000e+01 0.000000e+00
    endloop
  endfacet
  facet normal -0.000000e+00 0.000000e+00 1.000000e+00
    outer loop
      vertex   -3.000000e+00 3.500000e+01 0.000000e+00
      vertex   6.000000e-01 3.260000e+01 0.000000e+00
      vertex   1.900000e+00 3.500000e+01 0.000000e+00
    endloop
  endfacet
  facet normal 0.000000e+00 0.000000e+00 1.000000e+00
    outer loop
      vertex   1.900000e+00 3.500000e+01 0.000000e+00
      vertex   6.000000e-01 3.260000e+01 0.000000e+00
      vertex   1.900000e+00 1.740000e+01 0.000000e+00
    endloop
  endfacet
  facet normal 0.000000e+00 0.000000e+00 1.000000e+00
    outer loop
      vertex   1.900000e+00 1.740000e+01 0.000000e+00
      vertex   6.000000e-01 3.260000e+01 0.000000e+00
      vertex   6.000000e-01 1.740000e+01 0.000000e+00
    endloop
  endfacet
  facet normal 0.000000e+00 0.000000e+00 1.000000e+00
    outer loop
      vertex   1.900000e+00 1.740000e+01 0.000000e+00
      vertex   6.000000e-01 1.740000e+01 0.000000e+00
      vertex   0.000000e+00 8.800000e+00 0.000000e+00
    endloop
  endfacet
  facet normal 0.000000e+00 -0.000000e+00 1.000000e+00
    outer loop
      vertex   0.000000e+00 8.800000e+00 0.000000e+00
      vertex   6.000000e-01 1.740000e+01 0.000000e+00
      vertex   -3.000000e+00 1.740000e+01 0.000000e+00
    endloop
  endfacet
  facet normal 0.000000e+00 0.000000e+00 1.000000e+00
    outer loop
      vertex   0.000000e+00 8.800000e+00 0.000000e+00
      vertex   -3.000000e+00 1.740000e+01 0.000000e+00
      vertex   -3.000000e+00 8.800000e+00 0.000000e+00
    endloop
  endfacet
  facet normal -0.000000e+00 0.000000e+00 1.000000e+00
    outer loop
      vertex   0.000000e+00 5.000000e+00 0.000000e+00
      vertex   5.000000e+00 3.000000e+00 0.000000e+00
      vertex   0.000000e+00 8.800000e+00 0.000000e+00
    endloop
  endfacet
  facet normal -0.000000e+00 0.000000e+00 1.000000e+00
    outer loop
      vertex   0.000000e+00 8.800000e+00 0.000000e+00
      vertex   5.000000e+00 3.000000e+00 0.000000e+00
      vertex   5.000000e+00 1.740000e+01 0.000000e+00
    endloop
  endfacet
  facet normal 0.000000e+00 0.000000e+00 1.000000e+00
    outer loop
      vertex   0.000000e+00 8.800000e+00 0.000000e+00
      vertex   5.000000e+00 1.740000e+01 0.000000e+00
      vertex   1.900000e+00 1.740000e+01 0.000000e+00
    endloop
  endfacet
  facet normal -0.000000e+00 0.000000e+00 1.000000e+00
    outer loop
      vertex   -3.000000e+00 5.000000e+00 0.000000e+00
      vertex   -3.000000e+00 1.540744e-32 0.000000e+00
      vertex   0.000000e+00 5.000000e+00 0.000000e+00
    endloop
  endfacet
  facet normal 0.000000e+00 0.000000e+00 1.000000e+00
    outer loop
      vertex   0.000000e+00 5.000000e+00 0.000000e+00
      vertex   -3.000000e+00 1.540744e-32 0.000000e+00
      vertex   5.000000e+00 3.000000e+00 0.000000e+00
    endloop
  endfacet
  facet normal 0.000000e+00 0.000000e+00 1.000000e+00
    outer loop
      vertex   -3.000000e+00 1.540744e-32 0.000000e+00
      vertex   2.700000e+01 4.959820e-15 0.000000e+00
      vertex   5.000000e+00 3.000000e+00 0.000000e+00
    endloop
  endfacet
  facet normal 0.000000e+00 0.000000e+00 1.000000e+00
    outer loop
      vertex   5.000000e+00 3.000000e+00 0.000000e+00
      vertex   2.700000e+01 4.959820e-15 0.000000e+00
      vertex   2.700000e+01 3.000000e+00 0.000000e+00
    endloop
  endfacet
  facet normal 7.071068e-01 0.000000e+00 7.071068e-01
    outer loop
      vertex   2.500000e+00 3.500000e+01 -6.000000e-01
      vertex   1.900000e+00 3.500000e+01 0.000000e+00
      vertex   2.500000e+00 1.740000e+01 -6.000000e-01
    endloop
  endfacet
  facet normal 7.071068e-01 0.000000e+00 7.071068e-01
    outer loop
      vertex   2.500000e+00 1.740000e+01 -6.000000e-01
      vertex   1.900000e+00 3.500000e+01 0.000000e+00
      vertex   1.900000e+00 1.740000e+01 0.000000e+00
    endloop
  endfacet
  facet normal 0.000000e+00 1.000000e+00 0.000000e+00
    outer loop
      vertex   2.500000e+00 3.500000e+01 -6.000000e-01
      vertex   2.500000e+00 3.500000e+01 -1.340000e+01
      vertex   1.900000e+00 3.500000e+01 0.000000e+00
    endloop
  endfacet
  facet normal 0.000000e+00 1.000000e+00 0.000000e+00
    outer loop
      vertex   1.900000e+00 3.500000e+01 0.000000e+00
      vertex   2.500000e+00 3.500000e+01 -1.340000e+01
      vertex   -3.000000e+00 3.500000e+01 -1.340000e+01
    endloop
  endfacet
  facet normal 0.000000e+00 1.000000e+00 0.000000e+00
    outer loop
      vertex   1.900000e+00 3.500000e+01 0.000000e+00
      vertex   -3.000000e+00 3.500000e+01 -1.340000e+01
      vertex   -3.000000e+00 3.500000e+01 0.000000e+00
    endloop
  endfacet
  facet normal 1.000000e+00 -0.000000e+00 3.165630e-16
    outer loop
      vertex   2.500000e+00 1.740000e+01 -6.000000e-01
      vertex   2.500000e+00 2.450000e+01 -2.002846e+00
      vertex   2.500000e+00 3.500000e+01 -6.000000e-01
    endloop
  endfacet
  facet normal 1.000000e+00 4.229421e-17 0.000000e+00
    outer loop
      vertex   2.500000e+00 3.500000e+01 -6.000000e-01
      vertex   2.500000e+00 2.450000e+01 -2.002846e+00
      vertex   2.500000e+00 2.450000e+01 -1.140000e+01
    endloop
  endfacet
  facet normal 1.000000e+00 4.229421e-17 0.000000e+00
    outer loop
      vertex   2.500000e+00 3.500000e+01 -6.000000e-01
      vertex   2.500000e+00 2.450000e+01 -1.140000e+01
      vertex   2.500000e+00 3.500000e+01 -1.340000e+01
    endloop
  endfacet
  facet normal 1.000000e+00 0.000000e+00 -2.220446e-16
    outer loop
      vertex   2.500000e+00 3.500000e+01 -1.340000e+01
      vertex   2.500000e+00 2.450000e+01 -1.140000e+01
      vertex   2.500000e+00 1.740000e+01 -1.340000e+01
    endloop
  endfacet
  facet normal 1.000000e+00 -2.691450e-16 7.334201e-16
    outer loop
      vertex   2.500000e+00 1.740000e+01 -1.340000e+01
      vertex   2.500000e+00 2.450000e+01 -1.140000e+01
      vertex   2.500000e+00 2.120000e+01 -1.140000e+01
    endloop
  endfacet
  facet normal 1.000000e+00 1.168656e-16 -3.243671e-32
    outer loop
      vertex   2.500000e+00 1.740000e+01 -1.340000e+01
      vertex   2.500000e+00 2.120000e+01 -1.140000e+01
      vertex   2.500000e+00 1.740000e+01 -6.000000e-01
    endloop
  endfacet
  facet normal 1.000000e+00 1.168656e-16 0.000000e+00
    outer loop
      vertex   2.500000e+00 1.740000e+01 -6.000000e-01
      vertex   2.500000e+00 2.120000e+01 -1.140000e+01
      vertex   2.500000e+00 2.120000e+01 -2.002846e+00
    endloop
  endfacet
  facet normal 1.000000e+00 -2.691450e-16 -1.045617e-15
    outer loop
      vertex   2.500000e+00 1.740000e+01 -6.000000e-01
      vertex   2.500000e+00 2.120000e+01 -2.002846e+00
      vertex   2.500000e+00 2.450000e+01 -2.002846e+00
    endloop
  endfacet
  facet normal 7.071068e-01 6.793669e-17 -7.071068e-01
    outer loop
      vertex   4.000000e-01 3.000000e+00 -1.380000e+01
      vertex   4.000000e-01 2.900000e+01 -1.380000e+01
      vertex   8.000000e-01 3.000000e+00 -1.340000e+01
    endloop
  endfacet
  facet normal 7.071068e-01 0.000000e+00 -7.071068e-01
    outer loop
      vertex   8.000000e-01 3.000000e+00 -1.340000e+01
      vertex   4.000000e-01 2.900000e+01 -1.380000e+01
      vertex   8.000000e-01 2.900000e+01 -1.340000e+01
    endloop
  endfacet
  facet normal 6.044695e-01 3.667262e-01 -7.071977e-01
    outer loop
      vertex   1.308291e-15 3.065813e+01 -1.371627e+01
      vertex   3.418310e-01 3.070459e+01 -1.340000e+01
      vertex   1.110223e-15 3.049666e+01 -1.380000e+01
    endloop
  endfacet
  facet normal 6.273271e-01 3.277068e-01 -7.064482e-01
    outer loop
      vertex   1.110223e-15 3.049666e+01 -1.380000e+01
      vertex   3.418310e-01 3.070459e+01 -1.340000e+01
      vertex   4.795760e-01 3.044091e+01 -1.340000e+01
    endloop
  endfacet
  facet normal 6.276249e-01 3.257825e-01 -7.070734e-01
    outer loop
      vertex   1.110223e-15 3.049666e+01 -1.380000e+01
      vertex   4.795760e-01 3.044091e+01 -1.340000e+01
      vertex   1.202784e-01 3.026494e+01 -1.380000e+01
    endloop
  endfacet
  facet normal 6.535243e-01 2.715948e-01 -7.065000e-01
    outer loop
      vertex   1.202784e-01 3.026494e+01 -1.380000e+01
      vertex   4.795760e-01 3.044091e+01 -1.340000e+01
      vertex   5.937439e-01 3.016619e+01 -1.340000e+01
    endloop
  endfacet
  facet normal 6.536271e-01 2.700041e-01 -7.070144e-01
    outer loop
      vertex   1.202784e-01 3.026494e+01 -1.380000e+01
      vertex   5.937439e-01 3.016619e+01 -1.340000e+01
      vertex   2.199551e-01 3.002365e+01 -1.380000e+01
    endloop
  endfacet
  facet normal 6.747141e-01 2.134117e-01 -7.065524e-01
    outer loop
      vertex   2.199551e-01 3.002365e+01 -1.380000e+01
      vertex   5.937439e-01 3.016619e+01 -1.340000e+01
      vertex   6.834605e-01 2.988255e+01 -1.340000e+01
    endloop
  endfacet
  facet normal 6.746838e-01 2.121715e-01 -7.069548e-01
    outer loop
      vertex   2.199551e-01 3.002365e+01 -1.380000e+01
      vertex   6.834605e-01 2.988255e+01 -1.340000e+01
      vertex   2.982753e-01 2.977460e+01 -1.380000e+01
    endloop
  endfacet
  facet normal 6.907349e-01 1.536033e-01 -7.066055e-01
    outer loop
      vertex   2.982753e-01 2.977460e+01 -1.380000e+01
      vertex   6.834605e-01 2.988255e+01 -1.340000e+01
      vertex   7.480389e-01 2.959214e+01 -1.340000e+01
    endloop
  endfacet
  facet normal 6.906346e-01 1.527224e-01 -7.068944e-01
    outer loop
      vertex   2.982753e-01 2.977460e+01 -1.380000e+01
      vertex   7.480389e-01 2.959214e+01 -1.340000e+01
      vertex   3.546459e-01 2.951968e+01 -1.380000e+01
    endloop
  endfacet
  facet normal 7.014649e-01 9.262792e-02 -7.066591e-01
    outer loop
      vertex   3.546459e-01 2.951968e+01 -1.380000e+01
      vertex   7.480389e-01 2.959214e+01 -1.340000e+01
      vertex   7.869848e-01 2.929721e+01 -1.340000e+01
    endloop
  endfacet
  facet normal 7.013579e-01 9.210650e-02 -7.068334e-01
    outer loop
      vertex   3.546459e-01 2.951968e+01 -1.380000e+01
      vertex   7.869848e-01 2.929721e+01 -1.340000e+01
      vertex   3.886400e-01 2.926083e+01 -1.380000e+01
    endloop
  endfacet
  facet normal 7.068227e-01 3.095260e-02 -7.067133e-01
    outer loop
      vertex   3.886400e-01 2.926083e+01 -1.380000e+01
      vertex   7.869848e-01 2.929721e+01 -1.340000e+01
      vertex   8.000000e-01 2.900000e+01 -1.340000e+01
    endloop
  endfacet
  facet normal 7.067717e-01 3.078255e-02 -7.067717e-01
    outer loop
      vertex   3.886400e-01 2.926083e+01 -1.380000e+01
      vertex   8.000000e-01 2.900000e+01 -1.340000e+01
      vertex   4.000000e-01 2.900000e+01 -1.380000e+01
    endloop
  endfacet
  facet normal 5.960516e-01 3.905015e-01 -7.015918e-01
    outer loop
      vertex   1.308291e-15 3.065813e+01 -1.371627e+01
      vertex   1.116539e-15 3.082693e+01 -1.362232e+01
      vertex   3.418310e-01 3.070459e+01 -1.340000e+01
    endloop
  endfacet
  facet normal 5.960422e-01 3.811383e-01 -7.067300e-01
    outer loop
      vertex   3.418310e-01 3.070459e+01 -1.340000e+01
      vertex   1.116539e-15 3.082693e+01 -1.362232e+01
      vertex   1.815633e-01 3.095523e+01 -1.340000e+01
    endloop
  endfacet
  facet normal 5.694744e-01 4.192760e-01 -7.070407e-01
    outer loop
      vertex   1.815633e-01 3.095523e+01 -1.340000e+01
      vertex   1.116539e-15 3.082693e+01 -1.362232e+01
      vertex   9.152601e-16 3.100412e+01 -1.351724e+01
    endloop
  endfacet
  facet normal 5.679745e-01 4.375843e-01 -6.970832e-01
    outer loop
      vertex   1.815633e-01 3.095523e+01 -1.340000e+01
      vertex   9.152601e-16 3.100412e+01 -1.351724e+01
      vertex   8.572170e-16 3.119089e+01 -1.340000e+01
    endloop
  endfacet
  facet normal 8.419153e-01 5.396093e-01 6.811531e-04
    outer loop
      vertex   -1.542426e-01 3.073732e+01 -1.340000e+01
      vertex   1.640980e-15 3.049666e+01 -1.340000e+01
      vertex   -4.934859e-02 3.057930e+01 -1.786667e+01
    endloop
  endfacet
  facet normal 8.585524e-01 5.127259e-01 -1.149002e-15
    outer loop
      vertex   -4.934859e-02 3.057930e+01 -1.786667e+01
      vertex   1.640980e-15 3.049666e+01 -1.340000e+01
      vertex   1.110223e-15 3.049666e+01 -1.380000e+01
    endloop
  endfacet
  facet normal 8.736222e-01 4.866044e-01 -7.136526e-04
    outer loop
      vertex   -4.934859e-02 3.057930e+01 -1.786667e+01
      vertex   1.110223e-15 3.049666e+01 -1.380000e+01
      vertex   8.548987e-02 3.033722e+01 -1.786667e+01
    endloop
  endfacet
  facet normal 8.875535e-01 4.607042e-01 5.947183e-04
    outer loop
      vertex   8.548987e-02 3.033722e+01 -1.786667e+01
      vertex   1.110223e-15 3.049666e+01 -1.380000e+01
      vertex   1.202784e-01 3.026494e+01 -1.380000e+01
    endloop
  endfacet
  facet normal 9.147937e-01 4.039209e-01 -6.474250e-04
    outer loop
      vertex   8.548987e-02 3.033722e+01 -1.786667e+01
      vertex   1.202784e-01 3.026494e+01 -1.380000e+01
      vertex   1.974167e-01 3.008372e+01 -1.786667e+01
    endloop
  endfacet
  facet normal 9.242475e-01 3.817935e-01 5.179456e-04
    outer loop
      vertex   1.974167e-01 3.008372e+01 -1.786667e+01
      vertex   1.202784e-01 3.026494e+01 -1.380000e+01
      vertex   2.199551e-01 3.002365e+01 -1.380000e+01
    endloop
  endfacet
  facet normal 9.481605e-01 3.177914e-01 -5.601076e-04
    outer loop
      vertex   1.974167e-01 3.008372e+01 -1.786667e+01
      vertex   2.199551e-01 3.002365e+01 -1.380000e+01
      vertex   2.854769e-01 2.982099e+01 -1.786667e+01
    endloop
  endfacet
  facet normal 9.539418e-01 2.999914e-01 4.200843e-04
    outer loop
      vertex   2.854769e-01 2.982099e+01 -1.786667e+01
      vertex   2.199551e-01 3.002365e+01 -1.380000e+01
      vertex   2.982753e-01 2.977460e+01 -1.380000e+01
    endloop
  endfacet
  facet normal 9.734380e-01 2.289505e-01 -4.517031e-04
    outer loop
      vertex   2.854769e-01 2.982099e+01 -1.786667e+01
      vertex   2.982753e-01 2.977460e+01 -1.380000e+01
      vertex   3.489193e-01 2.955125e+01 -1.786667e+01
    endloop
  endfacet
  facet normal 9.764116e-01 2.159173e-01 3.011372e-04
    outer loop
      vertex   3.489193e-01 2.955125e+01 -1.786667e+01
      vertex   2.982753e-01 2.977460e+01 -1.380000e+01
      vertex   3.546459e-01 2.951968e+01 -1.380000e+01
    endloop
  endfacet
  facet normal 9.904104e-01 1.381563e-01 -3.222144e-04
    outer loop
      vertex   3.489193e-01 2.955125e+01 -1.786667e+01
      vertex   3.546459e-01 2.951968e+01 -1.380000e+01
      vertex   3.872025e-01 2.927681e+01 -1.786667e+01
    endloop
  endfacet
  facet normal 9.914867e-01 1.302079e-01 1.611078e-04
    outer loop
      vertex   3.872025e-01 2.927681e+01 -1.786667e+01
      vertex   3.546459e-01 2.951968e+01 -1.380000e+01
      vertex   3.886400e-01 2.926083e+01 -1.380000e+01
    endloop
  endfacet
  facet normal 9.986942e-01 5.108740e-02 -1.522939e-04
    outer loop
      vertex   3.872025e-01 2.927681e+01 -1.786667e+01
      vertex   3.886400e-01 2.926083e+01 -1.380000e+01
      vertex   4.000000e-01 2.900000e+01 -2.680000e+01
    endloop
  endfacet
  facet normal 9.990529e-01 4.351249e-02 -0.000000e+00
    outer loop
      vertex   4.000000e-01 2.900000e+01 -2.680000e+01
      vertex   3.886400e-01 2.926083e+01 -1.380000e+01
      vertex   4.000000e-01 2.900000e+01 -1.380000e+01
    endloop
  endfacet
  facet normal 9.989330e-01 4.618346e-02 0.000000e+00
    outer loop
      vertex   3.872025e-01 2.927681e+01 -1.786667e+01
      vertex   4.000000e-01 2.900000e+01 -2.680000e+01
      vertex   3.872025e-01 2.927681e+01 -2.233333e+01
    endloop
  endfacet
  facet normal 9.989330e-01 4.618346e-02 0.000000e+00
    outer loop
      vertex   3.872025e-01 2.927681e+01 -2.233333e+01
      vertex   4.000000e-01 2.900000e+01 -2.680000e+01
      vertex   3.872025e-01 2.927681e+01 -2.680000e+01
    endloop
  endfacet
  facet normal 9.904104e-01 1.381564e-01 0.000000e+00
    outer loop
      vertex   3.872025e-01 2.927681e+01 -2.233333e+01
      vertex   3.872025e-01 2.927681e+01 -2.680000e+01
      vertex   3.489193e-01 2.955125e+01 -2.233333e+01
    endloop
  endfacet
  facet normal 9.904104e-01 1.381564e-01 0.000000e+00
    outer loop
      vertex   3.489193e-01 2.955125e+01 -2.233333e+01
      vertex   3.872025e-01 2.927681e+01 -2.680000e+01
      vertex   3.489193e-01 2.955125e+01 -2.680000e+01
    endloop
  endfacet
  facet normal 9.734381e-01 2.289505e-01 0.000000e+00
    outer loop
      vertex   3.489193e-01 2.955125e+01 -2.233333e+01
      vertex   3.489193e-01 2.955125e+01 -2.680000e+01
      vertex   2.854769e-01 2.982099e+01 -2.233333e+01
    endloop
  endfacet
  facet normal 9.734381e-01 2.289505e-01 0.000000e+00
    outer loop
      vertex   2.854769e-01 2.982099e+01 -2.233333e+01
      vertex   3.489193e-01 2.955125e+01 -2.680000e+01
      vertex   2.854769e-01 2.982099e+01 -2.680000e+01
    endloop
  endfacet
  facet normal 9.481606e-01 3.177914e-01 0.000000e+00
    outer loop
      vertex   2.854769e-01 2.982099e+01 -2.233333e+01
      vertex   2.854769e-01 2.982099e+01 -2.680000e+01
      vertex   1.974167e-01 3.008372e+01 -2.233333e+01
    endloop
  endfacet
  facet normal 9.481606e-01 3.177914e-01 0.000000e+00
    outer loop
      vertex   1.974167e-01 3.008372e+01 -2.233333e+01
      vertex   2.854769e-01 2.982099e+01 -2.680000e+01
      vertex   1.974167e-01 3.008372e+01 -2.680000e+01
    endloop
  endfacet
  facet normal 9.147939e-01 4.039210e-01 0.000000e+00
    outer loop
      vertex   1.974167e-01 3.008372e+01 -2.233333e+01
      vertex   1.974167e-01 3.008372e+01 -2.680000e+01
      vertex   8.548987e-02 3.033722e+01 -2.233333e+01
    endloop
  endfacet
  facet normal 9.147939e-01 4.039210e-01 1.136894e-16
    outer loop
      vertex   8.548987e-02 3.033722e+01 -2.233333e+01
      vertex   1.974167e-01 3.008372e+01 -2.680000e+01
      vertex   8.548987e-02 3.033722e+01 -2.680000e+01
    endloop
  endfacet
  facet normal 8.736224e-01 4.866045e-01 1.085727e-16
    outer loop
      vertex   8.548987e-02 3.033722e+01 -2.233333e+01
      vertex   8.548987e-02 3.033722e+01 -2.680000e+01
      vertex   -4.934859e-02 3.057930e+01 -2.233333e+01
    endloop
  endfacet
  facet normal 8.736224e-01 4.866045e-01 0.000000e+00
    outer loop
      vertex   -4.934859e-02 3.057930e+01 -2.233333e+01
      vertex   8.548987e-02 3.033722e+01 -2.680000e+01
      vertex   -4.934859e-02 3.057930e+01 -2.680000e+01
    endloop
  endfacet
  facet normal 8.249975e-01 5.651364e-01 0.000000e+00
    outer loop
      vertex   -4.934859e-02 3.057930e+01 -2.233333e+01
      vertex   -4.934859e-02 3.057930e+01 -2.680000e+01
      vertex   -2.059483e-01 3.080790e+01 -2.233333e+01
    endloop
  endfacet
  facet normal 8.249975e-01 5.651364e-01 1.025296e-16
    outer loop
      vertex   -2.059483e-01 3.080790e+01 -2.233333e+01
      vertex   -4.934859e-02 3.057930e+01 -2.680000e+01
      vertex   -2.059483e-01 3.080790e+01 -2.680000e+01
    endloop
  endfacet
  facet normal 7.693340e-01 6.388468e-01 9.561182e-17
    outer loop
      vertex   -2.059483e-01 3.080790e+01 -2.233333e+01
      vertex   -2.059483e-01 3.080790e+01 -2.680000e+01
      vertex   -3.829732e-01 3.102109e+01 -2.233333e+01
    endloop
  endfacet
  facet normal 7.693340e-01 6.388468e-01 4.780591e-17
    outer loop
      vertex   -3.829732e-01 3.102109e+01 -2.233333e+01
      vertex   -2.059483e-01 3.080790e+01 -2.680000e+01
      vertex   -3.829732e-01 3.102109e+01 -2.680000e+01
    endloop
  endfacet
  facet normal 7.071068e-01 7.071068e-01 4.393915e-17
    outer loop
      vertex   -3.829732e-01 3.102109e+01 -2.233333e+01
      vertex   -3.829732e-01 3.102109e+01 -2.680000e+01
      vertex   -5.789131e-01 3.121703e+01 -2.233333e+01
    endloop
  endfacet
  facet normal 7.071068e-01 7.071068e-01 8.787831e-17
    outer loop
      vertex   -5.789131e-01 3.121703e+01 -2.233333e+01
      vertex   -3.829732e-01 3.102109e+01 -2.680000e+01
      vertex   -5.789131e-01 3.121703e+01 -2.680000e+01
    endloop
  endfacet
  facet normal 6.388468e-01 7.693340e-01 7.939505e-17
    outer loop
      vertex   -5.789131e-01 3.121703e+01 -2.233333e+01
      vertex   -5.789131e-01 3.121703e+01 -2.680000e+01
      vertex   -7.920961e-01 3.139405e+01 -2.233333e+01
    endloop
  endfacet
  facet normal 6.388468e-01 7.693340e-01 0.000000e+00
    outer loop
      vertex   -7.920961e-01 3.139405e+01 -2.233333e+01
      vertex   -5.789131e-01 3.121703e+01 -2.680000e+01
      vertex   -7.920961e-01 3.139405e+01 -2.680000e+01
    endloop
  endfacet
  facet normal 5.651364e-01 8.249975e-01 0.000000e+00
    outer loop
      vertex   -7.920961e-01 3.139405e+01 -2.233333e+01
      vertex   -7.920961e-01 3.139405e+01 -2.680000e+01
      vertex   -1.020704e+00 3.155065e+01 -2.233333e+01
    endloop
  endfacet
  facet normal 5.651364e-01 8.249975e-01 -7.966583e-16
    outer loop
      vertex   -1.020704e+00 3.155065e+01 -2.233333e+01
      vertex   -7.920961e-01 3.139405e+01 -2.680000e+01
      vertex   -1.020704e+00 3.155065e+01 -2.680000e+01
    endloop
  endfacet
  facet normal 4.866045e-01 8.736224e-01 -8.158141e-16
    outer loop
      vertex   -1.020704e+00 3.155065e+01 -2.233333e+01
      vertex   -1.020704e+00 3.155065e+01 -2.680000e+01
      vertex   -1.262785e+00 3.168549e+01 -2.233333e+01
    endloop
  endfacet
  facet normal 4.866045e-01 8.736224e-01 -4.837966e-17
    outer loop
      vertex   -1.262785e+00 3.168549e+01 -2.233333e+01
      vertex   -1.020704e+00 3.155065e+01 -2.680000e+01
      vertex   -1.262785e+00 3.168549e+01 -2.680000e+01
    endloop
  endfacet
  facet normal 4.039210e-01 9.147939e-01 -4.015902e-17
    outer loop
      vertex   -1.262785e+00 3.168549e+01 -2.233333e+01
      vertex   -1.262785e+00 3.168549e+01 -2.680000e+01
      vertex   -1.516275e+00 3.179742e+01 -2.233333e+01
    endloop
  endfacet
  facet normal 4.039210e-01 9.147939e-01 -6.023853e-17
    outer loop
      vertex   -1.516275e+00 3.179742e+01 -2.233333e+01
      vertex   -1.262785e+00 3.168549e+01 -2.680000e+01
      vertex   -1.516275e+00 3.179742e+01 -2.680000e+01
    endloop
  endfacet
  facet normal 3.177914e-01 9.481606e-01 -4.739364e-17
    outer loop
      vertex   -1.516275e+00 3.179742e+01 -2.233333e+01
      vertex   -1.516275e+00 3.179742e+01 -2.680000e+01
      vertex   -1.779011e+00 3.188548e+01 -2.233333e+01
    endloop
  endfacet
  facet normal 3.177914e-01 9.481606e-01 0.000000e+00
    outer loop
      vertex   -1.779011e+00 3.188548e+01 -2.233333e+01
      vertex   -1.516275e+00 3.179742e+01 -2.680000e+01
      vertex   -1.779011e+00 3.188548e+01 -2.680000e+01
    endloop
  endfacet
  facet normal 2.289505e-01 9.734381e-01 0.000000e+00
    outer loop
      vertex   -1.779011e+00 3.188548e+01 -2.233333e+01
      vertex   -1.779011e+00 3.188548e+01 -2.680000e+01
      vertex   -2.048751e+00 3.194892e+01 -2.233333e+01
    endloop
  endfacet
  facet normal 2.289505e-01 9.734381e-01 0.000000e+00
    outer loop
      vertex   -2.048751e+00 3.194892e+01 -2.233333e+01
      vertex   -1.779011e+00 3.188548e+01 -2.680000e+01
      vertex   -2.048751e+00 3.194892e+01 -2.680000e+01
    endloop
  endfacet
  facet normal 1.381564e-01 9.904104e-01 0.000000e+00
    outer loop
      vertex   -2.048751e+00 3.194892e+01 -2.233333e+01
      vertex   -2.048751e+00 3.194892e+01 -2.680000e+01
      vertex   -2.323195e+00 3.198720e+01 -2.233333e+01
    endloop
  endfacet
  facet normal 1.381564e-01 9.904104e-01 -7.877563e-16
    outer loop
      vertex   -2.323195e+00 3.198720e+01 -2.233333e+01
      vertex   -2.048751e+00 3.194892e+01 -2.680000e+01
      vertex   -2.323195e+00 3.198720e+01 -2.680000e+01
    endloop
  endfacet
  facet normal 4.618346e-02 9.989330e-01 -7.945350e-16
    outer loop
      vertex   -2.323195e+00 3.198720e+01 -2.233333e+01
      vertex   -2.323195e+00 3.198720e+01 -2.680000e+01
      vertex   -2.600000e+00 3.200000e+01 -2.680000e+01
    endloop
  endfacet
  facet normal 4.618346e-02 9.989330e-01 -0.000000e+00
    outer loop
      vertex   -2.600000e+00 3.200000e+01 -2.680000e+01
      vertex   -2.600000e+00 3.200000e+01 -1.340000e+01
      vertex   -2.323195e+00 3.198720e+01 -2.233333e+01
    endloop
  endfacet
  facet normal 4.618346e-02 9.989330e-01 -0.000000e+00
    outer loop
      vertex   -2.323195e+00 3.198720e+01 -2.233333e+01
      vertex   -2.600000e+00 3.200000e+01 -1.340000e+01
      vertex   -2.323195e+00 3.198720e+01 -1.786667e+01
    endloop
  endfacet
  facet normal 1.381564e-01 9.904104e-01 -0.000000e+00
    outer loop
      vertex   -2.323195e+00 3.198720e+01 -2.233333e+01
      vertex   -2.323195e+00 3.198720e+01 -1.786667e+01
      vertex   -2.048751e+00 3.194892e+01 -2.233333e+01
    endloop
  endfacet
  facet normal 1.381564e-01 9.904104e-01 -0.000000e+00
    outer loop
      vertex   -2.048751e+00 3.194892e+01 -2.233333e+01
      vertex   -2.323195e+00 3.198720e+01 -1.786667e+01
      vertex   -2.048751e+00 3.194892e+01 -1.786667e+01
    endloop
  endfacet
  facet normal 2.289505e-01 9.734381e-01 -0.000000e+00
    outer loop
      vertex   -2.048751e+00 3.194892e+01 -2.233333e+01
      vertex   -2.048751e+00 3.194892e+01 -1.786667e+01
      vertex   -1.779011e+00 3.188548e+01 -2.233333e+01
    endloop
  endfacet
  facet normal 2.289505e-01 9.734381e-01 -0.000000e+00
    outer loop
      vertex   -1.779011e+00 3.188548e+01 -2.233333e+01
      vertex   -2.048751e+00 3.194892e+01 -1.786667e+01
      vertex   -1.779011e+00 3.188548e+01 -1.786667e+01
    endloop
  endfacet
  facet normal 3.177914e-01 9.481606e-01 -0.000000e+00
    outer loop
      vertex   -1.779011e+00 3.188548e+01 -2.233333e+01
      vertex   -1.779011e+00 3.188548e+01 -1.786667e+01
      vertex   -1.516275e+00 3.179742e+01 -2.233333e+01
    endloop
  endfacet
  facet normal 3.177914e-01 9.481606e-01 -7.541515e-16
    outer loop
      vertex   -1.516275e+00 3.179742e+01 -2.233333e+01
      vertex   -1.779011e+00 3.188548e+01 -1.786667e+01
      vertex   -1.516275e+00 3.179742e+01 -1.786667e+01
    endloop
  endfacet
  facet normal 4.039210e-01 9.147939e-01 -7.276121e-16
    outer loop
      vertex   -1.516275e+00 3.179742e+01 -2.233333e+01
      vertex   -1.516275e+00 3.179742e+01 -1.786667e+01
      vertex   -1.262785e+00 3.168549e+01 -2.233333e+01
    endloop
  endfacet
  facet normal 4.039210e-01 9.147939e-01 4.015902e-17
    outer loop
      vertex   -1.262785e+00 3.168549e+01 -2.233333e+01
      vertex   -1.516275e+00 3.179742e+01 -1.786667e+01
      vertex   -1.262785e+00 3.168549e+01 -1.786667e+01
    endloop
  endfacet
  facet normal 4.866045e-01 8.736224e-01 4.837966e-17
    outer loop
      vertex   -1.262785e+00 3.168549e+01 -2.233333e+01
      vertex   -1.262785e+00 3.168549e+01 -1.786667e+01
      vertex   -1.020704e+00 3.155065e+01 -2.233333e+01
    endloop
  endfacet
  facet normal 4.866045e-01 8.736224e-01 7.256948e-17
    outer loop
      vertex   -1.020704e+00 3.155065e+01 -2.233333e+01
      vertex   -1.262785e+00 3.168549e+01 -1.786667e+01
      vertex   -1.020704e+00 3.155065e+01 -1.786667e+01
    endloop
  endfacet
  facet normal 5.651364e-01 8.249975e-01 8.428130e-17
    outer loop
      vertex   -1.020704e+00 3.155065e+01 -2.233333e+01
      vertex   -1.020704e+00 3.155065e+01 -1.786667e+01
      vertex   -7.920961e-01 3.139405e+01 -2.233333e+01
    endloop
  endfacet
  facet normal 5.651364e-01 8.249975e-01 -0.000000e+00
    outer loop
      vertex   -7.920961e-01 3.139405e+01 -2.233333e+01
      vertex   -1.020704e+00 3.155065e+01 -1.786667e+01
      vertex   -7.920961e-01 3.139405e+01 -1.786667e+01
    endloop
  endfacet
  facet normal 6.388468e-01 7.693340e-01 -0.000000e+00
    outer loop
      vertex   -7.920961e-01 3.139405e+01 -2.233333e+01
      vertex   -7.920961e-01 3.139405e+01 -1.786667e+01
      vertex   -5.789131e-01 3.121703e+01 -2.233333e+01
    endloop
  endfacet
  facet normal 6.388468e-01 7.693340e-01 -3.175802e-17
    outer loop
      vertex   -5.789131e-01 3.121703e+01 -2.233333e+01
      vertex   -7.920961e-01 3.139405e+01 -1.786667e+01
      vertex   -5.789131e-01 3.121703e+01 -1.786667e+01
    endloop
  endfacet
  facet normal 7.071068e-01 7.071068e-01 -3.515132e-17
    outer loop
      vertex   -5.789131e-01 3.121703e+01 -2.233333e+01
      vertex   -5.789131e-01 3.121703e+01 -1.786667e+01
      vertex   -3.829732e-01 3.102109e+01 -2.233333e+01
    endloop
  endfacet
  facet normal 7.071068e-01 7.071068e-01 -0.000000e+00
    outer loop
      vertex   -3.829732e-01 3.102109e+01 -2.233333e+01
      vertex   -5.789131e-01 3.121703e+01 -1.786667e+01
      vertex   -3.829732e-01 3.102109e+01 -1.786667e+01
    endloop
  endfacet
  facet normal 7.693340e-01 6.388468e-01 -0.000000e+00
    outer loop
      vertex   -3.829732e-01 3.102109e+01 -2.233333e+01
      vertex   -3.829732e-01 3.102109e+01 -1.786667e+01
      vertex   -2.059483e-01 3.080790e+01 -2.233333e+01
    endloop
  endfacet
  facet normal 7.693340e-01 6.388468e-01 -4.780591e-17
    outer loop
      vertex   -2.059483e-01 3.080790e+01 -2.233333e+01
      vertex   -3.829732e-01 3.102109e+01 -1.786667e+01
      vertex   -2.059483e-01 3.080790e+01 -1.786667e+01
    endloop
  endfacet
  facet normal 8.249975e-01 5.651364e-01 -5.126481e-17
    outer loop
      vertex   -2.059483e-01 3.080790e+01 -2.233333e+01
      vertex   -2.059483e-01 3.080790e+01 -1.786667e+01
      vertex   -4.934859e-02 3.057930e+01 -2.233333e+01
    endloop
  endfacet
  facet normal 8.249975e-01 5.651364e-01 -0.000000e+00
    outer loop
      vertex   -4.934859e-02 3.057930e+01 -2.233333e+01
      vertex   -2.059483e-01 3.080790e+01 -1.786667e+01
      vertex   -4.934859e-02 3.057930e+01 -1.786667e+01
    endloop
  endfacet
  facet normal 8.736224e-01 4.866045e-01 -0.000000e+00
    outer loop
      vertex   -4.934859e-02 3.057930e+01 -2.233333e+01
      vertex   -4.934859e-02 3.057930e+01 -1.786667e+01
      vertex   8.548987e-02 3.033722e+01 -2.233333e+01
    endloop
  endfacet
  facet normal 8.736224e-01 4.866045e-01 -0.000000e+00
    outer loop
      vertex   8.548987e-02 3.033722e+01 -2.233333e+01
      vertex   -4.934859e-02 3.057930e+01 -1.786667e+01
      vertex   8.548987e-02 3.033722e+01 -1.786667e+01
    endloop
  endfacet
  facet normal 9.147939e-01 4.039210e-01 -0.000000e+00
    outer loop
      vertex   8.548987e-02 3.033722e+01 -2.233333e+01
      vertex   8.548987e-02 3.033722e+01 -1.786667e+01
      vertex   1.974167e-01 3.008372e+01 -2.233333e+01
    endloop
  endfacet
  facet normal 9.147939e-01 4.039210e-01 -0.000000e+00
    outer loop
      vertex   1.974167e-01 3.008372e+01 -2.233333e+01
      vertex   8.548987e-02 3.033722e+01 -1.786667e+01
      vertex   1.974167e-01 3.008372e+01 -1.786667e+01
    endloop
  endfacet
  facet normal 9.481606e-01 3.177914e-01 -0.000000e+00
    outer loop
      vertex   1.974167e-01 3.008372e+01 -2.233333e+01
      vertex   1.974167e-01 3.008372e+01 -1.786667e+01
      vertex   2.854769e-01 2.982099e+01 -2.233333e+01
    endloop
  endfacet
  facet normal 9.481606e-01 3.177914e-01 2.527661e-16
    outer loop
      vertex   2.854769e-01 2.982099e+01 -2.233333e+01
      vertex   1.974167e-01 3.008372e+01 -1.786667e+01
      vertex   2.854769e-01 2.982099e+01 -1.786667e+01
    endloop
  endfacet
  facet normal 9.734381e-01 2.289505e-01 1.821035e-16
    outer loop
      vertex   2.854769e-01 2.982099e+01 -2.233333e+01
      vertex   2.854769e-01 2.982099e+01 -1.786667e+01
      vertex   3.489193e-01 2.955125e+01 -2.233333e+01
    endloop
  endfacet
  facet normal 9.734381e-01 2.289505e-01 -0.000000e+00
    outer loop
      vertex   3.489193e-01 2.955125e+01 -2.233333e+01
      vertex   2.854769e-01 2.982099e+01 -1.786667e+01
      vertex   3.489193e-01 2.955125e+01 -1.786667e+01
    endloop
  endfacet
  facet normal 9.904104e-01 1.381564e-01 -0.000000e+00
    outer loop
      vertex   3.489193e-01 2.955125e+01 -2.233333e+01
      vertex   3.489193e-01 2.955125e+01 -1.786667e+01
      vertex   3.872025e-01 2.927681e+01 -2.233333e+01
    endloop
  endfacet
  facet normal 9.904104e-01 1.381564e-01 -0.000000e+00
    outer loop
      vertex   3.872025e-01 2.927681e+01 -2.233333e+01
      vertex   3.489193e-01 2.955125e+01 -1.786667e+01
      vertex   3.872025e-01 2.927681e+01 -1.786667e+01
    endloop
  endfacet
  facet normal 4.764021e-02 9.988646e-01 9.047284e-05
    outer loop
      vertex   -2.600000e+00 3.200000e+01 -1.340000e+01
      vertex   -2.314483e+00 3.198638e+01 -1.340000e+01
      vertex   -2.323195e+00 3.198720e+01 -1.786667e+01
    endloop
  endfacet
  facet normal 1.381564e-01 9.904104e-01 -8.761889e-05
    outer loop
      vertex   -2.323195e+00 3.198720e+01 -1.786667e+01
      vertex   -2.314483e+00 3.198638e+01 -1.340000e+01
      vertex   -2.048751e+00 3.194892e+01 -1.786667e+01
    endloop
  endfacet
  facet normal 1.424881e-01 9.897965e-01 1.752376e-04
    outer loop
      vertex   -2.314483e+00 3.198638e+01 -1.340000e+01
      vertex   -2.031559e+00 3.194565e+01 -1.340000e+01
      vertex   -2.048751e+00 3.194892e+01 -1.786667e+01
    endloop
  endfacet
  facet normal 2.289505e-01 9.734380e-01 -1.695293e-04
    outer loop
      vertex   -2.048751e+00 3.194892e+01 -1.786667e+01
      vertex   -2.031559e+00 3.194565e+01 -1.340000e+01
      vertex   -1.779011e+00 3.188548e+01 -1.786667e+01
    endloop
  endfacet
  facet normal 2.360425e-01 9.717427e-01 2.542935e-04
    outer loop
      vertex   -2.031559e+00 3.194565e+01 -1.340000e+01
      vertex   -1.753794e+00 3.187818e+01 -1.340000e+01
      vertex   -1.779011e+00 3.188548e+01 -1.786667e+01
    endloop
  endfacet
  facet normal 3.177914e-01 9.481606e-01 -2.457306e-04
    outer loop
      vertex   -1.779011e+00 3.188548e+01 -1.786667e+01
      vertex   -1.753794e+00 3.187818e+01 -1.340000e+01
      vertex   -1.516275e+00 3.179742e+01 -1.786667e+01
    endloop
  endfacet
  facet normal 3.274540e-01 9.448671e-01 3.276400e-04
    outer loop
      vertex   -1.753794e+00 3.187818e+01 -1.340000e+01
      vertex   -1.483712e+00 3.178458e+01 -1.340000e+01
      vertex   -1.516275e+00 3.179742e+01 -1.786667e+01
    endloop
  endfacet
  facet normal 4.039210e-01 9.147938e-01 -3.162220e-04
    outer loop
      vertex   -1.516275e+00 3.179742e+01 -1.786667e+01
      vertex   -1.483712e+00 3.178458e+01 -1.340000e+01
      vertex   -1.262785e+00 3.168549e+01 -1.786667e+01
    endloop
  endfacet
  facet normal 4.158927e-01 9.094136e-01 3.952763e-04
    outer loop
      vertex   -1.483712e+00 3.178458e+01 -1.340000e+01
      vertex   -1.223764e+00 3.166570e+01 -1.340000e+01
      vertex   -1.262785e+00 3.168549e+01 -1.786667e+01
    endloop
  endfacet
  facet normal 4.866044e-01 8.736223e-01 -3.810031e-04
    outer loop
      vertex   -1.262785e+00 3.168549e+01 -1.786667e+01
      vertex   -1.223764e+00 3.166570e+01 -1.340000e+01
      vertex   -1.020704e+00 3.155065e+01 -1.786667e+01
    endloop
  endfacet
  facet normal 5.005558e-01 8.657041e-01 4.572019e-04
    outer loop
      vertex   -1.223764e+00 3.166570e+01 -1.340000e+01
      vertex   -9.763105e-01 3.152262e+01 -1.340000e+01
      vertex   -1.020704e+00 3.155065e+01 -1.786667e+01
    endloop
  endfacet
  facet normal 5.651364e-01 8.249974e-01 -4.400732e-04
    outer loop
      vertex   -1.020704e+00 3.155065e+01 -1.786667e+01
      vertex   -9.763105e-01 3.152262e+01 -1.340000e+01
      vertex   -7.920961e-01 3.139405e+01 -1.786667e+01
    endloop
  endfacet
  facet normal 5.806747e-01 8.141355e-01 5.134163e-04
    outer loop
      vertex   -9.763105e-01 3.152262e+01 -1.340000e+01
      vertex   -7.435969e-01 3.135664e+01 -1.340000e+01
      vertex   -7.920961e-01 3.139405e+01 -1.786667e+01
    endloop
  endfacet
  facet normal 6.388467e-01 7.693339e-01 -4.934318e-04
    outer loop
      vertex   -7.920961e-01 3.139405e+01 -1.786667e+01
      vertex   -7.435969e-01 3.135664e+01 -1.340000e+01
      vertex   -5.789131e-01 3.121703e+01 -1.786667e+01
    endloop
  endfacet
  facet normal 6.555220e-01 7.551759e-01 5.639191e-04
    outer loop
      vertex   -7.435969e-01 3.135664e+01 -1.340000e+01
      vertex   -5.277364e-01 3.116927e+01 -1.340000e+01
      vertex   -5.789131e-01 3.121703e+01 -1.786667e+01
    endloop
  endfacet
  facet normal 7.071067e-01 7.071067e-01 -5.410785e-04
    outer loop
      vertex   -5.789131e-01 3.121703e+01 -1.786667e+01
      vertex   -5.277364e-01 3.116927e+01 -1.340000e+01
      vertex   -3.829732e-01 3.102109e+01 -1.786667e+01
    endloop
  endfacet
  facet normal 7.244182e-01 6.893605e-01 6.087097e-04
    outer loop
      vertex   -5.277364e-01 3.116927e+01 -1.340000e+01
      vertex   -3.306887e-01 3.096220e+01 -1.340000e+01
      vertex   -3.829732e-01 3.102109e+01 -1.786667e+01
    endloop
  endfacet
  facet normal 7.693338e-01 6.388467e-01 -5.830130e-04
    outer loop
      vertex   -3.829732e-01 3.102109e+01 -1.786667e+01
      vertex   -3.306887e-01 3.096220e+01 -1.340000e+01
      vertex   -2.059483e-01 3.080790e+01 -1.786667e+01
    endloop
  endfacet
  facet normal 7.867379e-01 6.172868e-01 6.477878e-04
    outer loop
      vertex   -3.306887e-01 3.096220e+01 -1.340000e+01
      vertex   -1.542426e-01 3.073732e+01 -1.340000e+01
      vertex   -2.059483e-01 3.080790e+01 -1.786667e+01
    endloop
  endfacet
  facet normal 8.249973e-01 5.651363e-01 -6.192347e-04
    outer loop
      vertex   -2.059483e-01 3.080790e+01 -1.786667e+01
      vertex   -1.542426e-01 3.073732e+01 -1.340000e+01
      vertex   -4.934859e-02 3.057930e+01 -1.786667e+01
    endloop
  endfacet
  facet normal 1.000000e+00 9.607699e-17 0.000000e+00
    outer loop
      vertex   4.000000e-01 2.900000e+01 -1.380000e+01
      vertex   4.000000e-01 3.000000e+00 -1.380000e+01
      vertex   4.000000e-01 2.900000e+01 -2.680000e+01
    endloop
  endfacet
  facet normal 1.000000e+00 8.540177e-17 -2.135044e-17
    outer loop
      vertex   4.000000e-01 2.900000e+01 -2.680000e+01
      vertex   4.000000e-01 3.000000e+00 -1.380000e+01
      vertex   4.000000e-01 3.000000e+00 -2.680000e+01
    endloop
  endfacet
  facet normal 0.000000e+00 0.000000e+00 1.000000e+00
    outer loop
      vertex   1.640980e-15 3.049666e+01 -1.340000e+01
      vertex   -1.542426e-01 3.073732e+01 -1.340000e+01
      vertex   1.656866e-14 1.740000e+01 -1.340000e+01
    endloop
  endfacet
  facet normal 0.000000e+00 0.000000e+00 1.000000e+00
    outer loop
      vertex   1.656866e-14 1.740000e+01 -1.340000e+01
      vertex   -1.542426e-01 3.073732e+01 -1.340000e+01
      vertex   -3.306887e-01 3.096220e+01 -1.340000e+01
    endloop
  endfacet
  facet normal 0.000000e+00 0.000000e+00 1.000000e+00
    outer loop
      vertex   1.656866e-14 1.740000e+01 -1.340000e+01
      vertex   -3.306887e-01 3.096220e+01 -1.340000e+01
      vertex   -5.277364e-01 3.116927e+01 -1.340000e+01
    endloop
  endfacet
  facet normal 0.000000e+00 0.000000e+00 1.000000e+00
    outer loop
      vertex   -5.277364e-01 3.116927e+01 -1.340000e+01
      vertex   -7.435969e-01 3.135664e+01 -1.340000e+01
      vertex   1.656866e-14 1.740000e+01 -1.340000e+01
    endloop
  endfacet
  facet normal 0.000000e+00 0.000000e+00 1.000000e+00
    outer loop
      vertex   1.656866e-14 1.740000e+01 -1.340000e+01
      vertex   -7.435969e-01 3.135664e+01 -1.340000e+01
      vertex   -9.763105e-01 3.152262e+01 -1.340000e+01
    endloop
  endfacet
  facet normal 0.000000e+00 0.000000e+00 1.000000e+00
    outer loop
      vertex   1.656866e-14 1.740000e+01 -1.340000e+01
      vertex   -9.763105e-01 3.152262e+01 -1.340000e+01
      vertex   -1.223764e+00 3.166570e+01 -1.340000e+01
    endloop
  endfacet
  facet normal 0.000000e+00 0.000000e+00 1.000000e+00
    outer loop
      vertex   1.656866e-14 1.740000e+01 -1.340000e+01
      vertex   -1.223764e+00 3.166570e+01 -1.340000e+01
      vertex   -3.000000e+00 1.740000e+01 -1.340000e+01
    endloop
  endfacet
  facet normal 0.000000e+00 0.000000e+00 1.000000e+00
    outer loop
      vertex   -3.000000e+00 1.740000e+01 -1.340000e+01
      vertex   -1.223764e+00 3.166570e+01 -1.340000e+01
      vertex   -1.483712e+00 3.178458e+01 -1.340000e+01
    endloop
  endfacet
  facet normal 0.000000e+00 0.000000e+00 1.000000e+00
    outer loop
      vertex   -3.000000e+00 1.740000e+01 -1.340000e+01
      vertex   -1.483712e+00 3.178458e+01 -1.340000e+01
      vertex   -1.753794e+00 3.187818e+01 -1.340000e+01
    endloop
  endfacet
  facet normal 0.000000e+00 0.000000e+00 1.000000e+00
    outer loop
      vertex   -1.753794e+00 3.187818e+01 -1.340000e+01
      vertex   -2.031559e+00 3.194565e+01 -1.340000e+01
      vertex   -3.000000e+00 1.740000e+01 -1.340000e+01
    endloop
  endfacet
  facet normal 0.000000e+00 0.000000e+00 1.000000e+00
    outer loop
      vertex   -3.000000e+00 1.740000e+01 -1.340000e+01
      vertex   -2.031559e+00 3.194565e+01 -1.340000e+01
      vertex   -2.314483e+00 3.198638e+01 -1.340000e+01
    endloop
  endfacet
  facet normal 0.000000e+00 0.000000e+00 1.000000e+00
    outer loop
      vertex   -3.000000e+00 1.740000e+01 -1.340000e+01
      vertex   -2.314483e+00 3.198638e+01 -1.340000e+01
      vertex   -2.600000e+00 3.200000e+01 -1.340000e+01
    endloop
  endfacet
  facet normal 0.000000e+00 0.000000e+00 1.000000e+00
    outer loop
      vertex   -2.600000e+00 3.200000e+01 -1.340000e+01
      vertex   -3.000000e+00 3.200000e+01 -1.340000e+01
      vertex   -3.000000e+00 1.740000e+01 -1.340000e+01
    endloop
  endfacet
  facet normal 0.000000e+00 -0.000000e+00 1.000000e+00
    outer loop
      vertex   -3.000000e+00 5.000000e+00 -1.340000e+01
      vertex   0.000000e+00 5.000000e+00 -1.340000e+01
      vertex   -3.000000e+00 8.800000e+00 -1.340000e+01
    endloop
  endfacet
  facet normal -0.000000e+00 0.000000e+00 1.000000e+00
    outer loop
      vertex   -3.000000e+00 8.800000e+00 -1.340000e+01
      vertex   0.000000e+00 5.000000e+00 -1.340000e+01
      vertex   0.000000e+00 8.800000e+00 -1.340000e+01
    endloop
  endfacet
  facet normal 0.000000e+00 1.000000e+00 0.000000e+00
    outer loop
      vertex   -2.600000e+00 3.200000e+01 -1.340000e+01
      vertex   -2.600000e+00 3.200000e+01 -2.680000e+01
      vertex   -3.000000e+00 3.200000e+01 -1.340000e+01
    endloop
  endfacet
  facet normal 0.000000e+00 1.000000e+00 0.000000e+00
    outer loop
      vertex   -3.000000e+00 3.200000e+01 -1.340000e+01
      vertex   -2.600000e+00 3.200000e+01 -2.680000e+01
      vertex   -3.000000e+00 3.200000e+01 -2.680000e+01
    endloop
  endfacet
  facet normal 0.000000e+00 0.000000e+00 -1.000000e+00
    outer loop
      vertex   -3.000000e+00 3.200000e+01 -2.680000e+01
      vertex   -2.600000e+00 3.200000e+01 -2.680000e+01
      vertex   -3.000000e+00 3.000000e+00 -2.680000e+01
    endloop
  endfacet
  facet normal 0.000000e+00 0.000000e+00 -1.000000e+00
    outer loop
      vertex   -3.000000e+00 3.000000e+00 -2.680000e+01
      vertex   -2.600000e+00 3.200000e+01 -2.680000e+01
      vertex   -2.323195e+00 3.198720e+01 -2.680000e+01
    endloop
  endfacet
  facet normal 0.000000e+00 0.000000e+00 -1.000000e+00
    outer loop
      vertex   -3.000000e+00 3.000000e+00 -2.680000e+01
      vertex   -2.323195e+00 3.198720e+01 -2.680000e+01
      vertex   -2.048751e+00 3.194892e+01 -2.680000e+01
    endloop
  endfacet
  facet normal 0.000000e+00 -0.000000e+00 -1.000000e+00
    outer loop
      vertex   -2.048751e+00 3.194892e+01 -2.680000e+01
      vertex   -1.779011e+00 3.188548e+01 -2.680000e+01
      vertex   -3.000000e+00 3.000000e+00 -2.680000e+01
    endloop
  endfacet
  facet normal 0.000000e+00 0.000000e+00 -1.000000e+00
    outer loop
      vertex   -3.000000e+00 3.000000e+00 -2.680000e+01
      vertex   -1.779011e+00 3.188548e+01 -2.680000e+01
      vertex   -1.516275e+00 3.179742e+01 -2.680000e+01
    endloop
  endfacet
  facet normal 0.000000e+00 0.000000e+00 -1.000000e+00
    outer loop
      vertex   -3.000000e+00 3.000000e+00 -2.680000e+01
      vertex   -1.516275e+00 3.179742e+01 -2.680000e+01
      vertex   -1.262785e+00 3.168549e+01 -2.680000e+01
    endloop
  endfacet
  facet normal 0.000000e+00 0.000000e+00 -1.000000e+00
    outer loop
      vertex   -3.000000e+00 3.000000e+00 -2.680000e+01
      vertex   -1.262785e+00 3.168549e+01 -2.680000e+01
      vertex   4.000000e-01 3.000000e+00 -2.680000e+01
    endloop
  endfacet
  facet normal 0.000000e+00 0.000000e+00 -1.000000e+00
    outer loop
      vertex   4.000000e-01 3.000000e+00 -2.680000e+01
      vertex   -1.262785e+00 3.168549e+01 -2.680000e+01
      vertex   -1.020704e+00 3.155065e+01 -2.680000e+01
    endloop
  endfacet
  facet normal 0.000000e+00 0.000000e+00 -1.000000e+00
    outer loop
      vertex   4.000000e-01 3.000000e+00 -2.680000e+01
      vertex   -1.020704e+00 3.155065e+01 -2.680000e+01
      vertex   -7.920961e-01 3.139405e+01 -2.680000e+01
    endloop
  endfacet
  facet normal 0.000000e+00 0.000000e+00 -1.000000e+00
    outer loop
      vertex   -7.920961e-01 3.139405e+01 -2.680000e+01
      vertex   -5.789131e-01 3.121703e+01 -2.680000e+01
      vertex   4.000000e-01 3.000000e+00 -2.680000e+01
    endloop
  endfacet
  facet normal 0.000000e+00 0.000000e+00 -1.000000e+00
    outer loop
      vertex   4.000000e-01 3.000000e+00 -2.680000e+01
      vertex   -5.789131e-01 3.121703e+01 -2.680000e+01
      vertex   -3.829732e-01 3.102109e+01 -2.680000e+01
    endloop
  endfacet
  facet normal 0.000000e+00 0.000000e+00 -1.000000e+00
    outer loop
      vertex   4.000000e-01 3.000000e+00 -2.680000e+01
      vertex   -3.829732e-01 3.102109e+01 -2.680000e+01
      vertex   -2.059483e-01 3.080790e+01 -2.680000e+01
    endloop
  endfacet
  facet normal 0.000000e+00 0.000000e+00 -1.000000e+00
    outer loop
      vertex   4.000000e-01 3.000000e+00 -2.680000e+01
      vertex   -2.059483e-01 3.080790e+01 -2.680000e+01
      vertex   4.000000e-01 2.900000e+01 -2.680000e+01
    endloop
  endfacet
  facet normal 0.000000e+00 0.000000e+00 -1.000000e+00
    outer loop
      vertex   4.000000e-01 2.900000e+01 -2.680000e+01
      vertex   -2.059483e-01 3.080790e+01 -2.680000e+01
      vertex   -4.934859e-02 3.057930e+01 -2.680000e+01
    endloop
  endfacet
  facet normal 0.000000e+00 0.000000e+00 -1.000000e+00
    outer loop
      vertex   4.000000e-01 2.900000e+01 -2.680000e+01
      vertex   -4.934859e-02 3.057930e+01 -2.680000e+01
      vertex   8.548987e-02 3.033722e+01 -2.680000e+01
    endloop
  endfacet
  facet normal 0.000000e+00 0.000000e+00 -1.000000e+00
    outer loop
      vertex   8.548987e-02 3.033722e+01 -2.680000e+01
      vertex   1.974167e-01 3.008372e+01 -2.680000e+01
      vertex   4.000000e-01 2.900000e+01 -2.680000e+01
    endloop
  endfacet
  facet normal 0.000000e+00 0.000000e+00 -1.000000e+00
    outer loop
      vertex   4.000000e-01 2.900000e+01 -2.680000e+01
      vertex   1.974167e-01 3.008372e+01 -2.680000e+01
      vertex   2.854769e-01 2.982099e+01 -2.680000e+01
    endloop
  endfacet
  facet normal 0.000000e+00 0.000000e+00 -1.000000e+00
    outer loop
      vertex   4.000000e-01 2.900000e+01 -2.680000e+01
      vertex   2.854769e-01 2.982099e+01 -2.680000e+01
      vertex   3.489193e-01 2.955125e+01 -2.680000e+01
    endloop
  endfacet
  facet normal 0.000000e+00 0.000000e+00 -1.000000e+00
    outer loop
      vertex   3.489193e-01 2.955125e+01 -2.680000e+01
      vertex   3.872025e-01 2.927681e+01 -2.680000e+01
      vertex   4.000000e-01 2.900000e+01 -2.680000e+01
    endloop
  endfacet
  facet normal -3.416071e-16 1.000000e+00 3.416071e-16
    outer loop
      vertex   4.000000e-01 3.000000e+00 -1.380000e+01
      vertex   8.000000e-01 3.000000e+00 -1.340000e+01
      vertex   4.000000e-01 3.000000e+00 -2.680000e+01
    endloop
  endfacet
  facet normal 0.000000e+00 1.000000e+00 3.314099e-16
    outer loop
      vertex   4.000000e-01 3.000000e+00 -2.680000e+01
      vertex   8.000000e-01 3.000000e+00 -1.340000e+01
      vertex   5.000000e+00 3.000000e+00 -1.340000e+01
    endloop
  endfacet
  facet normal 4.207161e-16 1.000000e+00 1.869849e-16
    outer loop
      vertex   4.000000e-01 3.000000e+00 -2.680000e+01
      vertex   5.000000e+00 3.000000e+00 -1.340000e+01
      vertex   2.700000e+01 3.000000e+00 -5.340000e+01
    endloop
  endfacet
  facet normal 8.074349e-17 1.000000e+00 -0.000000e+00
    outer loop
      vertex   2.700000e+01 3.000000e+00 -5.340000e+01
      vertex   5.000000e+00 3.000000e+00 -1.340000e+01
      vertex   2.700000e+01 3.000000e+00 0.000000e+00
    endloop
  endfacet
  facet normal 8.074349e-17 1.000000e+00 0.000000e+00
    outer loop
      vertex   2.700000e+01 3.000000e+00 0.000000e+00
      vertex   5.000000e+00 3.000000e+00 -1.340000e+01
      vertex   5.000000e+00 3.000000e+00 0.000000e+00
    endloop
  endfacet
  facet normal 2.812565e-16 1.000000e+00 4.752534e-17
    outer loop
      vertex   2.700000e+01 3.000000e+00 -5.340000e+01
      vertex   -3.000000e+00 3.000000e+00 -5.340000e+01
      vertex   4.000000e-01 3.000000e+00 -2.680000e+01
    endloop
  endfacet
  facet normal 1.306145e-15 1.000000e+00 -8.347542e-17
    outer loop
      vertex   4.000000e-01 3.000000e+00 -2.680000e+01
      vertex   -3.000000e+00 3.000000e+00 -5.340000e+01
      vertex   -3.000000e+00 3.000000e+00 -2.680000e+01
    endloop
  endfacet
  facet normal 0.000000e+00 0.000000e+00 -1.000000e+00
    outer loop
      vertex   7.869848e-01 2.929721e+01 -1.340000e+01
      vertex   2.500000e+00 3.500000e+01 -1.340000e+01
      vertex   8.000000e-01 2.900000e+01 -1.340000e+01
    endloop
  endfacet
  facet normal 0.000000e+00 0.000000e+00 -1.000000e+00
    outer loop
      vertex   8.000000e-01 2.900000e+01 -1.340000e+01
      vertex   2.500000e+00 3.500000e+01 -1.340000e+01
      vertex   2.500000e+00 1.740000e+01 -1.340000e+01
    endloop
  endfacet
  facet normal 0.000000e+00 0.000000e+00 -1.000000e+00
    outer loop
      vertex   8.000000e-01 2.900000e+01 -1.340000e+01
      vertex   2.500000e+00 1.740000e+01 -1.340000e+01
      vertex   8.000000e-01 3.000000e+00 -1.340000e+01
    endloop
  endfacet
  facet normal 0.000000e+00 0.000000e+00 -1.000000e+00
    outer loop
      vertex   8.000000e-01 3.000000e+00 -1.340000e+01
      vertex   2.500000e+00 1.740000e+01 -1.340000e+01
      vertex   5.000000e+00 3.000000e+00 -1.340000e+01
    endloop
  endfacet
  facet normal 0.000000e+00 0.000000e+00 -1.000000e+00
    outer loop
      vertex   5.000000e+00 3.000000e+00 -1.340000e+01
      vertex   2.500000e+00 1.740000e+01 -1.340000e+01
      vertex   5.000000e+00 1.740000e+01 -1.340000e+01
    endloop
  endfacet
  facet normal 0.000000e+00 0.000000e+00 -1.000000e+00
    outer loop
      vertex   7.869848e-01 2.929721e+01 -1.340000e+01
      vertex   7.480389e-01 2.959214e+01 -1.340000e+01
      vertex   2.500000e+00 3.500000e+01 -1.340000e+01
    endloop
  endfacet
  facet normal 0.000000e+00 0.000000e+00 -1.000000e+00
    outer loop
      vertex   2.500000e+00 3.500000e+01 -1.340000e+01
      vertex   7.480389e-01 2.959214e+01 -1.340000e+01
      vertex   6.834605e-01 2.988255e+01 -1.340000e+01
    endloop
  endfacet
  facet normal 0.000000e+00 0.000000e+00 -1.000000e+00
    outer loop
      vertex   2.500000e+00 3.500000e+01 -1.340000e+01
      vertex   6.834605e-01 2.988255e+01 -1.340000e+01
      vertex   5.937439e-01 3.016619e+01 -1.340000e+01
    endloop
  endfacet
  facet normal 0.000000e+00 0.000000e+00 -1.000000e+00
    outer loop
      vertex   5.937439e-01 3.016619e+01 -1.340000e+01
      vertex   4.795760e-01 3.044091e+01 -1.340000e+01
      vertex   2.500000e+00 3.500000e+01 -1.340000e+01
    endloop
  endfacet
  facet normal 0.000000e+00 0.000000e+00 -1.000000e+00
    outer loop
      vertex   2.500000e+00 3.500000e+01 -1.340000e+01
      vertex   4.795760e-01 3.044091e+01 -1.340000e+01
      vertex   2.900224e-32 3.200000e+01 -1.340000e+01
    endloop
  endfacet
  facet normal -0.000000e+00 0.000000e+00 -1.000000e+00
    outer loop
      vertex   2.500000e+00 3.500000e+01 -1.340000e+01
      vertex   2.900224e-32 3.200000e+01 -1.340000e+01
      vertex   -3.000000e+00 3.500000e+01 -1.340000e+01
    endloop
  endfacet
  facet normal 0.000000e+00 0.000000e+00 -1.000000e+00
    outer loop
      vertex   -3.000000e+00 3.500000e+01 -1.340000e+01
      vertex   2.900224e-32 3.200000e+01 -1.340000e+01
      vertex   -2.600000e+00 3.200000e+01 -1.340000e+01
    endloop
  endfacet
  facet normal 0.000000e+00 0.000000e+00 -1.000000e+00
    outer loop
      vertex   -3.000000e+00 3.500000e+01 -1.340000e+01
      vertex   -2.600000e+00 3.200000e+01 -1.340000e+01
      vertex   -3.000000e+00 3.200000e+01 -1.340000e+01
    endloop
  endfacet
  facet normal 0.000000e+00 0.000000e+00 -1.000000e+00
    outer loop
      vertex   4.795760e-01 3.044091e+01 -1.340000e+01
      vertex   3.418310e-01 3.070459e+01 -1.340000e+01
      vertex   2.900224e-32 3.200000e+01 -1.340000e+01
    endloop
  endfacet
  facet normal 0.000000e+00 0.000000e+00 -1.000000e+00
    outer loop
      vertex   2.900224e-32 3.200000e+01 -1.340000e+01
      vertex   3.418310e-01 3.070459e+01 -1.340000e+01
      vertex   1.815633e-01 3.095523e+01 -1.340000e+01
    endloop
  endfacet
  facet normal 0.000000e+00 0.000000e+00 -1.000000e+00
    outer loop
      vertex   2.900224e-32 3.200000e+01 -1.340000e+01
      vertex   1.815633e-01 3.095523e+01 -1.340000e+01
      vertex   8.572170e-16 3.119089e+01 -1.340000e+01
    endloop
  endfacet
  facet normal 0.000000e+00 -1.000000e+00 0.000000e+00
    outer loop
      vertex   8.326673e-15 2.450000e+01 -2.002846e+00
      vertex   8.326673e-15 2.450000e+01 -1.140000e+01
      vertex   2.500000e+00 2.450000e+01 -2.002846e+00
    endloop
  endfacet
  facet normal 0.000000e+00 -1.000000e+00 -0.000000e+00
    outer loop
      vertex   2.500000e+00 2.450000e+01 -2.002846e+00
      vertex   8.326673e-15 2.450000e+01 -1.140000e+01
      vertex   2.500000e+00 2.450000e+01 -1.140000e+01
    endloop
  endfacet
  facet normal 0.000000e+00 0.000000e+00 -1.000000e+00
    outer loop
      vertex   1.165734e-14 2.120000e+01 -2.002846e+00
      vertex   8.326673e-15 2.450000e+01 -2.002846e+00
      vertex   2.500000e+00 2.120000e+01 -2.002846e+00
    endloop
  endfacet
  facet normal 0.000000e+00 0.000000e+00 -1.000000e+00
    outer loop
      vertex   2.500000e+00 2.120000e+01 -2.002846e+00
      vertex   8.326673e-15 2.450000e+01 -2.002846e+00
      vertex   2.500000e+00 2.450000e+01 -2.002846e+00
    endloop
  endfacet
  facet normal 0.000000e+00 1.000000e+00 0.000000e+00
    outer loop
      vertex   1.165734e-14 2.120000e+01 -1.140000e+01
      vertex   1.165734e-14 2.120000e+01 -2.002846e+00
      vertex   2.500000e+00 2.120000e+01 -1.140000e+01
    endloop
  endfacet
  facet normal 0.000000e+00 1.000000e+00 -0.000000e+00
    outer loop
      vertex   2.500000e+00 2.120000e+01 -1.140000e+01
      vertex   1.165734e-14 2.120000e+01 -2.002846e+00
      vertex   2.500000e+00 2.120000e+01 -2.002846e+00
    endloop
  endfacet
  facet normal -0.000000e+00 0.000000e+00 1.000000e+00
    outer loop
      vertex   8.326673e-15 2.450000e+01 -1.140000e+01
      vertex   1.165734e-14 2.120000e+01 -1.140000e+01
      vertex   2.500000e+00 2.450000e+01 -1.140000e+01
    endloop
  endfacet
  facet normal 0.000000e+00 0.000000e+00 1.000000e+00
    outer loop
      vertex   2.500000e+00 2.450000e+01 -1.140000e+01
      vertex   1.165734e-14 2.120000e+01 -1.140000e+01
      vertex   2.500000e+00 2.120000e+01 -1.140000e+01
    endloop
  endfacet
  facet normal -0.000000e+00 0.000000e+00 -1.000000e+00
    outer loop
      vertex   2.700000e+01 4.959820e-15 -5.340000e+01
      vertex   -3.000000e+00 0.000000e+00 -5.340000e+01
      vertex   2.700000e+01 3.000000e+00 -5.340000e+01
    endloop
  endfacet
  facet normal -0.000000e+00 0.000000e+00 -1.000000e+00
    outer loop
      vertex   2.700000e+01 3.000000e+00 -5.340000e+01
      vertex   -3.000000e+00 0.000000e+00 -5.340000e+01
      vertex   -3.000000e+00 3.000000e+00 -5.340000e+01
    endloop
  endfacet
  facet normal -0.000000e+00 1.000000e+00 5.921189e-15
    outer loop
      vertex   1.900000e+00 1.740000e+01 0.000000e+00
      vertex   5.000000e+00 1.740000e+01 0.000000e+00
      vertex   2.500000e+00 1.740000e+01 -6.000000e-01
    endloop
  endfacet
  facet normal 1.421085e-15 1.000000e+00 0.000000e+00
    outer loop
      vertex   2.500000e+00 1.740000e+01 -6.000000e-01
      vertex   5.000000e+00 1.740000e+01 0.000000e+00
      vertex   5.000000e+00 1.740000e+01 -1.340000e+01
    endloop
  endfacet
  facet normal 0.000000e+00 1.000000e+00 -2.775558e-16
    outer loop
      vertex   2.500000e+00 1.740000e+01 -6.000000e-01
      vertex   5.000000e+00 1.740000e+01 -1.340000e+01
      vertex   2.500000e+00 1.740000e+01 -1.340000e+01
    endloop
  endfacet
  facet normal 0.000000e+00 1.000000e+00 -2.775558e-16
    outer loop
      vertex   1.656866e-14 1.740000e+01 -1.340000e+01
      vertex   -3.000000e+00 1.740000e+01 -1.340000e+01
      vertex   1.637579e-14 1.740000e+01 -6.000000e-01
    endloop
  endfacet
  facet normal -1.184238e-15 1.000000e+00 -1.569872e-31
    outer loop
      vertex   1.637579e-14 1.740000e+01 -6.000000e-01
      vertex   -3.000000e+00 1.740000e+01 -1.340000e+01
      vertex   -3.000000e+00 1.740000e+01 0.000000e+00
    endloop
  endfacet
  facet normal 0.000000e+00 1.000000e+00 5.921189e-15
    outer loop
      vertex   1.637579e-14 1.740000e+01 -6.000000e-01
      vertex   -3.000000e+00 1.740000e+01 0.000000e+00
      vertex   6.000000e-01 1.740000e+01 0.000000e+00
    endloop
  endfacet
  facet normal 1.653273e-16 -1.000000e+00 0.000000e+00
    outer loop
      vertex   2.700000e+01 4.959820e-15 0.000000e+00
      vertex   -3.000000e+00 1.540744e-32 0.000000e+00
      vertex   2.700000e+01 4.959820e-15 -5.340000e+01
    endloop
  endfacet
  facet normal 1.653273e-16 -1.000000e+00 0.000000e+00
    outer loop
      vertex   2.700000e+01 4.959820e-15 -5.340000e+01
      vertex   -3.000000e+00 1.540744e-32 0.000000e+00
      vertex   -3.000000e+00 0.000000e+00 -5.340000e+01
    endloop
  endfacet
  facet normal 1.000000e+00 0.000000e+00 0.000000e+00
    outer loop
      vertex   2.700000e+01 3.000000e+00 0.000000e+00
      vertex   2.700000e+01 4.959820e-15 0.000000e+00
      vertex   2.700000e+01 3.000000e+00 -5.340000e+01
    endloop
  endfacet
  facet normal 1.000000e+00 0.000000e+00 0.000000e+00
    outer loop
      vertex   2.700000e+01 3.000000e+00 -5.340000e+01
      vertex   2.700000e+01 4.959820e-15 0.000000e+00
      vertex   2.700000e+01 4.959820e-15 -5.340000e+01
    endloop
  endfacet
  facet normal 1.000000e+00 1.850372e-16 -0.000000e+00
    outer loop
      vertex   5.000000e+00 3.000000e+00 -1.340000e+01
      vertex   5.000000e+00 1.740000e+01 -1.340000e+01
      vertex   5.000000e+00 3.000000e+00 0.000000e+00
    endloop
  endfacet
  facet normal 1.000000e+00 1.850372e-16 0.000000e+00
    outer loop
      vertex   5.000000e+00 3.000000e+00 0.000000e+00
      vertex   5.000000e+00 1.740000e+01 -1.340000e+01
      vertex   5.000000e+00 1.740000e+01 0.000000e+00
    endloop
  endfacet
  facet normal 5.921189e-16 -1.000000e+00 0.000000e+00
    outer loop
      vertex   -3.000000e+00 8.800000e+00 -1.340000e+01
      vertex   0.000000e+00 8.800000e+00 -1.340000e+01
      vertex   -3.000000e+00 8.800000e+00 0.000000e+00
    endloop
  endfacet
  facet normal 5.921189e-16 -1.000000e+00 0.000000e+00
    outer loop
      vertex   -3.000000e+00 8.800000e+00 0.000000e+00
      vertex   0.000000e+00 8.800000e+00 -1.340000e+01
      vertex   0.000000e+00 8.800000e+00 0.000000e+00
    endloop
  endfacet
  facet normal -1.000000e+00 0.000000e+00 0.000000e+00
    outer loop
      vertex   0.000000e+00 8.800000e+00 -1.340000e+01
      vertex   0.000000e+00 5.000000e+00 -1.340000e+01
      vertex   0.000000e+00 8.800000e+00 0.000000e+00
    endloop
  endfacet
  facet normal -1.000000e+00 -0.000000e+00 0.000000e+00
    outer loop
      vertex   0.000000e+00 8.800000e+00 0.000000e+00
      vertex   0.000000e+00 5.000000e+00 -1.340000e+01
      vertex   0.000000e+00 5.000000e+00 0.000000e+00
    endloop
  endfacet
  facet normal -2.960595e-16 1.000000e+00 0.000000e+00
    outer loop
      vertex   0.000000e+00 5.000000e+00 -1.340000e+01
      vertex   -3.000000e+00 5.000000e+00 -1.340000e+01
      vertex   0.000000e+00 5.000000e+00 0.000000e+00
    endloop
  endfacet
  facet normal -2.960595e-16 1.000000e+00 0.000000e+00
    outer loop
      vertex   0.000000e+00 5.000000e+00 0.000000e+00
      vertex   -3.000000e+00 5.000000e+00 -1.340000e+01
      vertex   -3.000000e+00 5.000000e+00 0.000000e+00
    endloop
  endfacet
  facet normal -1.000000e+00 -1.480297e-15 8.347542e-17
    outer loop
      vertex   -3.000000e+00 3.000000e+00 -5.340000e+01
      vertex   -3.000000e+00 0.000000e+00 -5.340000e+01
      vertex   -3.000000e+00 3.000000e+00 -2.680000e+01
    endloop
  endfacet
  facet normal -1.000000e+00 -3.714604e-16 -4.158139e-17
    outer loop
      vertex   -3.000000e+00 3.000000e+00 -2.680000e+01
      vertex   -3.000000e+00 0.000000e+00 -5.340000e+01
      vertex   -3.000000e+00 1.540744e-32 0.000000e+00
    endloop
  endfacet
  facet normal -1.000000e+00 -6.344132e-16 -7.101640e-17
    outer loop
      vertex   -3.000000e+00 3.000000e+00 -2.680000e+01
      vertex   -3.000000e+00 1.540744e-32 0.000000e+00
      vertex   -3.000000e+00 5.000000e+00 -1.340000e+01
    endloop
  endfacet
  facet normal -1.000000e+00 -4.440892e-16 0.000000e+00
    outer loop
      vertex   -3.000000e+00 5.000000e+00 -1.340000e+01
      vertex   -3.000000e+00 1.540744e-32 0.000000e+00
      vertex   -3.000000e+00 5.000000e+00 0.000000e+00
    endloop
  endfacet
  facet normal -1.000000e+00 -1.168656e-16 -1.482623e-16
    outer loop
      vertex   -3.000000e+00 5.000000e+00 -1.340000e+01
      vertex   -3.000000e+00 8.800000e+00 -1.340000e+01
      vertex   -3.000000e+00 3.000000e+00 -2.680000e+01
    endloop
  endfacet
  facet normal -1.000000e+00 3.098297e-16 -3.329513e-16
    outer loop
      vertex   -3.000000e+00 3.000000e+00 -2.680000e+01
      vertex   -3.000000e+00 8.800000e+00 -1.340000e+01
      vertex   -3.000000e+00 1.740000e+01 -1.340000e+01
    endloop
  endfacet
  facet normal -1.000000e+00 0.000000e+00 0.000000e+00
    outer loop
      vertex   -3.000000e+00 3.000000e+00 -2.680000e+01
      vertex   -3.000000e+00 1.740000e+01 -1.340000e+01
      vertex   -3.000000e+00 3.200000e+01 -2.680000e+01
    endloop
  endfacet
  facet normal -1.000000e+00 0.000000e+00 0.000000e+00
    outer loop
      vertex   -3.000000e+00 3.200000e+01 -2.680000e+01
      vertex   -3.000000e+00 1.740000e+01 -1.340000e+01
      vertex   -3.000000e+00 3.200000e+01 -1.340000e+01
    endloop
  endfacet
  facet normal -1.000000e+00 1.032766e-16 0.000000e+00
    outer loop
      vertex   -3.000000e+00 8.800000e+00 0.000000e+00
      vertex   -3.000000e+00 1.740000e+01 0.000000e+00
      vertex   -3.000000e+00 8.800000e+00 -1.340000e+01
    endloop
  endfacet
  facet normal -1.000000e+00 3.098297e-16 -1.325639e-16
    outer loop
      vertex   -3.000000e+00 8.800000e+00 -1.340000e+01
      vertex   -3.000000e+00 1.740000e+01 0.000000e+00
      vertex   -3.000000e+00 1.740000e+01 -1.340000e+01
    endloop
  endfacet
  facet normal 0.000000e+00 -1.000000e+00 0.000000e+00
    outer loop
      vertex   2.900224e-32 3.200000e+01 -1.340000e+01
      vertex   2.900224e-32 3.200000e+01 -6.000000e-01
      vertex   -2.600000e+00 3.200000e+01 -1.340000e+01
    endloop
  endfacet
  facet normal 0.000000e+00 -1.000000e+00 0.000000e+00
    outer loop
      vertex   -2.600000e+00 3.200000e+01 -1.340000e+01
      vertex   2.900224e-32 3.200000e+01 -6.000000e-01
      vertex   -3.000000e+00 3.200000e+01 -6.000000e-01
    endloop
  endfacet
  facet normal 0.000000e+00 -1.000000e+00 0.000000e+00
    outer loop
      vertex   -2.600000e+00 3.200000e+01 -1.340000e+01
      vertex   -3.000000e+00 3.200000e+01 -6.000000e-01
      vertex   -3.000000e+00 3.200000e+01 -1.340000e+01
    endloop
  endfacet
  facet normal -1.000000e+00 -1.121629e-15 6.098174e-17
    outer loop
      vertex   2.900224e-32 3.200000e+01 -6.000000e-01
      vertex   8.326673e-15 2.450000e+01 -2.002846e+00
      vertex   1.637579e-14 1.740000e+01 -6.000000e-01
    endloop
  endfacet
  facet normal -1.000000e+00 -1.009294e-15 6.295286e-16
    outer loop
      vertex   1.637579e-14 1.740000e+01 -6.000000e-01
      vertex   8.326673e-15 2.450000e+01 -2.002846e+00
      vertex   1.165734e-14 2.120000e+01 -2.002846e+00
    endloop
  endfacet
  facet normal -1.000000e+00 -1.241697e-15 0.000000e+00
    outer loop
      vertex   1.637579e-14 1.740000e+01 -6.000000e-01
      vertex   1.165734e-14 2.120000e+01 -2.002846e+00
      vertex   1.165734e-14 2.120000e+01 -1.140000e+01
    endloop
  endfacet
  facet normal -1.000000e+00 -1.059457e-15 0.000000e+00
    outer loop
      vertex   2.900224e-32 3.200000e+01 -1.340000e+01
      vertex   8.572170e-16 3.119089e+01 -1.340000e+01
      vertex   2.900224e-32 3.200000e+01 -6.000000e-01
    endloop
  endfacet
  facet normal -1.000000e+00 -1.128971e-15 4.394120e-18
    outer loop
      vertex   2.900224e-32 3.200000e+01 -6.000000e-01
      vertex   8.572170e-16 3.119089e+01 -1.340000e+01
      vertex   1.640980e-15 3.049666e+01 -1.340000e+01
    endloop
  endfacet
  facet normal -1.000000e+00 -1.114022e-15 2.638391e-18
    outer loop
      vertex   2.900224e-32 3.200000e+01 -6.000000e-01
      vertex   1.640980e-15 3.049666e+01 -1.340000e+01
      vertex   8.326673e-15 2.450000e+01 -1.140000e+01
    endloop
  endfacet
  facet normal -1.000000e+00 -1.139808e-15 -7.467542e-17
    outer loop
      vertex   8.326673e-15 2.450000e+01 -1.140000e+01
      vertex   1.640980e-15 3.049666e+01 -1.340000e+01
      vertex   1.656866e-14 1.740000e+01 -1.340000e+01
    endloop
  endfacet
  facet normal -1.000000e+00 -1.009294e-15 -5.380010e-16
    outer loop
      vertex   8.326673e-15 2.450000e+01 -1.140000e+01
      vertex   1.656866e-14 1.740000e+01 -1.340000e+01
      vertex   1.165734e-14 2.120000e+01 -1.140000e+01
    endloop
  endfacet
  facet normal -1.000000e+00 -1.284522e-15 -1.506798e-17
    outer loop
      vertex   1.165734e-14 2.120000e+01 -1.140000e+01
      vertex   1.656866e-14 1.740000e+01 -1.340000e+01
      vertex   1.637579e-14 1.740000e+01 -6.000000e-01
    endloop
  endfacet
  facet normal -1.000000e+00 -1.128971e-15 1.303419e-15
    outer loop
      vertex   8.572170e-16 3.119089e+01 -1.340000e+01
      vertex   9.152601e-16 3.100412e+01 -1.351724e+01
      vertex   1.640980e-15 3.049666e+01 -1.340000e+01
    endloop
  endfacet
  facet normal -1.000000e+00 -1.347648e-15 3.569479e-16
    outer loop
      vertex   1.640980e-15 3.049666e+01 -1.340000e+01
      vertex   9.152601e-16 3.100412e+01 -1.351724e+01
      vertex   1.116539e-15 3.082693e+01 -1.362232e+01
    endloop
  endfacet
  facet normal -1.000000e+00 -1.340534e-15 3.675158e-16
    outer loop
      vertex   1.640980e-15 3.049666e+01 -1.340000e+01
      vertex   1.116539e-15 3.082693e+01 -1.362232e+01
      vertex   1.308291e-15 3.065813e+01 -1.371627e+01
    endloop
  endfacet
  facet normal -1.000000e+00 5.385833e-16 1.326891e-15
    outer loop
      vertex   1.308291e-15 3.065813e+01 -1.371627e+01
      vertex   1.110223e-15 3.049666e+01 -1.380000e+01
      vertex   1.640980e-15 3.049666e+01 -1.340000e+01
    endloop
  endfacet
  facet normal -1.000000e+00 -1.110223e-15 0.000000e+00
    outer loop
      vertex   8.326673e-15 2.450000e+01 -1.140000e+01
      vertex   8.326673e-15 2.450000e+01 -2.002846e+00
      vertex   2.900224e-32 3.200000e+01 -6.000000e-01
    endloop
  endfacet
  facet normal -1.000000e+00 0.000000e+00 0.000000e+00
    outer loop
      vertex   -3.000000e+00 3.200000e+01 -6.000000e-01
      vertex   -3.000000e+00 3.260000e+01 0.000000e+00
      vertex   -3.000000e+00 3.200000e+01 -1.340000e+01
    endloop
  endfacet
  facet normal -1.000000e+00 0.000000e+00 0.000000e+00
    outer loop
      vertex   -3.000000e+00 3.200000e+01 -1.340000e+01
      vertex   -3.000000e+00 3.260000e+01 0.000000e+00
      vertex   -3.000000e+00 3.500000e+01 -1.340000e+01
    endloop
  endfacet
  facet normal -1.000000e+00 0.000000e+00 0.000000e+00
    outer loop
      vertex   -3.000000e+00 3.500000e+01 -1.340000e+01
      vertex   -3.000000e+00 3.260000e+01 0.000000e+00
      vertex   -3.000000e+00 3.500000e+01 0.000000e+00
    endloop
  endfacet
endsolid
