<?xml version="1.0" encoding="UTF-8"?>
<!-- Generator: Adobe Illustrator 13.0.0, SVG Export Plug-In . SVG Version: 6.00 Build 14948)  -->
<!DOCTYPE svg PUBLIC "-//W3C//DTD SVG 1.0//EN" "http://www.w3.org/TR/2001/REC-SVG-20010904/DTD/svg10.dtd">
<svg version="1.0" xmlns="http://www.w3.org/2000/svg" xmlns:xlink="http://www.w3.org/1999/xlink" x="0px" y="0px" width="290.5px" height="322.5px" viewBox="0 0 290.5 322.5" enable-background="new 0 0 290.5 322.5" xml:space="preserve">
<g id="Grid" display="none">
</g>
<g id="Layer_1">
</g>
<g id="Desktop">
</g>
<g id="Guides">
</g>
<g id="Page_1">
	<g id="Layer_1_1_">
		<path fill-rule="evenodd" clip-rule="evenodd" fill="#0000FF" d="M244.269,59.586V3.64h42.101v3.743h-23.324V30.3h23.324v3.331    h-23.324v22.917h23.324v9.407h-22.265v37.57l-33.388-37.57h-31.711v56.89h22.906v-38.09l33.721,38.09h30.736v1.419    c-24.34,34.179-78.764,58.076-141.742,58.076c-62.03,0-115.757-23.187-140.617-56.545v-5.804c3.047,1.405,6.832,2.473,11.06,3.064    h63.402c4.662-0.652,8.785-1.882,11.974-3.507c0-7.776,0-15.554,0-23.331c-3.212-1.668-7.399-2.93-12.144-3.594H49.783v0.011    H32.419c0-7.645,0-15.291,0-22.936h28.534v15.543h29.493V69.463c-3.189-1.624-7.313-2.854-11.974-3.506H15.07    c-4.228,0.592-8.012,1.657-11.06,3.063V3.762h61.159c4.869,0.652,9.22,2.065,12.633,3.999v20.803    c-2.831,1.604-6.308,2.849-10.189,3.599c3.882,0.75,7.358,1.995,10.189,3.6v20.804c-2.195,1.244-4.777,2.271-7.635,3.021h16.431    V3.64h21.244V56.98h41.294v2.605h12.436c-1.86-0.614-3.545-1.359-5.004-2.21V3.718h26.254v53.51h25.399V3.718h26.253v53.746    c-1.423,0.814-3.055,1.529-4.852,2.122H244.269L244.269,59.586z M51.95,30.73H28.871V7.813H51.95V30.73L51.95,30.73z     M51.95,56.548H28.871V33.631H51.95V56.548L51.95,56.548z M177.604,123.056h-64.373c-4.817-0.664-9.069-1.926-12.33-3.594V65.804    h29.944v53.51h28.971v-53.51h29.945v53.745C186.523,121.174,182.336,122.403,177.604,123.056L177.604,123.056z M4.01,103.77    V93.313c3.047,1.405,6.832,2.473,11.06,3.064h45.883c0,7.646,0,15.291,0,22.937H32.419V103.77H4.01L4.01,103.77z"/>
		<path fill-rule="evenodd" clip-rule="evenodd" fill="#0000FF" d="M164.298,318.359h23.056v-12.563h75.752v12.563h23.055V189.91    h-23.055v8.096h-75.752v-8.096h-23.056V318.359L164.298,318.359z M187.354,298.889v-47.192h75.752v47.192H187.354L187.354,298.889    z M187.354,244.788v-39.874h75.752v39.874H187.354L187.354,244.788z"/>
		<polygon fill-rule="evenodd" clip-rule="evenodd" fill="#0000FF" points="91.111,189.43 112.504,189.43 112.504,199.281     153.326,199.281 153.326,206.037 112.504,206.037 112.504,216.452 91.111,216.452 91.111,206.037 70.563,206.037 70.563,216.452     49.171,216.452 49.171,206.037 6.949,206.037 6.949,199.281 49.171,199.281 49.171,189.43 70.563,189.43 70.563,199.281     91.111,199.281 91.111,189.43   "/>
		<rect x="19.54" y="221.945" fill-rule="evenodd" clip-rule="evenodd" fill="#0000FF" width="21.635" height="43.575"/>
		<rect x="53.207" y="220.65" fill-rule="evenodd" clip-rule="evenodd" fill="#0000FF" width="21.635" height="48.529"/>
		<path fill-rule="evenodd" clip-rule="evenodd" fill="#0000FF" d="M41.175,274.053h78.01v-2.338h21.635v41.343h16.456v5.485H4.542    v-5.485H19.54v-41.343h21.635V274.053L41.175,274.053z M119.185,279.538h-13.104v33.52h13.104V279.538L119.185,279.538z     M84.446,279.538H74.085v33.52h10.361V279.538L84.446,279.538z M52.45,279.538H41.175v33.52H52.45V279.538L52.45,279.538z"/>
		<path fill-rule="evenodd" clip-rule="evenodd" fill="#0000FF" d="M78.144,258.786c11.732-10.674,20.381-23.028,23.533-38.384    l28.331,0.229c-1.243,4.168-3.053,7.986-5.391,11.477h23.606v7.202h-29.629c-1.36,1.328-2.817,2.595-4.368,3.804l38.785,12.465    l-16.606,12.575l-23.931-23.727C103.616,250.813,92,255.492,78.144,258.786L78.144,258.786z"/>
	</g>
</g>
</svg>