<?xml version="1.0" encoding="UTF-8" standalone="no"?>
<svg
   xmlns:dc="http://purl.org/dc/elements/1.1/"
   xmlns:cc="http://creativecommons.org/ns#"
   xmlns:rdf="http://www.w3.org/1999/02/22-rdf-syntax-ns#"
   xmlns:svg="http://www.w3.org/2000/svg"
   xmlns="http://www.w3.org/2000/svg"
   xmlns:sodipodi="http://sodipodi.sourceforge.net/DTD/sodipodi-0.dtd"
   xmlns:inkscape="http://www.inkscape.org/namespaces/inkscape"
   inkscape:version="1.0 (1.0+r73+1)"
   sodipodi:docname="buynlarge.svg"
   id="svg8"
   version="1.1"
   viewBox="0 0 27.429697 17.006146"
   height="17.006145mm"
   width="27.429697mm">
  <defs
     id="defs2" />
  <sodipodi:namedview
     inkscape:window-maximized="1"
     inkscape:window-y="27"
     inkscape:window-x="0"
     inkscape:window-height="1016"
     inkscape:window-width="1920"
     showgrid="false"
     inkscape:document-rotation="0"
     inkscape:current-layer="layer1"
     inkscape:document-units="mm"
     inkscape:cy="20.976495"
     inkscape:cx="26.430989"
     inkscape:zoom="3.959798"
     inkscape:pageshadow="2"
     inkscape:pageopacity="0.0"
     borderopacity="1.0"
     bordercolor="#666666"
     pagecolor="#ffffff"
     id="base" />
  <metadata
     id="metadata5">
    <rdf:RDF>
      <cc:Work
         rdf:about="">
        <dc:format>image/svg+xml</dc:format>
        <dc:type
           rdf:resource="http://purl.org/dc/dcmitype/StillImage" />
      </cc:Work>
    </rdf:RDF>
  </metadata>
  <g
     transform="translate(-70.701242,-131.82246)"
     id="layer1"
     inkscape:groupmode="layer"
     inkscape:label="Layer 1">
    <path
       id="path207"
       d="m 70.701242,148.78135 c 0,-0.0379 0.07347,-0.33482 0.163275,-0.65985 0.0898,-0.32503 0.530345,-1.98161 0.978985,-3.6813 0.44864,-1.69968 0.886979,-3.35703 0.974086,-3.683 0.689948,-2.58186 1.800717,-6.79149 2.111174,-8.001 l 0.228189,-0.889 h 5.032312 5.032312 l 0.592667,0.24879 c 1.433551,0.60177 2.254555,2.05558 2.011104,3.56121 l -0.06845,0.42334 -0.63266,-0.0271 c -0.799286,-0.0342 -1.744394,0.15973 -2.43726,0.50008 -1.072801,0.52698 -2.097777,1.75157 -2.438714,2.91364 -0.212155,0.72313 -0.197385,1.86598 0.03392,2.62467 0.433907,1.42323 1.677587,2.67431 3.08281,3.10113 0.655118,0.19899 0.653364,0.17248 0.0637,0.96287 -0.823352,1.10363 -1.987915,1.85855 -3.678521,2.38459 l -0.761926,0.23708 -5.1435,0.0263 c -2.828925,0.0145 -5.1435,-0.005 -5.1435,-0.0425 z m 8.339667,-3.60666 c 1.395918,-0.0615 2.349761,-0.84989 2.473004,-2.044 0.115368,-1.11781 -0.671858,-1.56682 -2.749986,-1.56851 -0.733786,-6e-4 -0.790292,0.0118 -0.866398,0.18986 -0.147334,0.34474 -0.855366,3.30438 -0.815411,3.4085 0.02699,0.0703 0.231254,0.0929 0.660268,0.0729 0.341655,-0.0159 0.925989,-0.0423 1.298523,-0.0588 z m 2.086149,-6.5116 c 0.417551,-0.18035 0.980637,-0.70281 1.181231,-1.09601 0.376069,-0.73715 0.265758,-1.55881 -0.256459,-1.91023 -0.273706,-0.18419 -0.359306,-0.19448 -1.434155,-0.17243 l -1.143076,0.0234 -0.401562,1.60494 c -0.22086,0.88272 -0.380127,1.63963 -0.353927,1.68202 0.07888,0.12764 2.058138,0.0194 2.407948,-0.13174 z m 4.221517,10.08423 c 0,-0.0532 0.1905,-0.81401 0.423334,-1.69068 0.232833,-0.87668 0.423333,-1.60521 0.423333,-1.61897 0,-0.0138 0.170083,-0.0115 0.377962,0.005 0.595687,0.0474 1.712515,-0.21804 2.373705,-0.56413 1.480982,-0.77519 2.494148,-2.46602 2.494945,-4.16371 7.62e-4,-1.56129 -1.039179,-3.31795 -2.377881,-4.01681 l -0.475602,-0.24828 0.276883,-1.06362 c 0.610883,-2.34665 0.904511,-3.43736 0.941637,-3.49779 0.03757,-0.0612 5.278351,-0.0945 5.278351,-0.0336 0,0.029 -1.241409,4.88449 -2.454585,9.60059 -0.326378,1.26877 -0.593415,2.32604 -0.593415,2.3495 0,0.0235 1.3716,0.0427 3.048,0.0427 1.6764,0 3.046964,0.0286 3.045697,0.0635 -0.0013,0.0349 -0.279564,1.14935 -0.618438,2.4765 l -0.616135,2.413 -5.773896,0.0217 c -4.285548,0.0162 -5.773895,-0.003 -5.773895,-0.075 z m -1.947901,-5.38401 c -3.39e-4,-0.0364 0.313515,-1.21976 0.697395,-2.62979 l 0.697963,-2.56368 0.961634,0.0237 0.961634,0.0237 0.394138,1.03581 c 0.216775,0.56969 0.429124,1.02475 0.471887,1.01125 0.04276,-0.0135 0.209937,-0.48914 0.3715,-1.05697 l 0.293752,-1.03242 h 0.919666 c 0.505816,0 0.919253,0.01 0.91875,0.0212 -5.08e-4,0.0116 -0.05894,0.21166 -0.129863,0.4445 -0.07092,0.23283 -0.355295,1.26153 -0.631944,2.286 -0.276649,1.02446 -0.544202,2.00681 -0.594562,2.18298 l -0.09156,0.32032 -0.903229,-0.024 -0.903228,-0.024 -0.375999,-0.97367 c -0.206799,-0.53551 -0.388755,-0.98954 -0.404347,-1.00894 -0.06976,-0.0868 -0.144901,0.12936 -0.356126,1.02452 l -0.226078,0.95809 -1.035406,0.0238 c -0.569473,0.0131 -1.035662,-0.006 -1.035974,-0.0423 z"
       style="fill:#000000;stroke-width:0.0846667" />
  </g>
</svg>
