<?xml version="1.0" encoding="UTF-8" standalone="no"?>
<svg
   xmlns:dc="http://purl.org/dc/elements/1.1/"
   xmlns:cc="http://creativecommons.org/ns#"
   xmlns:rdf="http://www.w3.org/1999/02/22-rdf-syntax-ns#"
   xmlns:svg="http://www.w3.org/2000/svg"
   xmlns="http://www.w3.org/2000/svg"
   xmlns:sodipodi="http://sodipodi.sourceforge.net/DTD/sodipodi-0.dtd"
   xmlns:inkscape="http://www.inkscape.org/namespaces/inkscape"
   inkscape:export-ydpi="96"
   inkscape:export-xdpi="96"
   inkscape:export-filename="/home/bishma/Pictures/making/EvilCorp Coasters/to trace/cyberdyne.png"
   width="107.10056mm"
   height="78.080544mm"
   viewBox="0 0 107.10056 78.080544"
   version="1.1"
   id="svg8"
   inkscape:version="1.0 (1.0+r73+1)"
   sodipodi:docname="cyberdyne.svg">
  <defs
     id="defs2" />
  <sodipodi:namedview
     id="base"
     pagecolor="#ffffff"
     bordercolor="#666666"
     borderopacity="1.0"
     inkscape:pageopacity="0.0"
     inkscape:pageshadow="2"
     inkscape:zoom="1"
     inkscape:cx="93.946931"
     inkscape:cy="170.61235"
     inkscape:document-units="mm"
     inkscape:current-layer="layer1"
     inkscape:document-rotation="0"
     showgrid="false"
     inkscape:window-width="1920"
     inkscape:window-height="1016"
     inkscape:window-x="0"
     inkscape:window-y="27"
     inkscape:window-maximized="1" />
  <metadata
     id="metadata5">
    <rdf:RDF>
      <cc:Work
         rdf:about="">
        <dc:format>image/svg+xml</dc:format>
        <dc:type
           rdf:resource="http://purl.org/dc/dcmitype/StillImage" />
        <dc:title />
      </cc:Work>
    </rdf:RDF>
  </metadata>
  <g
     inkscape:label="Layer 1"
     inkscape:groupmode="layer"
     id="layer1"
     transform="translate(-3.2808973,-4.4738737)">
    <path
       id="path195"
       d="m 14.877162,82.511581 c -0.394573,-0.39457 -0.148639,-1.14289 0.418924,-1.27468 0.327422,-0.076 1.905,-0.16759 3.505729,-0.20348 l 2.910417,-0.0653 v -0.92603 -0.92605 l -3.000896,-0.13229 c -3.725588,-0.16424 -4.010563,-0.38864 -4.010563,-3.15819 0,-1.52067 0.08922,-1.86046 0.619209,-2.35837 0.595717,-0.55964 0.793962,-0.57896 5.225521,-0.50914 4.405731,0.0694 4.606312,0.0956 4.606312,0.60174 0,0.49525 -0.220486,0.53765 -3.439583,0.66146 l -3.439584,0.13229 -0.08291,0.8599 -0.08291,0.8599 2.46416,0.0149 c 1.355288,0.008 2.879847,0.15704 3.38791,0.33073 1.038848,0.35514 1.240881,0.88214 1.293903,3.37515 0.0274,1.28841 -0.06118,1.56046 -0.710777,2.18281 l -0.742082,0.71097 h -4.373196 c -2.405258,0 -4.452571,-0.0794 -4.549585,-0.17639 z m 15.610418,0 c -0.09701,-0.097 -0.17639,-1.03531 -0.17639,-2.08511 v -1.90873 l -1.984375,-2.58535 c -1.091406,-1.42195 -1.984375,-2.69152 -1.984375,-2.82127 0,-0.12976 0.859431,-0.20093 1.909847,-0.15818 l 1.909847,0.0777 1.331299,1.77149 c 0.732213,0.97432 1.453443,1.77799 1.602732,1.78594 0.149288,0.008 0.895133,-0.81899 1.657432,-1.83764 1.174927,-1.57003 1.506299,-1.85208 2.175962,-1.85208 0.434481,0 0.789964,0.12204 0.789964,0.2712 0,0.14916 -0.833437,1.38002 -1.852083,2.73524 -1.299797,1.72926 -1.852769,2.69379 -1.854383,3.23452 -0.0013,0.42377 -0.07738,1.39558 -0.169145,2.15956 l -0.166846,1.38906 h -1.506548 c -0.828604,0 -1.585926,-0.0794 -1.682938,-0.17639 z m 8.466666,0 c -0.327059,-0.32706 -0.179594,-1.08868 0.242126,-1.25051 0.230182,-0.0883 1.78173,-0.1606 3.447889,-0.1606 3.27973,0 3.50765,-0.10472 3.16855,-1.4558 -0.16352,-0.6515 -0.20469,-0.66087 -2.90327,-0.66087 -2.368729,0 -2.831297,-0.0739 -3.434544,-0.54837 -0.638652,-0.50236 -0.69714,-0.70937 -0.69714,-2.46742 0,-1.66997 0.08037,-1.99455 0.619209,-2.50077 0.595718,-0.55964 0.793962,-0.57896 5.225525,-0.50914 4.40573,0.0694 4.60631,0.0956 4.60631,0.60174 0,0.49715 -0.20016,0.53349 -3.30729,0.6005 -3.48487,0.0751 -4.06838,0.2843 -3.7877,1.35764 0.10792,0.41267 0.52757,0.49956 3.05738,0.63301 3.69887,0.19514 3.97254,0.39997 4.12438,3.08702 0.0996,1.76344 0.069,1.87973 -0.69853,2.64721 l -0.80274,0.80275 h -4.34189 c -2.38803,0 -4.421253,-0.0794 -4.518265,-0.17639 z m 14.903275,-1.86093 c -7.9e-4,-1.13504 -0.0781,-3.04599 -0.17151,-4.24653 l -0.16992,-2.18282 h -1.53267 c -1.59193,0 -1.94226,-0.18939 -1.66874,-0.90216 0.13971,-0.36407 0.83488,-0.42075 5.16023,-0.42075 h 4.99878 v 0.66145 c 0,0.63183 -0.0709,0.66146 -1.58246,0.66146 -1.91735,0 -1.83529,-0.20304 -1.92493,4.7625 l -0.0645,3.57188 -1.52136,0.0793 -1.52135,0.0794 -0.002,-2.06373 z m 7.93909,-2.85123 v -4.90103 h 4.64861 4.64861 l -0.0846,0.59531 c -0.0809,0.56965 -0.20701,0.59855 -2.92602,0.67038 -2.73872,0.0724 -2.84715,0.0977 -2.99849,0.70069 -0.0864,0.3441 -0.11739,0.90563 -0.069,1.24785 0.0843,0.59541 0.20208,0.62792 2.73391,0.75452 2.61055,0.13052 2.64583,0.14111 2.64583,0.79375 0,0.65264 -0.0353,0.66322 -2.64583,0.79375 l -2.64584,0.13229 v 1.19062 1.19063 l 2.91042,0.13229 c 2.89278,0.13149 2.91042,0.1363 2.91042,0.79375 v 0.66146 l -4.56407,0.0724 -4.56406,0.0724 z m 10.70066,4.54811 c -0.0718,-0.18725 -0.0979,-2.36014 -0.0578,-4.82865 l 0.0728,-4.4882 2.14182,-0.0762 2.14183,-0.0762 1.42062,3.07218 c 0.78135,1.68971 1.51509,3.13057 1.63054,3.20192 0.11545,0.0713 0.8936,-1.27685 1.72922,-2.996 l 1.51931,-3.12573 2.05052,-0.0773 2.05052,-0.0773 v 4.90592 4.90592 h -1.5875 -1.5875 v -3.59392 c 0,-2.66284 -0.0816,-3.56671 -0.31516,-3.48888 -0.17333,0.0578 -0.94047,1.46669 -1.70475,3.13091 -1.8772,4.08763 -1.77404,3.95189 -3.00332,3.95189 -1.25511,0 -1.26241,-0.01 -3.19811,-4.30084 -0.90171,-1.99889 -1.47838,-2.99156 -1.61388,-2.77813 -0.11597,0.18265 -0.21267,1.85014 -0.2149,3.70553 l -0.004,3.37344 h -0.66971 c -0.36837,0 -0.72855,-0.1532 -0.80041,-0.34045 z m 16.46323,0.16405 c -0.097,-0.097 -0.17639,-0.4542 -0.17639,-0.79375 0,-0.61525 0.0118,-0.61736 3.45555,-0.61736 h 3.45556 l -0.0821,-0.99219 -0.0821,-0.99219 -2.81788,-0.13229 c -3.67799,-0.17267 -3.929,-0.36902 -3.929,-3.0734 0,-2.98325 0.0548,-3.01201 5.73843,-3.01201 h 4.58032 v 0.65355 0.65355 l -3.37344,0.0741 -3.37343,0.074 -0.0807,0.83013 -0.0807,0.83013 2.90091,0.0993 c 3.8342,0.13124 4.00734,0.27336 4.00734,3.28934 0,2.0494 -0.0444,2.22366 -0.69714,2.73712 -0.64011,0.50351 -1.04774,0.54837 -4.98299,0.54837 -2.35721,0 -4.36522,-0.0794 -4.46223,-0.17639 z M 4.0212285,70.084184 c -0.684314,-0.684316 -0.697538,-0.76481 -0.697538,-4.245967 0,-3.49735 0.01008,-3.55777 0.700093,-4.197255 0.677807,-0.628169 0.825209,-0.648825 4.630209,-0.648825 h 3.9301145 v 0.661459 c 0,0.651811 -0.03183,0.661511 -2.182813,0.66507 -3.5874535,0.0059 -3.3734365,-0.219872 -3.3734365,3.559349 v 3.236662 l 2.699352,0.1769 c 2.6479925,0.173532 3.2205565,0.394925 2.9364015,1.135422 -0.105297,0.274402 -1.020219,0.354722 -4.0404815,0.354722 -3.86573,0 -3.911265,-0.007 -4.601901,-0.697537 z M 17.782907,69.801212 c -0.09124,-0.552127 -0.167204,-1.515626 -0.168805,-2.141111 -0.0026,-1.003943 -0.235511,-1.444385 -1.987287,-3.757547 -1.091406,-1.441164 -1.984375,-2.685576 -1.984375,-2.765359 0,-0.07978 0.864428,-0.145058 1.920951,-0.145058 h 1.92095 l 1.412457,1.852084 c 0.77685,1.018646 1.506355,1.852083 1.621122,1.852083 0.114766,0 0.882052,-0.833437 1.70508,-1.852083 1.242726,-1.538097 1.629046,-1.852084 2.278761,-1.852084 0.43029,0 0.781358,0.0893 0.780151,0.198438 -0.0012,0.10914 -0.889306,1.389062 -1.973554,2.844271 l -1.971359,2.645833 -0.07697,1.984375 -0.07697,1.984377 -1.617132,0.0778 -1.617132,0.0778 z m 8.997263,0.0088 c -0.21749,-1.316297 -0.22052,-6.017155 -0.0049,-7.590333 l 0.168255,-1.227553 h 4.808938 c 4.473844,0 4.849288,0.03759 5.387996,0.539475 0.770276,0.717622 0.852794,3.512405 0.116035,3.930013 -0.436755,0.247562 -0.434715,0.283368 0.03596,0.631211 0.777595,0.574654 0.744056,3.166377 -0.05128,3.962432 -0.564915,0.56543 -0.828149,0.598354 -5.443659,0.680794 l -4.850038,0.0866 z m 7.632062,-1.938719 v -1.190625 l -2.03649,-0.07702 -2.036493,-0.07702 -0.175392,0.934927 c -0.304425,1.622713 -0.118658,1.764776 2.193848,1.677718 l 2.054527,-0.07735 z M 34.264615,64.84705 c 0.172728,-0.208126 0.276604,-0.833205 0.230836,-1.389062 l -0.08322,-1.010653 h -2.113042 c -2.350011,0 -2.466031,0.102187 -2.132791,1.878504 l 0.16877,0.899621 h 1.807697 c 1.244859,0 1.905479,-0.117819 2.12175,-0.37841 z m 5.218798,5.75827 c -0.09702,-0.09701 -0.17639,-2.302417 -0.17639,-4.900896 v -4.724508 l 4.696358,0.07225 c 4.49588,0.06916 4.69635,0.09484 4.69635,0.601417 0,0.489077 -0.22048,0.539189 -2.91042,0.661458 l -2.91041,0.132292 v 1.322916 1.322917 l 2.64583,0.132292 c 2.42535,0.121266 2.64583,0.17639 2.64583,0.661458 0,0.489844 -0.20152,0.534771 -2.71197,0.604568 l -2.71198,0.0754 v 1.285352 c 0,0.927999 0.11635,1.330004 0.41851,1.445953 0.23018,0.08833 1.5994,0.160599 3.04271,0.160599 2.39837,0 2.62419,0.0431 2.62419,0.500859 0,0.275474 -0.18833,0.57313 -0.41851,0.661459 -0.57086,0.219065 -8.709639,0.204675 -8.930098,-0.0158 z m 10.671528,-4.721801 v -4.923454 l 5.05098,0.08218 c 4.94242,0.08041 5.06184,0.09561 5.55625,0.706805 0.36005,0.445098 0.50527,1.041961 0.50527,2.076659 0,1.286711 -0.0946,1.540431 -0.83109,2.22839 l -0.83109,0.776354 0.81718,1.758817 c 0.44945,0.967351 0.75689,1.856386 0.68319,1.975634 -0.0737,0.119247 -0.83924,0.216817 -1.7012,0.216817 h -1.56719 l -0.96755,-2.116669 -0.96756,-2.116666 h -1.14267 -1.14268 l -0.0773,2.05052 -0.0773,2.050525 -1.65364,0.0788 -1.65365,0.0788 z m 6.84609,-0.823413 c 0.74606,-0.149212 0.82683,-0.26035 0.82683,-1.137708 0,-1.368094 -0.36232,-1.607344 -2.43417,-1.607344 h -1.79917 v 1.278819 c 0,0.703352 0.0794,1.358196 0.17639,1.455208 0.22249,0.222491 2.14007,0.229037 3.23012,0.01103 z m 5.70666,5.38117 c -0.0718,-0.187245 -0.0979,-2.360136 -0.0578,-4.828646 l 0.0728,-4.488201 4.92458,-0.07185 c 6.45599,-0.09419 6.15504,-0.300739 6.2762,4.307308 0.10535,4.006527 0.007,4.4967 -1.00502,5.020146 -1.04666,0.541248 -10.0059,0.594988 -10.21072,0.06124 z m 7.30839,-1.256363 c 0.46015,-0.246266 0.51178,-0.578943 0.51178,-3.297984 0,-3.559289 -0.066,-3.644728 -2.71789,-3.518202 l -1.64774,0.07862 -0.0747,3.286419 c -0.0557,2.451417 0.0115,3.34111 0.26459,3.501678 0.48661,0.308774 3.05884,0.273299 3.66392,-0.05053 z m 9.15483,1.420418 c -0.097,-0.09701 -0.17639,-1.042397 -0.17639,-2.100852 0,-1.909276 -0.0108,-1.938679 -1.36848,-3.726215 -0.75267,-0.990962 -1.64564,-2.13831 -1.98438,-2.549657 -0.33874,-0.411345 -0.61589,-0.863047 -0.61589,-1.003777 0,-0.148325 0.80275,-0.223199 1.90985,-0.178138 l 1.90985,0.07774 1.3313,1.771489 c 0.73221,0.97432 1.47284,1.777992 1.64584,1.785937 0.173,0.0079 0.9469,-0.815017 1.71979,-1.828805 1.22471,-1.606452 1.51572,-1.844389 2.26514,-1.852084 0.47295,-0.0049 0.8599,0.05645 0.8599,0.136229 0,0.07978 -0.89297,1.324195 -1.98438,2.765359 l -1.98437,2.620301 v 1.710918 c 0,2.468085 -0.0576,2.547945 -1.83629,2.547945 -0.83331,0 -1.59448,-0.0794 -1.69149,-0.176387 z m 8.93678,-0.164055 c -0.0719,-0.187245 -0.0979,-2.360136 -0.0578,-4.828646 l 0.0728,-4.488201 1.80975,-0.07878 c 1.19832,-0.05216 1.94977,0.03723 2.22417,0.264583 0.22793,0.188849 1.48779,1.764536 2.7997,3.501525 2.7854,3.687938 2.77681,3.690573 2.80507,-0.860634 l 0.0186,-2.994136 0.72761,0.08372 0.7276,0.08372 v 4.7625 4.762504 l -1.91172,0.0776 -1.91172,0.0776 -2.71849,-3.649487 -2.71848,-3.64948 -0.23136,3.638021 c -0.2291,3.602596 -0.23755,3.638016 -0.8682,3.638016 -0.35026,0 -0.69563,-0.153194 -0.76748,-0.34044 z m 12.964589,0 c -0.0719,-0.187245 -0.0979,-2.360136 -0.0579,-4.828646 l 0.0728,-4.488201 4.69636,-0.07225 4.69635,-0.07225 v 0.633523 c 0,0.61866 -0.0686,0.637972 -2.92397,0.823035 l -2.92396,0.18951 0.0797,1.233593 0.0797,1.233591 2.59681,0.07593 c 2.5099,0.07339 2.59402,0.09553 2.51354,0.661458 -0.0786,0.552453 -0.22898,0.589804 -2.66295,0.661252 l -2.57969,0.07573 v 1.313336 1.313336 l 1.12448,0.0019 c 0.61846,0.0011 1.92815,0.07778 2.91041,0.17055 1.65164,0.155988 1.78594,0.215538 1.78594,0.791869 v 0.623199 h -4.63851 c -3.53733,0 -4.66953,-0.0808 -4.76915,-0.340444 z M 4.8116325,57.870102 C 4.6534075,57.614088 40.730299,20.907761 41.140147,20.907761 c 0.158482,0 3.561334,3.970414 7.561894,8.823142 l 7.27373,8.823141 v 9.591926 9.591927 l -2.42189,0.171913 C 50.050841,58.158463 4.9671495,58.121733 4.8116325,57.8701 Z M 58.145361,57.764221 c -0.23526,-0.235257 -0.31603,-2.753961 -0.31182,-9.723438 l 0.006,-9.405938 6.8862,-8.334375 c 3.78741,-4.583907 7.1569,-8.608091 7.48775,-8.942632 l 0.60155,-0.608256 8.44728,8.545757 c 4.646,4.700167 12.83557,12.971899 18.19903,18.381634 5.478249,5.5255 9.674719,9.960523 9.575959,10.120313 -0.2662,0.430723 -50.460459,0.398113 -50.891639,-0.03307 z m -4.36591,-24.735072 c -1.66218,-2.010096 -4.87923,-5.906787 -7.14899,-8.659312 l -4.12684,-5.004591 5.78892,-5.975618 c 3.1839,-3.28659 6.43165,-6.6050476 7.21721,-7.3743506 l 1.42829,-1.398732 6.98576,7.0263636 c 3.84216,3.8645 7.07843,7.19196 7.19169,7.394355 0.1346,0.240521 -0.14729,0.811524 -0.81378,1.648411 -3.03892,3.815839 -13.06482,15.844542 -13.26541,15.915349 -0.12908,0.04557 -1.59467,-1.561777 -3.25685,-3.571875 z"
       style="fill:#000000;stroke-width:0.264583" />
  </g>
</svg>
