<?xml version="1.0" encoding="UTF-8" standalone="no"?>
<svg
   xmlns:dc="http://purl.org/dc/elements/1.1/"
   xmlns:cc="http://creativecommons.org/ns#"
   xmlns:rdf="http://www.w3.org/1999/02/22-rdf-syntax-ns#"
   xmlns:svg="http://www.w3.org/2000/svg"
   xmlns="http://www.w3.org/2000/svg"
   xmlns:sodipodi="http://sodipodi.sourceforge.net/DTD/sodipodi-0.dtd"
   xmlns:inkscape="http://www.inkscape.org/namespaces/inkscape"
   inkscape:version="1.0 (1.0+r73+1)"
   inkscape:export-ydpi="96"
   inkscape:export-xdpi="96"
   inkscape:export-filename="/home/bishma/Pictures/making/EvilCorp Coasters/to trace/deep 13.jpg.png"
   sodipodi:docname="deep13.svg"
   id="svg287"
   xml:space="preserve"
   style="enable-background:new 0 0 610.09 531.39;"
   viewBox="0 0 610.09 531.39"
   y="0px"
   x="0px"
   version="1.1"><metadata
   id="metadata293"><rdf:RDF><cc:Work
       rdf:about=""><dc:format>image/svg+xml</dc:format><dc:type
         rdf:resource="http://purl.org/dc/dcmitype/StillImage" /><dc:title></dc:title></cc:Work></rdf:RDF></metadata><defs
   id="defs291" /><sodipodi:namedview
   inkscape:current-layer="svg287"
   inkscape:window-maximized="1"
   inkscape:window-y="27"
   inkscape:window-x="0"
   inkscape:cy="216.37807"
   inkscape:cx="305.04501"
   inkscape:zoom="1.6221607"
   showgrid="false"
   id="namedview289"
   inkscape:window-height="1016"
   inkscape:window-width="1920"
   inkscape:pageshadow="2"
   inkscape:pageopacity="0"
   guidetolerance="10"
   gridtolerance="10"
   objecttolerance="10"
   borderopacity="1"
   bordercolor="#666666"
   pagecolor="#ffffff" />
<style
   id="style255"
   type="text/css">
	.st0{fill:none;stroke:#000000;stroke-width:14.8346;stroke-miterlimit:10;}
</style>


<path
   id="path361"
   d="M 169.27853,474.62632 41.278519,427.2836 l -0.70231,-3.35779 c -0.38628,-1.84678 -2.31234,-82.33278 -4.28013,-178.85778 -1.9678,-96.525 -3.85671,-183.262498 -4.19758,-192.749998 l -0.61976,-17.25 H 301.74018 572.00161 l -0.64276,12.75 c -0.35352,7.0125 -3.58514,95.768928 -7.18138,197.236498 -3.59623,101.46758 -6.6335,184.5814 -6.74948,184.69737 -0.24853,0.24854 -259.73429,92.33931 -259.98127,92.26664 -0.0925,-0.0272 -57.76819,-21.35372 -128.16819,-47.39222 z m 252.94635,-11.71765 c 66.52049,-23.59501 121.10977,-43.06343 121.30951,-43.26316 0.37898,-0.37899 13.19435,-353.394092 13.22603,-364.327478 l 0.0181,-6.25 H 301.83755 c -140.21754,0 -255.107611,0.3375 -255.311251,0.75 -0.37865,0.76699 7.3811,366.509098 7.78742,367.046318 0.12326,0.16298 54.840771,20.49942 121.594461,45.1921 76.5899,28.33116 122.10826,44.68481 123.37035,44.324 1.1,-0.31448 56.42586,-19.87678 122.94635,-43.47178 z m -153.94635,-44.08587 -29,-48.02526 -0.26877,22.63525 -0.26878,22.63524 h -18.82566 c -10.35412,0 -23.62067,0.29338 -29.48123,0.65197 l -10.65556,0.65196 V 344.1978 271.02364 l -4.04388,-8.04288 -4.04387,-8.04287 -3.70613,3.23513 c -2.03836,1.77932 -10.98714,9.94273 -19.88616,18.14091 -8.89902,8.19818 -16.47893,14.91717 -16.84425,14.93107 -0.88186,0.0336 -33.475721,-30.36429 -33.475721,-31.2203 0,-0.36596 10.125011,-11.03754 22.500011,-23.71462 12.375,-12.67708 22.5,-23.51217 22.5,-24.07798 0,-0.5658 -19.84886,-32.36033 -44.108571,-70.6545 -24.25972,-38.29417 -43.90882,-69.825519 -43.66467,-70.069666 0.24415,-0.244146 111.375691,-0.330502 246.958991,-0.191902 l 246.51508,0.252 -44.39665,69.897988 c -42.52329,66.94857 -44.35251,70.02462 -43.35042,72.89922 0.6366,1.82615 1.04624,14.52028 1.04624,32.42153 v 29.4203 l -3.03579,7.29229 c -3.72255,8.94196 -8.57539,14.79582 -14.09736,17.00527 l -4.17884,1.67204 4.92014,3.31341 c 10.00969,6.74092 16.2925,16.2637 18.45764,27.97603 0.62503,3.38109 0.92613,16.71681 0.7427,32.89419 l -0.30849,27.20773 -2.70084,5.11974 c -2.89632,5.49031 -6.88989,9.36844 -12.68269,12.31609 -8.52917,4.34004 -9.5952,4.4214 -65.55745,5.00329 l -53.94098,0.56088 -15.74425,24.8519 c -8.65934,13.66855 -15.8859,24.98155 -16.05902,25.14002 -0.17313,0.15846 -13.36477,-21.32326 -29.31477,-47.73715 z m 37.76498,7.03616 7.76499,-12.20896 -3.76499,-1.11219 c -11.72733,-3.4643 -22.53176,-12.01332 -26.32419,-20.82906 -2.26265,-5.25967 -2.18923,-4.30431 -3.33479,-43.39072 l -0.41765,-14.25 8.15583,0.003 c 4.4857,0.002 16.54268,0.29594 26.79328,0.65419 l 18.63747,0.65137 0.43418,9.09581 c 0.47284,9.90568 3.06806,17.62866 7.2414,21.54931 l 2.28888,2.15029 14.6303,-23.58033 c 8.04667,-12.96936 14.63031,-23.79271 14.63031,-24.05207 0,-0.25936 -6.075,-0.47157 -13.5,-0.47157 h -13.5 v -20.39394 -20.39394 l 19.25,-0.39362 c 16.74569,-0.34242 19.83688,-0.6604 23.76122,-2.44421 17.86224,-8.11931 19.99805,-32.0143 3.53015,-39.49463 -3.30197,-1.49987 -6.60278,-1.8369 -18.04137,-1.84208 -21.49897,-0.01 -30.08772,2.73545 -34.25,10.94719 -1.89989,3.74827 -2.25,6.0399 -2.25,14.72712 v 10.28811 l -25.5,0.19444 c -14.025,0.10695 -26.95621,0.21945 -28.73602,0.25 l -3.23603,0.0556 0.33315,-15.29102 c 0.63322,-29.06425 1.40777,-36.05353 4.79256,-43.24643 4.29137,-9.11946 10.98353,-16.14242 19.38915,-20.34758 11.2149,-5.61058 12.99951,-5.7557 66.1224,-5.37688 46.67418,0.33283 48.60964,0.4226 56.33479,2.61295 4.4,1.24756 11.34375,3.9102 15.43055,5.91698 4.0868,2.00679 7.59357,3.21744 7.79283,2.69034 0.19926,-0.52714 16.25418,-25.9334 35.67759,-56.4584 l 35.3153,-55.500002 -219.52256,-0.25224 c -120.73741,-0.13873 -219.726911,-0.0479 -219.976661,0.20185 -0.3521,0.35211 35.507561,57.572362 68.572551,109.419292 l 3.42397,5.3689 7.16673,-7.1189 7.16673,-7.1189 h 35.22649 35.22648 l 0.0137,77.25 0.0136,77.25 29.16527,48.25 c 16.0409,26.5375 29.42226,48.24998 29.73636,48.24995 0.31409,-3e-5 4.06532,-5.49409 8.33606,-12.20902 z M 146.77853,136.1406 V 93.068028 h 27.80366 27.80365 l 5.19398,2.58827 c 13.8727,6.913062 20.27814,23.006982 18.28637,45.945252 -1.47474,16.98384 -8.12334,28.39009 -19.92712,34.1867 l -5.66054,2.77978 -26.75,0.32257 -26.75,0.32257 z m 49.02818,14.34298 c 4.58442,-2.67744 7.05608,-7.25322 7.68916,-14.23492 1.01255,-11.16656 -4.66904,-16.62664 -18.7795,-18.04734 -4.64081,-0.46726 -8.77534,-0.66185 -9.18784,-0.43241 -0.4125,0.22944 -0.75,8.32064 -0.75,17.98046 v 17.5633 l 8.81356,-0.42138 c 6.40617,-0.30629 9.74255,-0.96394 12.21462,-2.40771 z m 42.97182,-14.41555 V 93.068028 h 34 34 v 12.500002 12.5 h -21.06336 -21.06336 l 0.31336,3.25 0.31336,3.25 20.75,0.27029 20.75,0.27029 v 10.47971 10.47971 h -20 -20 v 4 4 h 20 20 v 12.5 12.5 h -34 -34 z m 80,0 V 93.068028 h 34 34 v 12.500002 12.5 h -21.06336 -21.06336 l 0.31336,3.25 0.31336,3.25 20.75,0.27029 20.75,0.27029 v 10.47971 10.47971 h -20 -20 v 4 4 h 20 20 v 12.5 12.5 h -34 -34 z m 76,-0.0571 V 92.953818 l 28.25,0.30712 c 27.19864,0.29568 28.44404,0.39485 33.46376,2.66467 10.86845,4.914472 17.28624,15.371172 17.28624,28.164992 0,11.23651 -3.90239,19.07197 -11.81535,23.72357 -4.45417,2.61837 -5.47183,2.77846 -20.68465,3.25386 l -16,0.5 -0.27822,13.75 -0.27822,13.75 h -14.97178 -14.97178 v -43.05712 z m 49.75,-5.93192 c 2.53446,-1.54531 3.25,-2.65979 3.25,-5.06202 0,-6.79509 -3.76651,-8.94896 -15.64922,-8.94896 h -7.35078 v 8 8 l 8.25,-0.004 c 6.4597,-0.003 8.95527,-0.43375 11.5,-1.9853 z m -223.75,170.48902 v -103.5 h -23.40852 -23.40853 l -31.59147,30.60826 c -17.37532,16.83454 -31.59148,30.90698 -31.59148,31.27208 0,0.3651 3.7125,4.335 8.25,8.82199 l 8.25,8.15818 29,-27.05605 29,-27.05605 0.25526,91.12579 0.25526,91.1258 h 17.49474 17.49474 z M 433.4848,401.56262 c 7.04097,-2.09094 12.32053,-6.29344 15.79373,-12.5717 l 3,-5.42289 0.30788,-28.37155 0.30789,-28.37154 -2.58767,-5.289 c -2.86277,-5.85129 -8.32168,-11.30163 -14.45156,-14.42886 -4.62453,-2.35926 -14.96962,-4.97701 -20.07654,-5.08022 -3.04794,-0.0616 -2.48282,-0.4379 4.37528,-2.91338 9.6242,-3.47392 14.95495,-7.10876 19.77134,-13.48132 6.51991,-8.62649 7.35338,-12.99755 7.35338,-38.56413 0,-25.69389 -0.83469,-29.69047 -7.87018,-37.6832 -8.81464,-10.01397 -12.84426,-10.6083 -68.30563,-10.0744 -40.7124,0.39192 -44.36874,0.57144 -51.49327,2.52813 -23.89171,6.56167 -30.83092,16.55787 -30.83092,44.41313 v 10.81634 h 17.8667 17.8667 l 1.12933,-8.74863 c 1.36462,-10.57128 5.08208,-18.72156 10.03515,-22.00137 3.31451,-2.19479 4.06288,-2.24986 30.5,-2.24442 15.47082,0.003 28.69031,0.44667 30.80277,1.03337 4.72866,1.31332 10.23105,7.64704 11.69537,13.46239 1.41601,5.62349 1.41844,18.88432 0.005,25.69944 -2.28154,10.99851 -7.6278,16.74874 -19.30855,20.76751 -4.86406,1.67338 -8.43531,2.03171 -20.24902,2.03171 h -14.34345 v 11.5 11.5 h 15.3185 c 10.75486,0 16.83442,0.45018 20.40691,1.5111 7.66957,2.27761 14.08088,7.18418 17.65587,13.51201 2.96393,5.24623 3.1057,6.03171 3.4677,19.21318 0.20758,7.55884 0.0761,15.34977 -0.29228,17.31319 -0.90702,4.83483 -6.45939,10.71151 -12.81506,13.56358 -5.00615,2.24647 -6.45468,2.36843 -32.24164,2.71453 -32.44704,0.4355 -35.83906,-0.0692 -41.00207,-6.10105 -4.21014,-4.9186 -6.0978,-10.71525 -7.05217,-21.65586 l -0.70401,-8.07068 H 302.2744 287.02853 l -0.625,3.125 c -1.1368,5.68402 -0.64919,20.36193 0.87024,26.1954 4.66388,17.90587 17.0688,28.39896 37.47763,31.70164 3.03992,0.49193 27.63109,0.68135 54.64705,0.42092 39.31484,-0.37898 50.1113,-0.76791 54.08635,-1.94837 z m -40.42894,-31.46645 c 5.25535,-1.58223 10.28277,-6.30942 12.28451,-11.55089 2.40824,-6.30589 1.69736,-25.64029 -1.11963,-30.45122 -2.60903,-4.45579 -6.45235,-7.16487 -10.44541,-7.36278 -3.25269,-0.16121 -3.47372,0.12426 -17.68173,22.83675 -7.91332,12.65 -15.08987,24.29906 -15.94789,25.88679 l -1.56002,2.8868 15.34642,-0.5541 c 8.44053,-0.30476 17.04622,-1.06587 19.12375,-1.69135 z"
   style="fill:#000000" /></svg>
