<?xml version="1.0" encoding="UTF-8" standalone="no"?>
<svg
   xmlns:dc="http://purl.org/dc/elements/1.1/"
   xmlns:cc="http://creativecommons.org/ns#"
   xmlns:rdf="http://www.w3.org/1999/02/22-rdf-syntax-ns#"
   xmlns:svg="http://www.w3.org/2000/svg"
   xmlns="http://www.w3.org/2000/svg"
   xmlns:sodipodi="http://sodipodi.sourceforge.net/DTD/sodipodi-0.dtd"
   xmlns:inkscape="http://www.inkscape.org/namespaces/inkscape"
   sodipodi:docname="hampton deville.svg"
   inkscape:version="1.0 (1.0+r73+1)"
   id="svg8"
   version="1.1"
   viewBox="0 0 88.247581 90.491684"
   height="90.491684mm"
   width="88.247581mm">
  <defs
     id="defs2" />
  <sodipodi:namedview
     inkscape:window-maximized="0"
     inkscape:window-y="27"
     inkscape:window-x="50"
     inkscape:window-height="1016"
     inkscape:window-width="1452"
     showgrid="false"
     inkscape:document-rotation="0"
     inkscape:current-layer="layer1"
     inkscape:document-units="mm"
     inkscape:cy="307.20608"
     inkscape:cx="314.85326"
     inkscape:zoom="0.35"
     inkscape:pageshadow="2"
     inkscape:pageopacity="0.0"
     borderopacity="1.0"
     bordercolor="#666666"
     pagecolor="#ffffff"
     id="base" />
  <metadata
     id="metadata5">
    <rdf:RDF>
      <cc:Work
         rdf:about="">
        <dc:format>image/svg+xml</dc:format>
        <dc:type
           rdf:resource="http://purl.org/dc/dcmitype/StillImage" />
        <dc:title></dc:title>
      </cc:Work>
    </rdf:RDF>
  </metadata>
  <g
     transform="translate(-22.528409,-66.885058)"
     id="layer1"
     inkscape:groupmode="layer"
     inkscape:label="Layer 1">
    <path
       id="path58"
       d="m 48.039615,157.10241 c -0.0855,-0.13836 -0.006,-0.25157 0.17652,-0.25157 0.21433,0 0.33199,-1.27215 0.33199,-3.58956 0,-3.02532 -0.0822,-3.63556 -0.52285,-3.88217 -0.42986,-0.24056 -0.33927,-0.33292 0.50939,-0.51932 0.68787,-0.15108 1.11048,-0.10015 1.26672,0.15265 0.1753,0.28365 0.3975,0.2921 0.88069,0.0335 1.59124,-0.85161 2.8819,0.16794 2.8819,2.27653 0,1.94048 -0.90485,3.02044 -2.53068,3.02044 -1.22742,0 -1.23121,0.004 -1.23121,1.25396 0,0.90564 0.13062,1.25396 0.47024,1.25396 0.25863,0 0.47023,0.12582 0.47023,0.27958 0,0.34548 -2.48804,0.3197 -2.70294,-0.028 z m 3.94588,-3.67935 c 0.45127,-0.84322 0.40553,-2.6114 -0.0849,-3.28212 -0.25168,-0.34418 -0.70463,-0.51825 -1.17559,-0.45178 -0.68965,0.0974 -0.77577,0.27661 -0.86234,1.79498 -0.0529,0.92775 -0.0221,1.87998 0.0685,2.11606 0.24825,0.64693 1.67932,0.52353 2.05431,-0.17714 z m -29.143596,0.60637 c 0,-0.17242 0.141071,-0.31349 0.313491,-0.31349 0.189994,0 0.313491,-1.35846 0.313491,-3.4484 0,-2.85624 -0.08075,-3.44839 -0.470236,-3.44839 -0.25863,0 -0.470236,-0.14107 -0.470236,-0.31349 0,-0.17242 0.705354,-0.31349 1.567453,-0.31349 0.862099,0 1.567452,0.14107 1.567452,0.31349 0,0.17242 -0.14107,0.31349 -0.31349,0.31349 -0.17242,0 -0.313491,0.63481 -0.313491,1.4107 v 1.41071 h 1.724198 1.724198 v -1.41071 c 0,-1.04496 -0.121913,-1.4107 -0.470235,-1.4107 -0.25863,0 -0.470236,-0.14107 -0.470236,-0.31349 0,-0.17242 0.705353,-0.31349 1.567452,-0.31349 0.862099,0 1.567453,0.14107 1.567453,0.31349 0,0.17242 -0.141071,0.31349 -0.31349,0.31349 -0.189995,0 -0.313491,1.35845 -0.313491,3.44839 0,2.85625 0.08075,3.4484 0.470236,3.4484 0.25863,0 0.470236,0.14107 0.470236,0.31349 0,0.17242 -0.705354,0.31349 -1.567453,0.31349 -0.862099,0 -1.567453,-0.14107 -1.567453,-0.31349 0,-0.17242 0.141071,-0.31349 0.313491,-0.31349 0.17242,0 0.31349,-0.77589 0.31349,-1.7242 v -1.7242 h -1.724198 -1.724198 v 1.7242 c 0,1.32363 0.109247,1.7242 0.470236,1.7242 0.25863,0 0.470236,0.14107 0.470236,0.31349 0,0.17242 -0.705354,0.31349 -1.567453,0.31349 -0.862099,0 -1.567453,-0.14107 -1.567453,-0.31349 z m 8.948498,-0.26933 c -0.301961,-0.95139 0.116343,-1.54291 1.598505,-2.26041 1.091789,-0.52853 1.378756,-0.82483 1.304322,-1.34674 -0.133668,-0.93726 -1.489652,-1.11338 -1.722308,-0.2237 -0.09521,0.36407 -0.426728,0.65178 -0.751024,0.65178 -0.82825,0 -0.422095,-0.85439 0.676126,-1.4223 0.945065,-0.48871 1.810951,-0.57752 2.616609,-0.26835 0.379812,0.14574 0.495876,0.65412 0.495876,2.17204 0,1.38514 0.148578,2.13033 0.493532,2.47528 0.44904,0.44905 0.4453,0.51204 -0.0415,0.69885 -0.294282,0.11292 -0.801759,0.0388 -1.12773,-0.16481 -0.416871,-0.26034 -0.7704,-0.27502 -1.191827,-0.0495 -0.969428,0.51883 -2.144264,0.38779 -2.350551,-0.26216 z m 2.964143,-1.4659 c 0,-0.93566 -0.633935,-1.00404 -1.405386,-0.1516 -0.45619,0.50409 -0.488673,0.70957 -0.172414,1.09063 0.554413,0.66803 1.5778,0.059 1.5778,-0.93903 z m 3.056535,1.8411 c 0.2601,-0.10495 0.39186,-0.88199 0.39186,-2.31085 0,-1.7195 -0.1104,-2.21704 -0.54861,-2.47227 -0.43239,-0.25184 -0.44899,-0.32246 -0.0784,-0.33335 0.25863,-0.008 0.78765,-0.0989 1.17559,-0.20284 0.52155,-0.13977 0.70535,-0.0551 0.70535,0.325 0,0.47584 0.0581,0.47599 0.78144,0.002 0.80974,-0.53056 2.35347,-0.40062 2.35347,0.1981 0,0.17499 0.412,0.10251 0.9249,-0.16272 0.5087,-0.26306 1.13552,-0.47829 1.39294,-0.47829 0.84361,0 1.44405,1.30643 1.44405,3.14197 0,0.96167 0.16928,1.91777 0.37618,2.12468 0.29259,0.29259 0.0697,0.37618 -1.00317,0.37618 -1.07283,0 -1.29576,-0.0836 -1.00317,-0.37618 0.41293,-0.41293 0.48666,-1.81455 0.17692,-3.36323 -0.17,-0.84997 -0.31971,-0.98241 -1.01885,-0.90129 -0.76645,0.0889 -0.82571,0.21362 -0.91437,1.92411 -0.0559,1.07875 0.0563,2.01106 0.2735,2.27281 0.30797,0.37108 0.14631,0.44378 -0.98674,0.44378 -1.05392,0 -1.27144,-0.0836 -0.97885,-0.37618 0.42849,-0.4285 0.50229,-3.32836 0.10082,-3.96174 -0.14618,-0.23061 -0.6025,-0.37168 -1.01405,-0.31349 -0.68033,0.0962 -0.757,0.27579 -0.84437,1.97799 -0.0767,1.49452 0.0144,1.95301 0.45179,2.27281 0.47074,0.34422 0.32981,0.39713 -1.00113,0.37586 -0.85195,-0.0136 -1.37266,-0.0959 -1.15713,-0.18286 z m 17.84284,-0.001 c -0.11495,-0.11507 -0.209,-1.23188 -0.209,-2.48192 0,-1.53926 -0.12644,-2.31496 -0.39175,-2.4034 -0.24551,-0.0818 -0.0407,-0.43416 0.5486,-0.94374 l 0.94037,-0.81315 0.0973,0.74155 c 0.0618,0.47049 0.34823,0.7903 0.78373,0.87492 l 0.68639,0.13338 -0.70535,0.0427 c -0.66024,0.04 -0.70536,0.18306 -0.70536,2.23712 0,2.19137 0.0939,2.36341 1.20705,2.21061 0.23283,-0.032 0.33031,0.0924 0.21662,0.27635 -0.22577,0.36531 -2.13191,0.46219 -2.46863,0.12546 z m 3.57564,-0.61701 c -1.30559,-1.65979 -0.4433,-4.22344 1.56923,-4.66547 2.84866,-0.62567 4.46155,2.58341 2.40551,4.78612 -0.98394,1.05412 -3.10122,0.98985 -3.97474,-0.12065 z m 3.23536,0.0166 c 0.43887,-1.14367 0.1915,-3.26479 -0.45629,-3.91258 -0.768,-0.768 -1.24912,-0.67178 -1.7893,0.35784 -0.40804,0.77774 -0.27297,2.46246 0.28029,3.49624 0.36851,0.68856 1.70822,0.72844 1.9653,0.0585 z m 2.949,0.43305 c 0.21337,-0.21337 0.37619,-1.23525 0.37619,-2.36102 0,-1.56815 -0.11036,-2.02718 -0.52569,-2.18655 -0.47037,-0.1805 -0.46213,-0.22663 0.0784,-0.43836 0.98466,-0.38574 1.70128,-0.31205 1.70128,0.17494 0,0.38352 0.1437,0.37319 0.90766,-0.0653 0.74456,-0.42732 1.05439,-0.45408 1.7242,-0.14889 0.76607,0.34904 0.81654,0.50713 0.81654,2.55762 0,1.75078 0.10914,2.24914 0.54861,2.50511 0.42559,0.24789 0.19715,0.3206 -1.01885,0.32427 -0.94331,0.003 -1.40494,-0.0984 -1.15934,-0.25413 0.28342,-0.17977 0.37921,-0.87278 0.31349,-2.26801 -0.0943,-2.00236 -0.0978,-2.00914 -1.03509,-2.00914 -0.92926,0 -0.94162,0.0223 -1.03657,1.87219 -0.0767,1.49452 0.0144,1.953 0.45178,2.2728 0.47214,0.34523 0.3359,0.40062 -0.98544,0.40062 -1.19259,0 -1.44973,-0.0836 -1.15714,-0.37619 z m 8.52694,0.10201 c 0,-0.19404 0.14107,-0.3528 0.31349,-0.3528 0.19,0 0.3135,-1.35846 0.3135,-3.4484 0,-2.85624 -0.0808,-3.44839 -0.47024,-3.44839 -0.25863,0 -0.47024,-0.14107 -0.47024,-0.31349 0,-0.42966 3.93426,-0.35522 5.45278,0.10316 3.02355,0.9127 3.5592,5.22525 0.8684,6.99161 -1.00477,0.65957 -6.00769,1.04956 -6.00769,0.46831 z m 5.11867,-0.99337 c 2.20748,-1.7364 0.74377,-6.25622 -2.02604,-6.25622 h -0.89819 v 3.44839 3.4484 h 1.05494 c 0.58771,0 1.41561,-0.2837 1.86929,-0.64057 z m 3.96546,0.40545 c -1.35179,-1.71485 -0.0196,-4.78073 2.07724,-4.78073 0.449,0 1.12194,0.36661 1.58245,0.8621 l 0.80123,0.8621 -1.90432,0.57311 -1.90432,0.5731 0.41096,0.99435 c 0.38273,0.92604 0.51376,0.99284 1.9076,0.9724 1.31387,-0.0192 1.42753,0.0286 0.93073,0.39186 -0.31125,0.2276 -1.16353,0.41381 -1.89395,0.41381 -1.07502,0 -1.4575,-0.16424 -2.00762,-0.8621 z m 2.44727,-2.85128 c 0.46654,-0.29602 0.21482,-1.17896 -0.4038,-1.41634 -0.44848,-0.1721 -0.87231,0.22993 -1.19414,1.13271 -0.14868,0.41708 -0.0288,0.54746 0.49994,0.54381 0.38254,-0.002 0.87663,-0.11972 1.098,-0.26018 z m 5.74464,3.02689 c -1.03296,-2.68836 -2.90414,-6.69676 -3.16707,-6.7844 -0.82178,-0.27393 -0.16778,-0.67986 1.09533,-0.67986 1.27159,0 1.91555,0.40644 1.08342,0.68382 -0.19286,0.0643 0.0448,0.94414 0.57858,2.14219 0.49822,1.1182 1.00824,2.31523 1.13336,2.66007 0.18512,0.51021 0.39029,0.24632 1.10156,-1.41683 1.30976,-3.06257 1.40093,-3.44227 0.82656,-3.44227 -0.27025,0 -0.49136,-0.14107 -0.49136,-0.31349 0,-0.17242 0.49375,-0.31349 1.09722,-0.31349 1.17526,0 1.34966,0.19433 0.67229,0.74916 -0.2337,0.19143 -1.02579,1.86625 -1.76018,3.72182 -0.7344,1.85556 -1.46041,3.4511 -1.61336,3.54563 -0.15295,0.0945 -0.40331,-0.15403 -0.55635,-0.55235 z m 4.58993,0.47887 c 0.26072,-0.1052 0.39186,-0.88707 0.39186,-2.33627 0,-1.74905 -0.10356,-2.21788 -0.52569,-2.37987 -0.47037,-0.1805 -0.46212,-0.22663 0.0784,-0.43836 1.57165,-0.61569 1.70128,-0.44719 1.70128,2.21164 0,2.04294 0.0989,2.54996 0.5486,2.81188 0.42345,0.24663 0.19101,0.31606 -1.01884,0.30432 -0.8621,-0.008 -1.39111,-0.0864 -1.17559,-0.17334 z m 3.46407,-0.16857 c 0.24833,-0.24832 0.37619,-1.58357 0.37619,-3.92847 0,-2.86839 -0.0905,-3.58702 -0.47024,-3.73273 -0.84589,-0.3246 -0.49381,-0.74035 0.62698,-0.74035 h 1.097215 v 4.0598 c 0,3.53576 0.0708,4.10105 0.54861,4.37934 0.42664,0.24849 0.20361,0.32165 -1.00317,0.32907 -1.206935,0.007 -1.468175,-0.0741 -1.175585,-0.36666 z m 3.448395,0 c 0.58884,-0.58885 0.50961,-6.96938 -0.0941,-7.57303 -0.69231,-0.69231 -0.58924,-0.82852 0.62698,-0.82852 h 1.09722 v 4.0598 c 0,3.53576 0.0708,4.10105 0.54861,4.37934 0.42663,0.24849 0.2036,0.32165 -1.00317,0.32907 -1.20694,0.007 -1.46818,-0.0741 -1.17559,-0.36666 z m 3.50399,-0.48591 c -1.35154,-1.71452 -0.0197,-4.78073 2.07652,-4.78073 0.43124,0 1.15989,0.3803 1.62834,0.84987 l 0.84785,0.84987 -1.72419,0.52019 c -1.82712,0.55124 -2.17287,1.03772 -1.5563,2.18979 0.31616,0.59074 0.55602,0.65907 1.81527,0.51714 1.30212,-0.14677 1.38928,-0.11843 0.84958,0.27621 -0.33077,0.24187 -1.19902,0.43976 -1.92944,0.43976 -1.07503,0 -1.45751,-0.16424 -2.00763,-0.8621 z m 2.44727,-2.85128 c 0.46654,-0.29602 0.21482,-1.17896 -0.4038,-1.41634 -0.44848,-0.1721 -0.87231,0.22993 -1.19414,1.13271 -0.14868,0.41708 -0.0288,0.54746 0.49994,0.54381 0.38254,-0.002 0.87664,-0.11972 1.098,-0.26018 z m -12.368615,-3.36652 c -0.22463,-0.5854 0.33262,-1.22597 0.80991,-0.93099 0.49774,0.30762 0.41626,1.01806 -0.1413,1.23202 -0.27937,0.1072 -0.56053,-0.0194 -0.66861,-0.30103 z m -62.096003,-4.74326 c -6.422638,-0.0534 -11.677523,-0.17432 -11.677523,-0.26869 0,-0.0944 1.996988,-3.61942 4.43775,-7.83345 l 4.437751,-7.66187 24.325005,0.0123 24.32501,0.0123 4.46724,7.77924 c 2.45698,4.27858 4.46724,7.84794 4.46724,7.93191 0,0.16606 -35.9758,0.18453 -54.782473,0.0282 z m 57.429253,-0.95417 c -0.35468,-0.64515 -5.70134,-9.91485 -11.88148,-20.59933 -6.18013,-10.68448 -11.30029,-19.66989 -11.37814,-19.96758 -0.0819,-0.31317 1.47631,-3.355761 3.69779,-7.220371 5.15399,-8.96619 5.04888,-8.79822 5.32188,-8.50463 0.20754,0.22318 6.83715,11.68526 27.347455,47.281651 2.58301,4.48291 4.97343,8.60923 5.31204,9.16959 l 0.61566,1.01885 -9.19517,-0.003 -9.195165,-0.003 -0.64487,-1.173 z M 33.187088,124.12187 c 0,-0.0693 2.133504,-3.77239 4.741117,-8.22913 2.60762,-4.45674 9.61186,-16.426341 15.56499,-26.599111 5.95312,-10.17277 11.33163,-19.374932 11.95225,-20.449253 0.62061,-1.074321 1.20508,-1.956013 1.29882,-1.959316 0.0937,-0.0033 2.1739,3.51284 4.6226,7.813651 l 4.45216,7.819658 -12.14637,20.854741 -12.14637,20.85474 -9.1696,0.01 c -5.04328,0.005 -9.169597,-0.0467 -9.169597,-0.11598 z"
       style="fill:#000000;stroke-width:0.313491" />
  </g>
</svg>
