<?xml version="1.0" encoding="UTF-8" standalone="no"?>
<svg
   xmlns:dc="http://purl.org/dc/elements/1.1/"
   xmlns:cc="http://creativecommons.org/ns#"
   xmlns:rdf="http://www.w3.org/1999/02/22-rdf-syntax-ns#"
   xmlns:svg="http://www.w3.org/2000/svg"
   xmlns="http://www.w3.org/2000/svg"
   xmlns:sodipodi="http://sodipodi.sourceforge.net/DTD/sodipodi-0.dtd"
   xmlns:inkscape="http://www.inkscape.org/namespaces/inkscape"
   inkscape:version="1.0 (1.0+r73+1)"
   inkscape:export-ydpi="96"
   inkscape:export-xdpi="96"
   inkscape:export-filename="/home/bishma/Pictures/making/EvilCorp Coasters/to trace/momcorp2.png"
   sodipodi:docname="momcorp.svg"
   id="svg8"
   version="1.1"
   viewBox="0 0 176.3219 121.53782"
   height="121.53782mm"
   width="176.3219mm">
  <defs
     id="defs2" />
  <sodipodi:namedview
     inkscape:window-maximized="0"
     inkscape:window-y="27"
     inkscape:window-x="50"
     inkscape:window-height="1016"
     inkscape:window-width="1452"
     showgrid="false"
     inkscape:document-rotation="0"
     inkscape:current-layer="layer1"
     inkscape:document-units="mm"
     inkscape:cy="490.2685"
     inkscape:cx="327.45786"
     inkscape:zoom="0.35"
     inkscape:pageshadow="2"
     inkscape:pageopacity="0.0"
     borderopacity="1.0"
     bordercolor="#666666"
     pagecolor="#ffffff"
     id="base" />
  <metadata
     id="metadata5">
    <rdf:RDF>
      <cc:Work
         rdf:about="">
        <dc:format>image/svg+xml</dc:format>
        <dc:type
           rdf:resource="http://purl.org/dc/dcmitype/StillImage" />
        <dc:title></dc:title>
      </cc:Work>
    </rdf:RDF>
  </metadata>
  <g
     transform="translate(-19.19344,-48.687887)"
     id="layer1"
     inkscape:groupmode="layer"
     inkscape:label="Layer 1">
    <path
       id="path366"
       d="m 177.24697,169.98496 c -0.33058,-0.15932 -0.68777,-0.59775 -0.79375,-0.97428 -0.10597,-0.37654 -0.19268,-6.36655 -0.19268,-13.31114 v -12.62653 l 0.58061,-0.58059 c 1.17464,-1.17459 3.27905,-0.55387 3.84246,1.13337 l 0.33943,1.01648 1.5875,-1.06241 c 3.70708,-2.4809 7.3858,-2.33324 10.43192,0.41875 1.45003,1.31001 2.28491,2.77585 2.78181,4.88416 1.03083,4.37372 -0.04,8.95751 -2.65587,11.36874 -3.14064,2.89494 -7.30982,3.10006 -10.72901,0.52785 l -1.41635,-1.06549 -0.29452,4.83526 c -0.16199,2.6594 -0.31082,4.86198 -0.33073,4.89462 -0.0199,0.0326 -0.38749,0.24101 -0.81682,0.46303 -0.90069,0.46576 -1.48889,0.48546 -2.334,0.0782 z m 10.76139,-11.69954 c 1.1239,-0.5812 2.34931,-2.12282 2.68946,-3.38348 0.49476,-1.83369 0.20833,-5.41661 -0.53938,-6.74698 -1.28948,-2.29433 -3.78366,-3.09985 -6.03709,-1.94975 -1.99958,1.02054 -2.75309,2.57864 -2.76755,5.72267 -0.0152,3.31109 0.80597,5.22152 2.66709,6.20464 1.16066,0.61311 2.96381,0.68225 3.98747,0.1529 z m -165.999899,4.09952 c -1.740003,-0.70406 -2.076811,-2.74097 -1.926971,-11.65366 0.122507,-7.2869 0.289922,-8.10796 1.778985,-8.72475 0.750896,-0.31103 0.92091,-0.29224 1.553899,0.17175 0.390915,0.28654 0.881068,0.89944 1.089231,1.36199 0.458366,1.01853 0.708512,1.03963 1.885223,0.15904 1.843545,-1.37961 2.940901,-1.7946 4.747757,-1.79549 1.896778,-0.001 2.861575,0.38066 4.674737,1.84895 0.606574,0.4912 1.209377,0.89309 1.339561,0.89309 0.130185,0 0.570629,-0.34854 0.978765,-0.77455 1.684964,-1.75872 5.359695,-2.4641 7.718032,-1.48151 1.40485,0.58532 2.976554,2.17638 3.26736,3.30759 0.334584,1.30151 0.648137,11.23655 0.421437,13.35344 -0.138809,1.29618 -0.357659,1.94836 -0.85026,2.53378 -1.100878,1.30832 -2.913407,0.93539 -3.795254,-0.78088 -0.218807,-0.42584 -0.396273,-2.80116 -0.525212,-7.02974 -0.120453,-3.95031 -0.311304,-6.60438 -0.500309,-6.95754 -0.430849,-0.80505 -1.129329,-1.11226 -2.52889,-1.11226 -1.000294,0 -1.376991,0.1513 -2.15736,0.86645 -1.383702,1.26807 -1.701234,2.78165 -1.871967,8.92314 -0.15213,5.47228 -0.255771,5.92946 -1.534057,6.76703 -0.963389,0.63123 -2.373355,0.11113 -2.781103,-1.02588 -0.166935,-0.4655 -0.416711,-3.4062 -0.555059,-6.5349 -0.328817,-7.43612 -0.38132,-7.8005 -1.218925,-8.45936 -0.818443,-0.64378 -2.665221,-0.719 -3.759511,-0.15312 -1.619442,0.83744 -2.139867,2.82357 -2.148138,8.19805 -0.007,4.58075 -0.319804,6.6868 -1.105654,7.44534 -0.741398,0.71563 -1.491792,0.93907 -2.196317,0.654 z m 39.325479,-0.0325 c -4.016661,-0.78938 -6.779665,-3.89413 -7.458482,-8.381 -0.709708,-4.69107 1.191927,-9.04642 4.82977,-11.06172 1.371597,-0.75985 1.489718,-0.77737 5.239689,-0.77737 3.7582,0 3.865361,0.016 5.25341,0.78483 1.635736,0.90602 3.189981,2.56392 4.060775,4.33159 0.546184,1.10873 0.607689,1.60849 0.607689,4.93775 0,3.34865 -0.0594,3.82478 -0.618918,4.96094 -2.015951,4.0936 -6.841588,6.20183 -11.913933,5.20498 z m 5.53295,-4.61417 c 1.28945,-1.22518 1.908876,-2.67163 2.046542,-4.77901 0.323395,-4.95043 -2.557383,-8.26051 -6.309794,-7.25009 -2.274882,0.61256 -3.685804,3.07306 -3.685804,6.42764 0,2.56977 0.436165,3.79143 1.893432,5.30332 l 1.241962,1.28852 1.991503,-0.10057 c 1.779185,-0.0899 2.080061,-0.18471 2.822159,-0.88981 z m 13.085318,4.65486 c -0.291042,-0.12226 -0.767292,-0.48678 -1.058334,-0.81007 -0.501718,-0.5573 -0.533151,-1.01858 -0.605988,-8.89299 -0.08588,-9.28377 0.02011,-10.17335 1.273982,-10.69272 1.199779,-0.49696 2.685997,0.12535 3.024743,1.26654 0.312896,1.0541 0.619418,1.06365 2.054214,0.064 1.473959,-1.02694 4.118911,-1.70056 5.729094,-1.4591 1.551959,0.23273 2.562791,0.74515 3.791455,1.92202 l 0.980001,0.93869 1.054716,-0.95288 c 1.73967,-1.57168 2.558079,-1.88586 4.852779,-1.8629 2.78212,0.0278 4.64773,0.90797 5.69275,2.68567 l 0.72725,1.23714 0.0812,7.01145 c 0.0906,7.81918 -0.0568,8.85568 -1.34743,9.47425 -0.95126,0.45592 -2.06913,0.2043 -2.86777,-0.6455 -0.61297,-0.65224 -0.63268,-0.82064 -0.79604,-6.7993 -0.17806,-6.51725 -0.42499,-8.11581 -1.35416,-8.76663 -1.393831,-0.97628 -3.993783,-0.15131 -4.777293,1.51583 -0.55684,1.18484 -0.705832,2.48371 -0.940885,8.20236 -0.17898,4.35439 -0.268997,5.05231 -0.731557,5.67186 -0.290108,0.38856 -0.836562,0.80951 -1.214345,0.93544 -0.938673,0.31289 -2.515446,-0.36663 -2.841656,-1.22463 -0.137541,-0.36176 -0.325766,-3.43338 -0.418278,-6.82581 -0.177958,-6.52595 -0.348191,-7.64563 -1.259482,-8.28392 -1.362062,-0.95402 -4.105098,-0.11452 -4.878324,1.493 -0.198131,0.41191 -0.433096,2.96548 -0.595559,6.47241 -0.147576,3.18566 -0.333306,6.17996 -0.412734,6.654 -0.213079,1.27173 -1.940642,2.18501 -3.162389,1.6718 z m 40.031472,-0.0664 c -2.9193,-0.3794 -5.8053,-2.45754 -7.08551,-5.1021 -0.56753,-1.17237 -0.62805,-1.64574 -0.62484,-4.88789 0.003,-3.34735 0.0517,-3.69096 0.71645,-5.08754 1.44019,-3.02577 3.94079,-4.78313 7.55574,-5.31001 3.92283,-0.57176 7.53232,0.64444 9.46825,3.19029 1.55189,2.04081 0.98058,4.54349 -1.03719,4.54349 -0.56808,0 -1.26405,-0.48092 -2.87169,-1.98437 l -2.1219,-1.98438 h -1.6565 c -1.42825,0 -1.80682,0.11056 -2.74751,0.80235 -1.37292,1.00965 -2.21304,2.71637 -2.38371,4.84252 -0.35958,4.47967 1.61006,7.31972 5.07642,7.31972 1.92444,0 3.11606,-0.63901 4.48936,-2.40743 1.83958,-2.36885 3.44791,-2.70564 4.30796,-0.90209 0.36687,0.76932 0.38429,1.07554 0.11277,1.98181 -1.05954,3.53641 -5.86993,5.6781 -11.1981,4.98563 z m 22.75166,0.009 c -0.83084,-0.11315 -1.97281,-0.44152 -2.53772,-0.72972 -2.16895,-1.10651 -4.51203,-4.27388 -5.10852,-6.90568 -0.31088,-1.37168 0.16087,-5.46315 0.83744,-7.26303 1.53166,-4.07466 5.85068,-6.18148 11.13556,-5.43195 4.1273,0.58536 6.49476,2.5742 7.70988,6.4769 0.96523,3.10007 0.78454,5.87333 -0.56673,8.69846 -1.63726,3.42305 -4.09717,4.96687 -8.3718,5.25409 -0.87312,0.0587 -2.26727,0.0141 -3.09811,-0.0991 z m 3.8175,-3.67867 c 2.29154,-0.63642 3.64624,-2.97718 3.64624,-6.30025 0,-4.26224 -2.04387,-6.90894 -5.34059,-6.91579 -2.75612,-0.006 -4.77972,2.7323 -4.77972,6.46718 0,4.99424 2.69105,7.79951 6.47407,6.74886 z m 14.89103,3.73597 c -0.29104,-0.12226 -0.76729,-0.48677 -1.05833,-0.81004 -0.50032,-0.55571 -0.53363,-1.02263 -0.61104,-8.56404 -0.0896,-8.72872 0.001,-10.01233 0.7624,-10.77348 0.79015,-0.79015 2.44572,-0.69142 3.13673,0.18705 0.3016,0.38342 0.54837,0.85264 0.54837,1.04271 0,0.75976 0.59751,0.62621 1.7544,-0.39213 1.43411,-1.26236 2.4909,-1.5222 4.54768,-1.11821 1.16767,0.22936 1.69503,0.50154 2.36302,1.21961 1.03863,1.11649 1.08247,1.79194 0.1752,2.69921 -0.6456,0.6456 -0.77778,0.67269 -2.3151,0.47446 -2.65233,-0.342 -3.28671,-0.27553 -4.04741,0.42413 -1.42633,1.31188 -1.69783,2.45965 -2.07211,8.75966 -0.3003,5.05492 -0.41196,5.89521 -0.83906,6.31422 -0.60736,0.59585 -1.64093,0.8325 -2.34475,0.53685 z m -56.0303,-27.53233 c -5.37421,-0.67909 -11.36703,-4.07861 -14.933301,-8.47116 -1.620644,-1.99613 -3.468447,-5.42159 -4.353105,-8.06979 -0.561858,-1.68191 -0.618707,-2.31398 -0.618707,-6.87917 0,-4.60741 0.05279,-5.18169 0.632323,-6.87916 3.125779,-9.155481 10.672365,-15.371481 20.04547,-16.511141 4.36752,-0.53104 8.81805,0.23266 12.93886,2.22029 14.79971,7.13846 17.85563,27.111411 5.87729,38.412931 -2.53131,2.38828 -7.03893,4.87326 -10.43711,5.75382 -1.93091,0.50035 -6.7707,0.72425 -9.15172,0.42338 z m 6.42093,-3.99044 c 3.91587,-0.6325 6.97927,-2.14349 10.07612,-4.96993 3.30089,-3.01265 4.98147,-5.90287 6.06827,-10.436 0.63083,-2.63124 0.66203,-4.83476 0.10652,-7.52413 -0.90172,-4.36553 -2.38202,-7.11135 -5.53195,-10.261281 -3.23014,-3.23014 -5.64811,-4.50437 -10.339,-5.44848 -2.60079,-0.52345 -3.11112,-0.55002 -5.2063,-0.27106 -5.0972,0.67865 -8.550125,2.3259 -11.996095,5.72287 -3.270266,3.223771 -5.082521,6.915991 -5.652388,11.515981 -0.692195,5.58742 1.316865,11.78416 5.049056,15.5733 4.885896,4.96045 11.071067,7.12516 17.425767,6.09873 z m -4.89479,-7.38812 c -2.91319,-0.45322 -5.50015,-1.85095 -7.148209,-3.86219 -2.144048,-2.61653 -2.784692,-4.56436 -1.693325,-5.14844 0.644996,-0.34519 1.356611,0.1633 2.017754,1.44181 0.59149,1.14381 2.68672,3.28906 3.91596,4.00944 1.42331,0.83412 4.36078,1.24822 6.60245,0.93076 0.94111,-0.13328 1.86404,-0.32897 2.05094,-0.43488 1.37092,-0.77679 3.35842,-2.60276 4.49134,-4.1263 0.9952,-1.33835 1.50655,-1.80905 1.96526,-1.80905 0.71063,0 1.06435,0.89561 0.75005,1.89914 -0.51906,1.65733 -3.66351,5.01157 -5.64647,6.0232 -1.91903,0.97902 -5.00732,1.43408 -7.30575,1.07651 z m -7.875342,-17.26839 c -2.085216,-1.69305 -0.981417,-5.22421 1.633032,-5.22421 1.2001,0 2.81864,1.2491 3.06358,2.3643 0.34266,1.5601 -1.39698,3.45496 -3.17127,3.45423 -0.43657,-1.8e-4 -1.122969,-0.26762 -1.525342,-0.59432 z m 16.312402,0.35085 c -0.84705,-0.36277 -1.69019,-1.58437 -1.69019,-2.44888 0,-0.97059 0.61319,-2.17595 1.38028,-2.71324 1.7433,-1.22106 4.44055,0.27734 4.44055,2.46684 0,1.48771 -1.04948,2.66593 -2.51354,2.82187 -0.58208,0.062 -1.30978,0.005 -1.6171,-0.12659 z m -37.810263,6.73914 C 76.446936,112.82577 72.727924,108.08983 68.51979,101.78329 61.15378,90.744179 57.583265,81.529809 57.560214,73.500079 c -0.01137,-3.96125 0.50985,-6.4204 1.996578,-9.41991 2.316104,-4.67281 6.136716,-8.15193 12.179731,-11.0911 6.50019,-3.16153 14.241427,-4.65321 20.121934,-3.87737 5.896459,0.77795 8.477713,1.78033 16.291833,6.32659 0.65443,0.38075 0.78795,0.33172 3.37232,-1.23837 5.8015,-3.52459 10.22077,-4.92898 16.45147,-5.22806 5.27396,-0.25316 10.26461,0.73327 16.01587,3.16559 4.40971,1.86496 6.819,3.43918 9.77428,6.38647 2.95711,2.94911 4.27127,4.95896 5.36301,8.20208 0.67754,2.0127 0.71238,2.37008 0.70938,7.27604 -0.003,4.86232 -0.0449,5.29648 -0.72775,7.54063 -2.12659,6.98866 -5.35737,13.57637 -10.31582,21.034371 -2.82444,4.24824 -6.97274,9.69562 -7.95258,10.44297 -1.17558,0.89666 -2.34102,0.88338 -3.06335,-0.0349 -1.27519,-1.62113 -1.12722,-2.02252 2.60338,-7.06204 7.89938,-10.670991 12.08461,-18.469001 13.98786,-26.062551 0.96206,-3.83842 1.00102,-8.79764 0.0897,-11.41471 -1.68123,-4.82788 -5.08364,-8.27341 -11.11577,-11.25667 -10.17324,-5.03128 -22.02057,-4.16907 -30.65201,2.23076 -2.89286,2.14492 -3.56813,2.47353 -4.41859,2.15018 -0.37519,-0.14264 -1.83306,-1.04516 -3.23972,-2.00559 -6.308869,-4.30753 -11.730951,-5.94737 -18.465149,-5.58455 -7.483083,0.40316 -15.855156,4.01475 -20.048598,8.64865 -2.922269,3.22921 -4.011728,6.21103 -4.010493,10.9766 7.94e-4,2.61748 0.13157,3.68313 0.745406,6.06869 0.915955,3.55969 2.820749,8.30845 4.70005,11.71751 1.811864,3.28673 6.822619,10.862731 10.110599,15.286711 1.405998,1.89177 2.626762,3.70515 2.71281,4.02972 0.216246,0.81568 -0.654759,2.21231 -1.627164,2.60909 -0.630952,0.25745 -0.95536,0.25476 -1.582894,-0.0131 z"
       style="fill:#000000;stroke-width:0.264583" />
  </g>
</svg>
