<?xml version="1.0" encoding="utf-8"?>
<!-- Generator: Adobe Illustrator 14.0.0, SVG Export Plug-In . SVG Version: 6.00 Build 43363)  -->
<!DOCTYPE svg PUBLIC "-//W3C//DTD SVG 1.1//EN" "http://www.w3.org/Graphics/SVG/1.1/DTD/svg11.dtd">
<svg version="1.1" id="Layer_1" xmlns="http://www.w3.org/2000/svg" xmlns:xlink="http://www.w3.org/1999/xlink" x="0px" y="0px"
	 width="97.595px" height="97.797px" viewBox="0 0 97.595 97.797" enable-background="new 0 0 97.595 97.797" xml:space="preserve">
<g>
	<polygon fill-rule="evenodd" clip-rule="evenodd" stroke="#000000" stroke-width="0.216" stroke-miterlimit="2.6131" points="
		39.789,69.906 39.789,83.727 63.287,83.727 83.561,63.332 72.236,55.493 55.434,72.22 42.223,72.22 39.789,69.906 	"/>
	<polygon fill-rule="evenodd" clip-rule="evenodd" stroke="#000000" stroke-width="0.216" stroke-miterlimit="2.6131" points="
		28.647,0.108 0.108,28.751 0.108,68.933 26.455,95.232 26.395,78.003 12.332,63.94 12.332,33.927 33.7,12.497 63.775,12.436 
		85.266,33.805 85.266,63.879 63.896,85.248 39.789,85.37 39.789,97.688 68.949,97.688 97.486,68.993 97.486,28.691 68.828,0.108 
		28.647,0.108 	"/>
	<polygon fill-rule="evenodd" clip-rule="evenodd" stroke="#000000" stroke-width="0.216" stroke-miterlimit="2.6131" points="
		63.166,14.019 34.248,14.08 13.854,34.657 13.854,63.21 26.395,75.69 26.395,56.513 25.482,55.493 25.482,42.268 42.163,25.525 
		55.373,25.464 71.994,41.963 83.561,34.414 63.166,14.019 	"/>
	<polygon fill-rule="evenodd" clip-rule="evenodd" stroke="#000000" stroke-width="0.216" stroke-miterlimit="2.6131" points="
		38.753,65.827 42.954,70.089 54.703,70.089 70.045,54.687 70.045,43.058 54.643,27.656 43.015,27.656 27.491,43.181 27.491,97.688 
		38.753,97.688 38.753,65.827 	"/>
	
		<polygon fill-rule="evenodd" clip-rule="evenodd" fill="#FFFFFF" stroke="#000000" stroke-width="0.216" stroke-miterlimit="2.6131" points="
		45.815,38.918 38.875,45.797 38.814,51.825 45.694,58.826 51.842,58.887 58.721,51.886 58.721,45.92 51.842,38.918 45.815,38.918 	
		"/>
</g>
</svg>
