<?xml version="1.0" encoding="UTF-8" standalone="no"?>
<svg
   xmlns:dc="http://purl.org/dc/elements/1.1/"
   xmlns:cc="http://creativecommons.org/ns#"
   xmlns:rdf="http://www.w3.org/1999/02/22-rdf-syntax-ns#"
   xmlns:svg="http://www.w3.org/2000/svg"
   xmlns="http://www.w3.org/2000/svg"
   xmlns:sodipodi="http://sodipodi.sourceforge.net/DTD/sodipodi-0.dtd"
   xmlns:inkscape="http://www.inkscape.org/namespaces/inkscape"
   inkscape:version="1.0 (1.0+r73+1)"
   sodipodi:docname="tyrell.svg"
   viewBox="0 0 93.760002 99.199997"
   height="99.199997"
   width="93.760002"
   id="svg60"
   version="1.1">
  <metadata
     id="metadata66">
    <rdf:RDF>
      <cc:Work
         rdf:about="">
        <dc:format>image/svg+xml</dc:format>
        <dc:type
           rdf:resource="http://purl.org/dc/dcmitype/StillImage" />
        <dc:title></dc:title>
      </cc:Work>
    </rdf:RDF>
  </metadata>
  <defs
     id="defs64" />
  <sodipodi:namedview
     inkscape:current-layer="g68"
     inkscape:window-maximized="1"
     inkscape:window-y="27"
     inkscape:window-x="0"
     inkscape:cy="49.599998"
     inkscape:cx="46.880001"
     inkscape:zoom="8.0098121"
     showgrid="false"
     id="namedview62"
     inkscape:window-height="1016"
     inkscape:window-width="1920"
     inkscape:pageshadow="2"
     inkscape:pageopacity="0"
     guidetolerance="10"
     gridtolerance="10"
     objecttolerance="10"
     borderopacity="1"
     bordercolor="#666666"
     pagecolor="#ffffff" />
  <g
     id="g68"
     inkscape:label="Image"
     inkscape:groupmode="layer">
    <path
       id="path72"
       d="M 42.652159,93.226666 C 39.181753,90.638503 32.243356,84.670276 28.522536,81.07274 26.00407,78.63772 19.389944,71.174117 16.724692,67.759656 8.1710205,56.801525 2.6938125,39.140514 2.0017785,20.286277 l -0.162725,-4.433381 0.757231,0.234823 c 0.416477,0.129153 1.40549,0.560489 2.197806,0.958524 9.0314195,4.537107 22.9996365,7.932559 36.2804395,8.819199 8.49354,0.567038 12.311393,0.260028 24.518984,-1.971682 11.27176,-2.060625 18.4739,-4.214643 24.46766,-7.317796 1.43549,-0.743196 2.41461,-0.84743 2.4076,-0.256307 -0.0481,4.050613 -1.87825,19.883462 -2.39509,20.719731 -0.0895,0.144867 -0.38559,1.464195 -0.65791,2.931834 -0.92801,5.00158 -3.84421,12.984722 -6.58569,18.028434 -1.8573,3.417034 -5.26386,8.230278 -8.60619,12.16 -3.92864,4.619062 -14.39243,15.091897 -18.39352,18.409426 -6.651568,5.515175 -8.693972,7.030573 -9.475572,7.030573 -0.286419,0 -1.952608,-1.067846 -3.702643,-2.372989 z M 54.151545,80.836497 C 54.02063,80.709332 53.409516,80.559019 52.793516,80.502471 l -1.12,-0.102816 0.03278,-7.136774 c 0.01802,-3.925225 0.162723,-7.266723 0.321545,-7.425545 0.158826,-0.158826 2.592083,-0.301802 5.407233,-0.317722 7.81207,-0.04418 7.83845,-0.0428 7.83845,0.409287 0,0.553005 -3.63575,4.058403 -5.52,5.322099 l -1.52,1.019401 v 3.526416 3.526419 l 0.88,-0.635824 c 1.26604,-0.914752 6.90279,-6.836243 11.16382,-11.727756 2.2512,-2.58431 5.87618,-7.437843 5.87618,-7.867709 0,-0.371964 -2.32979,-0.364755 -4,0.01238 -1.19865,0.27065 -3.41202,0.471367 -14.27454,1.294468 -5.516704,0.418025 -26.339705,0.424006 -31.73101,0.0091 -2.247051,-0.172925 -5.018299,-0.486276 -6.158329,-0.696333 -1.14003,-0.210061 -2.156152,-0.298557 -2.258049,-0.196659 -0.386415,0.386416 1.540466,3.16982 6.39531,9.238111 2.499635,3.12441 10.355908,10.928102 10.754026,10.682051 0.171923,-0.106269 0.312589,-1.694477 0.312589,-3.529366 v -3.33616 L 33.154958,71.28207 c -1.957275,-1.236131 -5.001437,-4.13032 -5.001437,-4.755036 0,-0.328084 8.692457,-0.806964 11.52,-0.634656 l 1.76,0.107254 0.08628,7.177235 c 0.09296,7.733024 0.102278,7.688352 -1.606275,7.697865 -0.484,0.0026 -0.88,0.159978 -0.88,0.349514 0,0.370278 0.284326,0.661581 4.586134,4.698662 l 2.816605,2.643277 3.976659,-3.749248 c 2.187162,-2.06209 3.86954,-3.853296 3.738631,-3.980464 z m -8.238029,-22.47773 c 27.163098,-0.489271 26.791858,-0.437696 31.439058,-4.367703 2.50346,-2.1171 3.47119,-3.53424 4.64241,-6.798367 1.87685,-5.230631 1.46489,-10.946138 -1.06932,-14.835786 -0.72771,-1.116931 -1.2455,-2.233004 -1.15066,-2.480163 0.0948,-0.24716 0.72281,-0.852164 1.39548,-1.344452 0.67267,-0.492289 1.54206,-1.215873 1.93198,-1.607966 0.38992,-0.392092 1.02923,-0.937233 1.42069,-1.211424 1.51109,-1.058407 0.2451,-0.793159 -2.00638,0.420374 -5.13948,2.770146 -13.4749,6.09599 -18.84326,7.518483 -11.629323,3.081507 -19.685019,3.373167 -30.559998,1.106438 -2.84215,-0.592407 -9.928029,-2.775248 -11.888362,-3.662272 -0.554599,-0.25095 -1.102009,-0.456272 -1.216467,-0.456272 -0.221375,0 -7.255463,-3.288885 -8.335172,-3.897225 -0.352,-0.198327 -1,-0.580713 -1.44,-0.849746 -1.1079625,-0.677451 1.786632,2.333868 3.114815,3.240419 1.447926,0.988283 1.506414,1.396136 0.400456,2.792523 -3.054668,3.856832 -3.668092,10.262326 -1.540945,16.090848 1.621766,4.443747 4.420415,7.530412 8.49827,9.372854 2.957308,1.33616 3.560256,1.35935 25.207405,0.969437 z M 22.712057,56.148712 c -3.56643,-1.014995 -7.477549,-4.93078 -8.821709,-8.832233 -0.769863,-2.234544 -1.13319,-6.167965 -0.788643,-8.537945 0.484663,-3.333767 0.855814,-4.339232 2.099841,-5.688554 l 1.133718,-1.22968 0.865622,0.567178 c 1.743642,1.14248 6.152629,4.717139 6.152629,4.988345 0,0.153594 -0.495815,1.000051 -1.101812,1.881015 -2.674977,3.888732 -1.411517,8.667346 2.82105,10.66967 2.338666,1.106368 3.92478,1.073916 6.451532,-0.131991 1.510968,-0.72112 2.317855,-1.367808 3.191356,-2.557756 l 1.169088,-1.592615 1.371619,0.943699 c 2.011552,1.383984 7.378915,6.857203 7.857398,8.012365 0.30466,0.735513 0.318512,1.088704 0.05311,1.354102 -0.553725,0.553725 -20.568118,0.691344 -22.454803,0.1544 z m 25.841459,-0.08626 c -0.800362,-0.831901 0.442867,-2.801226 3.709235,-5.875584 2.488463,-2.342179 5.540903,-4.827206 5.929403,-4.827206 0.18971,0 0.55088,0.396 0.80261,0.88 1.14914,2.209491 3.83465,3.919999 6.15441,3.919999 3.26944,0 6.86312,-2.42806 7.80136,-5.270975 0.70508,-2.13641 -0.20811,-5.923546 -1.73363,-7.189613 -0.27686,-0.229776 -0.50339,-0.589325 -0.50339,-0.798995 0,-0.352387 4.63861,-4.024397 6.34615,-5.023734 0.69375,-0.40601 0.81925,-0.35297 1.78687,0.755168 1.54991,1.774991 2.2767,4.525983 2.22137,8.40815 -0.0661,4.635315 -1.27763,7.563731 -4.50199,10.88159 -1.42916,1.470601 -4.39256,3.118601 -6.4924,3.610531 -1.73366,0.40615 -21.178481,0.885645 -21.519998,0.530669 z m -3.44,-4.387059 c -1.428598,-2.532234 -5.453715,-6.76696 -9.011943,-9.481242 -3.295225,-2.51366 -8.045074,-5.825782 -9.388057,-6.546396 -1.3767,-0.738704 -2.224268,-1.450493 -1.997371,-1.677389 0.199276,-0.199277 3.333413,0.720054 3.917371,1.149075 0.176,0.129302 1.184,0.552762 2.24,0.941021 1.95935,0.72039 8.404765,4.021568 13.261024,6.791961 2.645027,1.508931 2.718003,1.529661 3.52,0.999831 4.383978,-2.896212 15.216194,-8.440327 19.319534,-9.88807 1.48926,-0.525444 1.49944,-0.526512 1.49944,-0.157524 0,0.15785 -1.476,1.265117 -3.28,2.460599 -5.637,3.735539 -8.57948,6.143135 -12.879998,10.538662 -1.76,1.798883 -3.704,4.07446 -4.32,5.056841 -0.616,0.982381 -1.264,1.788784 -1.44,1.792007 -0.176,0.0032 -0.824,-0.887498 -1.44,-1.979376 z M 26.060277,48.278165 c -2.594675,-1.178598 -3.769977,-3.678419 -3.026882,-6.43806 0.200176,-0.743399 0.735121,-1.695616 1.188766,-2.116042 1.495007,-1.385526 2.669618,-0.808614 2.591371,1.272752 -0.09105,2.421971 2.18784,3.941635 4.363017,2.909446 1.202701,-0.57072 2.416967,-0.228819 2.416967,0.680544 0,1.395741 -1.724207,3.33785 -3.487752,3.928525 -1.512454,0.506576 -2.540875,0.446285 -4.045487,-0.237165 z M 64.118424,47.95062 c -1.8913,-0.478506 -3.63834,-2.287536 -3.6428,-3.772077 -0.003,-1.003552 0.49671,-1.18159 2.07568,-0.739507 1.07371,0.300621 1.64634,0.302886 2.53373,0.01002 1.4783,-0.487885 2.10848,-1.4172 2.10848,-3.109344 0,-1.488896 0.76107,-2.227888 1.91672,-1.861101 0.96892,0.307527 2.29577,3.320794 2.04975,4.654954 -0.64888,3.518684 -3.76035,5.647206 -7.04156,4.817052 z m -41.477525,-36.430962 -0.08738,-5.680001 -1.68,-0.096723 -1.68,-0.096723 V 4.5355501 3.4248893 l 5.636102,0.087384 5.636102,0.087384 1.185685,2.3151203 c 0.652128,1.2733164 1.274784,2.4042166 1.38368,2.5131126 0.108896,0.108896 0.784697,-0.9689079 1.501782,-2.39512 1.302829,-2.5911986 1.304733,-2.5931129 2.576995,-2.5931129 h 1.2732 L 36.310294,7.3862946 34.23352,11.332932 v 2.933363 2.933362 h -1.12 -1.12 v -2.917729 -2.91773 l -1.84,-3.5230158 c -1.25814,-2.4089371 -1.871673,-3.312811 -1.940157,-2.8582939 -0.0843,0.5594637 -0.362989,0.6799258 -1.76,0.7607447 l -1.659843,0.096024 -0.08738,5.680001 -0.08738,5.679999 h -0.945236 -0.945233 z m 16.072617,-1.2 V 3.439657 l 3.28,0.00472 c 3.754544,0.0054 4.625421,0.3117818 5.456755,1.919734 1.019027,1.9709766 0.196816,4.776446 -1.600073,5.459623 l -0.829847,0.315507 0.656247,0.710209 c 0.642771,0.695631 2.956918,4.715783 2.956918,5.136785 0,0.117384 -0.612,0.212893 -1.36,0.212242 -1.350035,-0.0012 -1.367888,-0.01644 -2.4368,-2.08363 -1.460845,-2.825156 -2.179328,-3.675189 -3.106426,-3.675189 -0.764825,0 -0.776774,0.0443 -0.776774,2.879999 v 2.88 h -1.12 -1.12 z M 45.255372,8.4884552 C 45.91373,7.5485151 45.88373,7.0898726 45.113516,6.3196569 44.628668,5.8348083 44.04685,5.679657 42.713516,5.679657 h -1.76 v 1.7599999 1.7600007 h 1.901856 c 1.602563,0 1.980246,-0.1119204 2.4,-0.7112024 z m 4.018144,1.8312028 V 3.439657 h 4.16 4.159998 v 1.12 1.12 h -3.04 -3.039998 v 1.5999999 1.6000003 h 2.879998 2.88 v 1.1200004 1.1200004 h -2.88 -2.879998 v 1.92 1.919999 h 3.199998 3.2 v 1.12 1.12 h -4.319998 -4.32 z m 9.784868,0.240016 0.0249,-6.640017 1.00749,-0.099705 1.00749,-0.099705 0.0876,5.5397056 0.0876,5.5397044 2.8,0.09246 2.8,0.09246 v 1.107541 1.107541 l -3.92,1.7e-5 -3.92,1.7e-5 z m 8.77513,-0.08002 V 3.759657 h 1.12 1.12 v 5.6000006 5.5999994 h 2.88 2.88 v 1.12 1.12 h -4 -4 z"
       style="fill:#000000;stroke-width:0.32" />
  </g>
</svg>
