<?xml version="1.0" encoding="UTF-8" standalone="no"?>
<svg
   xmlns:dc="http://purl.org/dc/elements/1.1/"
   xmlns:cc="http://creativecommons.org/ns#"
   xmlns:rdf="http://www.w3.org/1999/02/22-rdf-syntax-ns#"
   xmlns:svg="http://www.w3.org/2000/svg"
   xmlns="http://www.w3.org/2000/svg"
   xmlns:sodipodi="http://sodipodi.sourceforge.net/DTD/sodipodi-0.dtd"
   xmlns:inkscape="http://www.inkscape.org/namespaces/inkscape"
   sodipodi:docname="veridian.svg"
   inkscape:version="1.0 (1.0+r73+1)"
   id="svg8"
   version="1.1"
   viewBox="0 0 53.816151 15.453609"
   height="15.453609mm"
   width="53.816151mm">
  <defs
     id="defs2" />
  <sodipodi:namedview
     inkscape:window-maximized="1"
     inkscape:window-y="27"
     inkscape:window-x="0"
     inkscape:window-height="1016"
     inkscape:window-width="1920"
     showgrid="false"
     inkscape:document-rotation="0"
     inkscape:current-layer="layer1"
     inkscape:document-units="mm"
     inkscape:cy="29.024382"
     inkscape:cx="94.893812"
     inkscape:zoom="3.959798"
     inkscape:pageshadow="2"
     inkscape:pageopacity="0.0"
     borderopacity="1.0"
     bordercolor="#666666"
     pagecolor="#ffffff"
     id="base" />
  <metadata
     id="metadata5">
    <rdf:RDF>
      <cc:Work
         rdf:about="">
        <dc:format>image/svg+xml</dc:format>
        <dc:type
           rdf:resource="http://purl.org/dc/dcmitype/StillImage" />
        <dc:title></dc:title>
      </cc:Work>
    </rdf:RDF>
  </metadata>
  <g
     transform="translate(-78.928986,-149.26821)"
     id="layer1"
     inkscape:groupmode="layer"
     inkscape:label="Layer 1">
    <path
       id="path108"
       d="m 125.88739,164.61683 c -0.48916,-0.18248 -0.87413,-0.51879 -1.07951,-0.94304 -0.15521,-0.32064 -0.18154,-0.4966 -0.15551,-1.03947 0.0381,-0.79489 0.27279,-1.32818 0.8294,-1.88479 0.54784,-0.54784 1.07551,-0.77982 1.8797,-0.82637 0.59018,-0.0342 0.71041,-0.0138 1.12963,0.1913 0.44651,0.21846 0.88896,0.69361 0.88896,0.95468 0,0.24352 -0.4269,0.0993 -0.79464,-0.26842 -0.41922,-0.41922 -0.74682,-0.52251 -1.40865,-0.44412 -0.54964,0.0651 -0.9915,0.30364 -1.41649,0.7647 -0.44735,0.48531 -0.62592,0.90654 -0.63358,1.49452 -0.0215,1.6527 1.79633,2.23271 3.18268,1.01548 0.26887,-0.23607 0.73201,-0.35021 0.73201,-0.1804 0,0.15104 -0.86768,0.87708 -1.25161,1.0473 -0.50439,0.22363 -1.46101,0.28329 -1.90239,0.11863 z m 4.25467,-0.0326 c -0.33758,-0.16864 -0.59234,-0.60542 -0.59254,-1.01587 -8e-5,-0.24661 0.0251,-0.27517 0.24305,-0.27517 0.21645,0 0.24888,0.0357 0.29505,0.32438 0.0799,0.49973 0.4783,0.76075 0.9897,0.64842 0.59852,-0.13145 1.05132,-0.8622 0.83223,-1.34306 -0.0955,-0.20958 -0.56487,-0.4816 -1.02013,-0.59121 -0.32992,-0.0794 -0.72675,-0.44528 -0.78864,-0.72707 -0.0683,-0.31101 0.0749,-0.8484 0.30357,-1.1391 0.40309,-0.51245 1.34154,-0.7215 1.86111,-0.41458 0.49727,0.29374 0.66056,1.05985 0.23639,1.10902 -0.19471,0.0226 -0.22955,-0.0115 -0.27855,-0.27274 -0.13212,-0.70427 -1.05067,-0.75719 -1.49312,-0.086 -0.35849,0.54384 -0.18353,0.89171 0.57518,1.1436 0.78043,0.25911 1.1227,0.60138 1.1227,1.12271 0,0.47898 -0.11525,0.79121 -0.40755,1.10416 -0.48813,0.52259 -1.30084,0.70107 -1.87845,0.41253 z m -31.040056,-0.0845 c 0.02421,-0.0815 0.198108,-1.04352 0.38643,-2.13783 0.188322,-1.09432 0.362304,-2.0754 0.386626,-2.18017 0.04265,-0.18371 0.07834,-0.1905 1.00091,-0.1905 1.19084,0 1.68179,0.13265 2.10569,0.56893 0.39022,0.40162 0.4904,0.66643 0.4904,1.29629 0,0.93885 -0.40399,1.73741 -1.12997,2.23362 -0.58953,0.40295 -1.24614,0.55783 -2.364861,0.55783 -0.835803,0 -0.915253,-0.0135 -0.875225,-0.14817 z m 2.445996,-0.4533 c 0.77577,-0.25625 1.41731,-1.17014 1.42763,-2.03368 0.008,-0.63327 -0.17627,-1.02868 -0.61249,-1.31741 -0.33492,-0.22169 -0.41992,-0.23844 -1.20941,-0.23844 h -0.84918 l -0.316263,1.778 c -0.173943,0.9779 -0.318505,1.83081 -0.321246,1.89537 -0.004,0.0952 0.142704,0.10835 0.778179,0.0695 0.43075,-0.0263 0.927,-0.0953 1.10278,-0.15339 z m 3.22625,0.4533 c 0.024,-0.0815 0.0874,-0.45297 0.14082,-0.8255 l 0.0972,-0.67733 -0.51612,-1.46876 c -0.28386,-0.80782 -0.51611,-1.48651 -0.51611,-1.5082 0,-0.0217 0.12072,-0.0275 0.26828,-0.0129 0.26572,0.0263 0.27215,0.0381 0.6749,1.24472 0.22365,0.67 0.42063,1.23218 0.43774,1.24929 0.0171,0.0171 0.42425,-0.5406 0.90476,-1.23935 0.78025,-1.13463 0.89939,-1.27046 1.11432,-1.27046 0.13237,0 0.24066,0.0205 0.24066,0.0455 0,0.0251 -0.47262,0.72037 -1.05028,1.54517 l -1.05028,1.49963 -0.14385,0.78317 c -0.14312,0.77924 -0.1451,0.78317 -0.39475,0.78317 -0.19913,0 -0.24191,-0.0306 -0.20731,-0.14817 z m 2.70336,-0.0847 c 0.0253,-0.12806 0.20952,-1.17581 0.40943,-2.32833 l 0.36346,-2.0955 h 0.34282 0.34281 l 0.92954,1.86523 c 0.67934,1.36318 0.94588,1.82465 0.99027,1.7145 0.0334,-0.0829 0.19424,-0.90835 0.35742,-1.83433 0.16318,-0.92598 0.31345,-1.70038 0.33395,-1.72087 0.0205,-0.0205 0.12939,-0.0249 0.24199,-0.01 l 0.20472,0.0275 -0.4064,2.286 c -0.22352,1.2573 -0.40741,2.29553 -0.40865,2.30717 -0.001,0.0116 -0.11264,0.0212 -0.24758,0.0212 -0.23532,0 -0.28623,-0.0813 -1.24805,-1.99338 -0.72941,-1.45003 -1.01889,-1.95198 -1.06202,-1.8415 -0.0326,0.0835 -0.20181,0.98055 -0.37599,1.99338 l -0.31669,1.8415 h -0.2485 c -0.22578,0 -0.24429,-0.0213 -0.20253,-0.23284 z m 4.39056,0.15755 c 0.0155,-0.0414 0.63782,-1.08911 1.38289,-2.32822 l 1.35466,-2.25293 0.29258,0.0211 0.29257,0.0211 0.5273,2.05819 c 0.72763,2.84011 0.68551,2.55615 0.37921,2.55615 -0.27923,0 -0.25303,0.0534 -0.53966,-1.10067 l -0.11565,-0.46567 -1.0693,-0.0237 -1.06929,-0.0236 -0.49188,0.80606 c -0.4345,0.71204 -0.51986,0.80616 -0.73176,0.80683 -0.13194,4.2e-4 -0.22719,-0.0331 -0.21167,-0.0745 z m 3.42284,-2.10488 c -0.0252,-0.0815 -0.12657,-0.49107 -0.22532,-0.91017 -0.0987,-0.4191 -0.20537,-0.80842 -0.23696,-0.86516 -0.0343,-0.0617 -0.3021,0.30427 -0.66595,0.91016 l -0.60853,1.01334 h 0.89128 c 0.80983,0 0.88709,-0.0135 0.84548,-0.14817 z m 1.72699,2.11667 c -4.2e-4,-0.0349 0.17931,-1.08443 0.39935,-2.33223 l 0.40007,-2.26872 0.37894,0.0251 0.37895,0.025 0.4011,1.60867 c 0.2206,0.88477 0.4444,1.75489 0.49733,1.9336 l 0.0962,0.32494 1.17082,-1.9336 1.17083,-1.93361 0.38988,-0.0258 c 0.21443,-0.0142 0.38854,-0.0142 0.38691,0 -0.002,0.0142 -0.185,1.0545 -0.40749,2.3118 l -0.40452,2.286 -0.22751,0.0268 c -0.16165,0.019 -0.22751,-0.0117 -0.22751,-0.1061 0,-0.111 0.47675,-2.88747 0.64059,-3.73069 0.0272,-0.1397 -0.50791,0.66993 -1.18901,1.79917 -1.06589,1.7672 -1.26669,2.05317 -1.44166,2.05317 -0.23693,0 -0.19712,0.11767 -0.77616,-2.29424 -0.22205,-0.92491 -0.42755,-1.65386 -0.45667,-1.61988 -0.0291,0.034 -0.20141,0.92856 -0.38286,1.98795 l -0.32992,1.92617 h -0.23349 c -0.12842,0 -0.23381,-0.0286 -0.23421,-0.0635 z m 5.92739,-0.0589 c 0,-0.0735 0.17145,-1.09807 0.381,-2.27679 0.20955,-1.17872 0.381,-2.16885 0.381,-2.20029 0,-0.0314 0.11603,-0.0572 0.25784,-0.0572 0.25233,0 0.25653,0.007 0.1969,0.3175 -0.0335,0.17462 -0.21728,1.21285 -0.40837,2.30717 l -0.34743,1.98966 -0.23047,0.0268 c -0.16484,0.0192 -0.23047,-0.0113 -0.23047,-0.10687 z m -39.200667,-4.41514 c -1.184979,-0.19397 -1.879859,-0.47517 -2.689528,-1.08838 -1.268368,-0.96061 -2.149843,-2.75298 -2.125726,-4.3224 0.0075,-0.48783 0.0105,-0.49455 0.07554,-0.16933 0.416737,2.08361 2.029506,3.78384 4.062378,4.28268 0.632947,0.15531 1.787013,0.13474 2.455334,-0.0438 1.882642,-0.50287 3.412532,-2.10745 3.856638,-4.04491 l 0.122098,-0.53267 -0.03037,0.80434 c -0.05263,1.39404 -0.567265,2.53664 -1.620038,3.59681 -0.918404,0.92486 -1.995768,1.41181 -3.344333,1.51157 -0.302684,0.0224 -0.645584,0.0251 -0.762,0.006 z m 10.257865,-2.08761 c -0.09257,-0.24448 -0.704903,-1.82921 -1.36075,-3.52163 -0.655846,-1.69243 -1.192448,-3.09479 -1.192448,-3.11637 0,-0.0216 0.16072,-0.0275 0.357156,-0.0132 l 0.357156,0.026 1.105823,2.921 c 0.608203,1.60655 1.135653,2.99697 1.172113,3.08983 0.05099,0.12986 0.180543,-0.13389 0.561411,-1.143 0.272316,-0.72151 0.799853,-2.11193 1.172305,-3.08983 l 0.677184,-1.778 0.353791,-0.0264 c 0.331696,-0.0248 0.35006,-0.0146 0.29405,0.16183 -0.03286,0.10352 -0.645771,1.69186 -1.362031,3.52964 -0.71626,1.83777 -1.302292,3.35562 -1.302292,3.373 0,0.0174 -0.149662,0.0316 -0.332583,0.0316 -0.323396,0 -0.337233,-0.0123 -0.500885,-0.4445 z m 4.474135,-3.1115 v -3.556 h 1.820337 1.82033 v 0.254 c 0,0.1397 -1e-5,0.27561 -2e-5,0.30203 -10e-6,0.0264 -0.65723,0.055 -1.4605,0.0635 l -1.46048,0.0155 -0.02337,1.29117 -0.02337,1.29116 h 1.44154 1.44154 v 0.29634 0.29633 h -1.43934 -1.439329 v 1.31233 1.31234 h 1.481669 1.48166 v 0.33866 0.33867 h -1.82033 -1.820333 z m 4.995337,0 v -3.556 h 1.20988 c 1.88904,0 2.6619,0.28342 3.10132,1.1373 0.17325,0.33666 0.21428,0.53852 0.21494,1.05755 9.2e-4,0.72927 -0.12416,1.16368 -0.44479,1.54473 -0.24009,0.28533 -0.95819,0.66092 -1.26619,0.66226 -0.10477,4.6e-4 -0.1905,0.0253 -0.1905,0.0552 0,0.0299 0.40005,0.62212 0.889,1.31607 0.48895,0.69394 0.889,1.28117 0.889,1.30495 0,0.0238 -0.18035,0.0316 -0.40078,0.0174 l -0.40079,-0.0258 -1.07409,-1.524 c -0.59075,-0.8382 -1.07714,-1.54732 -1.08088,-1.57583 -0.004,-0.0285 0.28849,-0.0786 0.64938,-0.11126 1.02725,-0.0931 1.49767,-0.36145 1.70251,-0.97138 0.21876,-0.65138 0.0638,-1.39514 -0.36996,-1.77601 -0.38325,-0.3365 -0.78674,-0.43697 -1.84132,-0.45849 l -0.86707,-0.0177 -0.0222,3.2385 -0.0222,3.2385 h -0.33766 -0.33766 z m 5.67266,0 v -3.556 h 0.33867 0.33867 v 3.556 3.556 h -0.33867 -0.33867 z m 2.19889,3.4925 c -0.001,-0.0349 -0.0109,-1.63916 -0.0212,-3.56498 l -0.0187,-3.50147 1.48167,0.0366 c 1.23386,0.0305 1.56344,0.0664 1.9706,0.21498 1.03491,0.3776 1.69462,1.08379 2.02328,2.16581 0.26281,0.86525 0.19547,2.02351 -0.16207,2.78755 -0.65029,1.38964 -1.80921,1.92504 -4.16691,1.92504 -0.60733,0 -1.10534,-0.0286 -1.10668,-0.0635 z m 3.36601,-0.86135 c 0.51681,-0.22772 1.06169,-0.78291 1.32126,-1.34628 0.24982,-0.54221 0.26117,-1.88783 0.0212,-2.51015 -0.21409,-0.55512 -0.79582,-1.16611 -1.32843,-1.39523 -0.45839,-0.19719 -1.68547,-0.3683 -2.34009,-0.32631 l -0.40247,0.0258 -0.0223,2.90947 -0.0223,2.90947 1.16529,-0.0359 c 0.98146,-0.0302 1.2351,-0.0667 1.60785,-0.2309 z m 3.49444,-2.62604 v -3.56111 l 0.3175,-1e-5 0.3175,-1e-5 -0.0168,3.53484 -0.0168,3.53485 -0.30071,0.0263 -0.30071,0.0263 z m 1.64347,3.40272 c 0.0291,-0.0815 0.6696,-1.68169 1.4233,-3.556 l 1.37038,-3.40783 h 0.38921 0.38921 l 0.17956,0.48683 c 0.0988,0.26776 0.73501,1.85542 1.41388,3.52814 0.67888,1.67272 1.23432,3.05604 1.23432,3.07404 0,0.018 -0.16192,0.021 -0.35983,0.007 l -0.35983,-0.026 -0.90638,-2.24367 c -0.49851,-1.23402 -1.05096,-2.63397 -1.22767,-3.11101 -0.17671,-0.47703 -0.34034,-0.8668 -0.36362,-0.86615 -0.0233,6.5e-4 -0.34295,0.75291 -0.71037,1.67167 -0.36742,0.91877 -0.93458,2.32771 -1.26035,3.13099 l -0.5923,1.4605 h -0.33622 c -0.28392,0 -0.32798,-0.0231 -0.28329,-0.14817 z m 7.3312,-3.41206 v -3.56022 l 0.47422,0.0254 0.47422,0.0254 1.85411,2.91444 1.85411,2.91444 v -2.93561 -2.9356 h 0.33867 0.33867 v 3.556 3.556 h -0.32878 -0.32878 l -1.97839,-3.10994 -1.97839,-3.10995 -0.0222,3.10995 -0.0222,3.10994 h -0.33762 -0.33762 z m -45.470598,2.8965 c -0.821153,-0.52443 -1.5051,-1.3976 -1.867569,-2.38427 -0.169497,-0.46139 -0.202174,-0.7077 -0.202174,-1.524 0,-0.85423 0.02874,-1.05156 0.234296,-1.60867 1.147548,-3.11014 5.201659,-4.04057 7.53913,-1.73025 0.535569,0.52935 0.826483,0.96621 1.124023,1.68792 0.224703,0.54503 0.244341,0.67773 0.244341,1.651 0,0.97327 -0.01964,1.10597 -0.244341,1.651 -0.373416,0.90575 -0.961981,1.66438 -1.694186,2.18372 -0.258555,0.18339 -0.258128,0.18182 0.05461,-0.20102 0.173361,-0.21223 0.421011,-0.6118 0.550334,-0.88795 0.210486,-0.44946 0.235131,-0.59572 0.235131,-1.39547 0,-0.86266 -0.01099,-0.91563 -0.319392,-1.53964 -1.153393,-2.33373 -4.323982,-2.60065 -5.904578,-0.49707 -0.471477,0.62748 -0.635281,1.17118 -0.627688,2.08343 0.0083,1.00117 0.221735,1.56084 0.856623,2.24659 0.257184,0.27779 0.451913,0.50508 0.43273,0.50508 -0.01918,0 -0.204261,-0.10818 -0.411286,-0.2404 z m 0.597257,-0.59447 c 0,-0.0562 1.150845,-2.78578 1.789831,-4.24513 l 0.09268,-0.21167 0.114931,0.254 c 0.356511,0.7879 1.812558,4.18157 1.812558,4.22461 0,0.0281 -0.85725,0.0511 -1.905,0.0511 -1.04775,0 -1.905,-0.0328 -1.905,-0.0729 z m 40.203551,-1.30439 -0.47879,-0.86641 0.97695,-0.0239 c 0.53732,-0.0132 0.9909,-0.01 1.00796,0.007 0.0376,0.0376 -0.92503,1.74624 -0.985,1.74827 -0.0233,7.6e-4 -0.25779,-0.38845 -0.52112,-0.86498 z"
       style="fill:#000000;stroke-width:0.0846667" />
  </g>
</svg>
