<?xml version="1.0" encoding="UTF-8" standalone="no"?>
<svg
   xmlns:dc="http://purl.org/dc/elements/1.1/"
   xmlns:cc="http://creativecommons.org/ns#"
   xmlns:rdf="http://www.w3.org/1999/02/22-rdf-syntax-ns#"
   xmlns:svg="http://www.w3.org/2000/svg"
   xmlns="http://www.w3.org/2000/svg"
   xmlns:sodipodi="http://sodipodi.sourceforge.net/DTD/sodipodi-0.dtd"
   xmlns:inkscape="http://www.inkscape.org/namespaces/inkscape"
   inkscape:version="1.0 (1.0+r73+1)"
   sodipodi:docname="weyland-yutani.svg"
   viewBox="0 0 973.33331 733.33331"
   height="733.33331"
   width="973.33331"
   id="svg60"
   version="1.1">
  <metadata
     id="metadata66">
    <rdf:RDF>
      <cc:Work
         rdf:about="">
        <dc:format>image/svg+xml</dc:format>
        <dc:type
           rdf:resource="http://purl.org/dc/dcmitype/StillImage" />
        <dc:title></dc:title>
      </cc:Work>
    </rdf:RDF>
  </metadata>
  <defs
     id="defs64" />
  <sodipodi:namedview
     inkscape:current-layer="g68"
     inkscape:window-maximized="1"
     inkscape:window-y="27"
     inkscape:window-x="0"
     inkscape:cy="366.66666"
     inkscape:cx="486.66666"
     inkscape:zoom="1.125"
     showgrid="false"
     id="namedview62"
     inkscape:window-height="1016"
     inkscape:window-width="1920"
     inkscape:pageshadow="2"
     inkscape:pageopacity="0"
     guidetolerance="10"
     gridtolerance="10"
     objecttolerance="10"
     borderopacity="1"
     bordercolor="#666666"
     pagecolor="#ffffff" />
  <g
     id="g68"
     inkscape:label="Image"
     inkscape:groupmode="layer">
    <path
       id="path72"
       d="m 448.37465,708.9704 c -83.66813,-8.70569 -161.58306,-39.89797 -222.39115,-89.03156 -13.62287,-11.00741 -41.72288,-39.22746 -51.90812,-52.12986 -9.95,-12.60439 -21.43731,-29.41523 -21.43731,-31.37193 0,-0.9731 103.53087,-1.38396 339.99998,-1.34934 285.9673,0.0419 340,0.33835 340,1.86547 0,4.40469 -24.0115,35.14723 -42.5237,54.44412 -63.8785,66.5864 -157.1158,108.97179 -260.1429,118.26029 -20.3741,1.83682 -60.5945,1.4981 -81.5968,-0.68719 z m 40.6148,-20.181 0.054,-15.74032 h -18.092 c -9.9506,0 -18.5232,0.43128 -19.0501,0.95839 -2.1236,2.12443 13.3324,20.0536 21.7975,25.28533 4.8649,3.00664 13.934,6.51681 14.7543,5.71057 0.265,-0.2605 0.5062,-7.5568 0.5361,-16.21397 z m 17.983,12.85824 c 9.3269,-4.03101 29.2279,-24.81406 26.4351,-27.60686 -0.528,-0.528 -9.6171,-1.18386 -20.1981,-1.45746 l -19.238,-0.49745 v 15.92605 c 0,8.75933 0.4066,16.33265 0.9035,16.8296 1.0506,1.05056 4.2015,0.21868 12.0975,-3.19388 z m -48.3008,-8.12672 c -4.1728,-4.50715 -9.1172,-10.50715 -10.9874,-13.33333 -2.7046,-4.08691 -4.2288,-5.13851 -7.4475,-5.13851 -5.711,0 -20.93435,2.76778 -20.92035,3.80354 0.0321,2.3799 24.67465,16.02187 36.65505,20.29207 10.4834,3.73666 10.785,3.1087 2.7002,-5.62377 z m 74.6331,3.81545 c 15.697,-6.37862 34.168,-17.23042 32.3769,-19.02154 -0.882,-0.88192 -16.0503,-3.19937 -21.1997,-3.23893 -2.5871,-0.0199 -4.369,1.30212 -6.89,5.11169 -1.8703,2.82618 -6.8147,8.82618 -10.9875,13.33333 -4.1728,4.50716 -6.7723,8.18473 -5.7767,8.1724 0.9957,-0.012 6.6103,-1.97296 12.477,-4.35695 z m -98.5535,-1.3657 c -1.4044,-0.87354 -7.40437,-4.78392 -13.3333,-8.68974 -10.47422,-6.90011 -10.97836,-7.07697 -17.77988,-6.23738 -3.85,0.47524 -6.98976,1.27091 -6.97724,1.76814 0.0303,1.2026 11.77954,6.23092 25.51988,10.9217 11.95364,4.08082 16.96974,4.97357 12.57054,2.23728 z m 124.1014,-0.7195 c 12.0956,-3.82901 29.7854,-11.13085 29.7854,-12.29457 0,-0.57693 -3.2796,-1.45873 -7.288,-1.95954 -6.7527,-0.8437 -7.6585,-0.61743 -12.3333,3.08074 -2.7749,2.19523 -8.6453,6.16027 -13.0453,8.8112 -9.0082,5.42731 -8.3935,5.93129 2.8812,2.36217 z M 401.9714,692.98775 c 0,-1.30324 -13.91657,-7.24559 -17,-7.25898 -5.72752,-0.0248 -2.95108,2.28512 6,4.99196 10.30832,3.11728 11,3.25983 11,2.26702 z m 191.13655,-1.97484 c 9.1383,-2.82254 12.5439,-5.30012 7.2755,-5.293 -3.1625,0.004 -20.2968,7.7098 -17.5525,7.89361 0.8394,0.0563 5.4641,-1.11405 10.277,-2.60061 z m -217.28727,-9.13905 c 2.06613,-0.81119 0.70316,-2.11766 -7.62339,-7.30736 -14.58039,-9.08756 -32.22907,-23.03827 -46.95523,-37.11656 l -12.79674,-12.23376 -14.20554,2.28504 c -7.81306,1.25677 -14.70851,2.788 -15.32324,3.40273 -1.36202,1.36201 5.01884,6.48564 21.62121,17.36116 16.96481,11.11293 32.28219,19.35996 51.43365,27.69239 16.03632,6.97709 19.16851,7.75409 23.84928,5.91636 z m 252.46847,-3.65332 c 24.4248,-10.09534 48.9567,-23.84186 70.109,-39.28579 5.7346,-4.18708 9.9346,-7.91543 9.3333,-8.28523 -0.6014,-0.3698 -7.8027,-1.741 -16.003,-3.0471 l -14.9097,-2.37474 -12.7907,12.22802 c -14.7206,14.07298 -32.3706,28.02434 -46.9492,37.1108 -8.3266,5.1897 -9.6895,6.49617 -7.6234,7.30736 4.45,1.74714 6.933,1.2655 18.8337,-3.65332 z m -232.0791,-1.26839 c 2.80207,-0.50599 5.55087,-1.1804 6.10843,-1.49871 0.55756,-0.3183 -5.04073,-7.28949 -12.44065,-15.49154 -7.39992,-8.20206 -17.41511,-20.76282 -22.25596,-27.91282 -6.10284,-9.01396 -9.60124,-13 -11.40963,-13 -5.55402,0 -37.62944,4.38107 -38.61646,5.2745 -1.55023,1.40318 19.65293,21.2187 33.91705,31.69734 19.45129,14.28923 35.14673,23.5555 38.03056,22.45246 0.86458,-0.3307 3.86458,-1.01526 6.66666,-1.52123 z m 217.7546,-7.1522 c 5.9477,-3.68887 15.4017,-10.15984 21.0088,-14.37992 13.028,-9.80509 34.1071,-29.8254 32.7236,-31.07976 -1.0073,-0.91329 -33.043,-5.29119 -38.7188,-5.29119 -1.8609,0 -4.4939,2.78048 -8.5169,8.99395 -7.8921,12.18923 -24.7698,33.08084 -32.4272,40.13917 -3.446,3.17642 -5.9654,6.07531 -5.5988,6.44199 1.641,1.64097 15.1488,3.85768 17.7923,2.91981 1.6077,-0.57034 7.7893,-4.05517 13.737,-7.74405 z m -274.65991,7.34676 c 0,-0.31297 -5.26576,-3.22473 -11.7017,-6.47059 -14.89749,-7.51326 -30.9635,-17.56008 -46.6521,-29.17368 -11.6463,-8.62126 -12.65807,-9.09634 -17.66667,-8.29542 -2.92208,0.46725 -5.31287,1.38032 -5.31287,2.02904 0,2.98028 34.45383,22.38393 60.23603,33.92364 18.31087,8.19566 21.09731,9.25054 21.09731,7.98701 z m 328.00001,-8.04727 c 25.3001,-11.15512 63.299,-32.74706 60.4853,-34.36926 -0.6336,-0.36531 -3.3698,-1.06415 -6.0805,-1.55299 -4.6078,-0.83095 -5.8103,-0.23256 -18.4769,9.19431 -14.0917,10.48732 -39.2321,25.9948 -48.781,30.08978 -3.0359,1.30191 -5.9202,3.01495 -6.4096,3.80676 -1.061,1.71686 0.037,1.30802 19.2627,-7.1686 z m -236.66668,1.48924 c 5.13338,-0.84678 9.21468,-1.8396 9.06968,-2.20626 -0.145,-0.36667 -2.7697,-6.01463 -5.8328,-12.55103 -3.06304,-6.5364 -8.09551,-18.5364 -11.18323,-26.66667 l -5.61405,-14.7823 -9.88647,0.37104 c -12.27735,0.46078 -40.36349,3.01074 -41.09271,3.73084 -0.82737,0.81702 10.48492,17.35702 19.71512,28.826 4.542,5.64366 12.21607,13.88788 17.05348,18.32049 8.15434,7.47197 9.14663,8.00237 13.61647,7.27839 2.65164,-0.4295 9.02117,-1.47372 14.15451,-2.3205 z m 155.82638,-9.20626 c 14.8272,-14.83311 34.6626,-40.95546 32.6368,-42.98126 -0.7814,-0.78144 -26.6511,-3.12904 -39.7472,-3.60696 l -11.2841,-0.41178 -4.8271,13.34412 c -2.6549,7.33925 -7.7206,19.4957 -11.2572,27.01432 -3.5365,7.51861 -6.1825,13.91774 -5.88,14.2203 0.4236,0.42351 14.4904,2.8249 26.948,4.60035 0.5953,0.0848 6.6301,-5.39576 13.4108,-12.17909 z m -102.4531,4.90001 5.3733,-0.64208 -0.04,-26.74388 -0.04,-26.74388 -32.2238,0.44825 c -17.723,0.24654 -32.6074,0.83263 -33.07637,1.30244 -1.26695,1.26918 7.90989,25.19515 15.64477,40.78924 l 6.7673,13.64344 16.1107,-0.70572 c 8.8609,-0.38814 18.5287,-0.99465 21.484,-1.34781 z m 56.468,-1.67716 c 5.6433,-7.92529 22.5668,-48.92592 20.8877,-50.60495 -0.8717,-0.87172 -65.0486,-2.85965 -66.3956,-2.05666 -0.55,0.32788 -1,12.50686 -1,27.06442 v 26.46828 l 11,0.80771 c 10.2511,0.75273 18.2814,1.27485 28.5758,1.85801 3.2886,0.1863 4.8474,-0.609 6.9321,-3.53681 z M 261.67256,627.79238 c 0.2289,-0.2289 -7.61016,-8.43978 -17.4201,-18.2464 -18.94188,-18.93547 -32.04636,-35.00792 -45.79229,-56.16356 l -8.44678,-13 h -13.1321 c -7.22266,0 -13.50498,0.37287 -13.96071,0.8286 -0.45573,0.45573 1.58169,4.37793 4.52763,8.71599 14.22348,20.94502 41.94762,49.72339 66.51406,69.04334 l 13.99088,11.00293 6.65161,-0.88237 c 3.65839,-0.48529 6.8389,-1.06964 7.0678,-1.29853 z m 482.44039,-2.9998 c 14.0217,-10.57931 29.8265,-24.71182 43.8755,-39.23298 15.2968,-15.81085 35.8242,-41.94337 34.5573,-43.99329 -0.8452,-1.3675 -22.8126,-1.44332 -26.1287,-0.0901 -1.2215,0.49845 -6.7377,7.67324 -12.2581,15.94397 -13.6626,20.4696 -29.6999,39.66924 -46.6649,55.86665 -7.8041,7.45106 -14.1893,13.85588 -14.1893,14.23295 0,0.72951 5.0735,1.66657 10.8082,1.99627 2.1632,0.1244 5.9382,-1.65876 10,-4.7234 z m -456.75052,-1.81216 c 8.35491,-1.50443 15.43963,-2.9842 15.74381,-3.28839 0.30418,-0.30419 -3.9223,-6.42329 -9.39218,-13.59801 -13.0622,-17.13336 -20.92074,-29.49853 -31.38179,-49.37827 l -8.59487,-16.33333 h -27.883 c -15.33565,0 -27.88299,0.46733 -27.88299,1.03851 0,2.22686 16.0412,25.63228 26.26183,38.31814 11.50011,14.27393 43.37279,45.97668 46.22315,45.97668 0.94341,0 8.55113,-1.23089 16.90604,-2.73533 z m 439.31262,-6.93418 c 14.0264,-12.75941 29.2547,-29.13918 39.0328,-41.98427 11.1684,-14.6714 21.7017,-31.09795 20.8376,-32.49602 -0.4023,-0.65094 -12.99,-1.18353 -27.9727,-1.18353 h -27.2413 l -5.9655,11.87808 c -9.5546,19.02429 -18.7881,33.89758 -31.6562,50.99177 -6.6091,8.77964 -11.804,16.14947 -11.5442,16.37739 0.6858,0.60142 27.9781,5.82436 31.1762,5.96618 1.5992,0.0709 7.0462,-3.83038 13.3333,-9.5496 z m -390.03698,-0.4071 c 9.9,-1.20734 18.09047,-2.28402 18.20104,-2.3926 0.11053,-0.10867 -4.17003,-9.00842 -9.51245,-19.77736 -5.34243,-10.76896 -12.32538,-26.78624 -15.51766,-35.59396 -4.38378,-12.0952 -6.4608,-16.19052 -8.48753,-16.73521 -1.47587,-0.39664 -15.4334,-0.72938 -31.01673,-0.73939 -25.07102,-0.0161 -28.33334,0.22701 -28.33334,2.11153 0,6.30828 30.61367,55.47884 43.33476,69.60275 5.30655,5.8917 6.94294,6.95393 9.84796,6.3926 1.91618,-0.37026 11.58395,-1.66102 21.48395,-2.86836 z M 682.38235,609.042 c 14.691,-17.43052 43.8755,-65.26202 41.3567,-67.78083 -1.0825,-1.08251 -51.3159,-1.14627 -57.7677,-0.0733 -4.5739,0.76066 -4.7684,1.05848 -9.785,14.98532 -2.8152,7.8151 -9.664,23.6604 -15.2197,35.21181 -5.5557,11.5514 -9.8221,21.28174 -9.4808,21.62296 0.7536,0.7536 38.3577,5.8414 41.0941,5.56002 1.0681,-0.10987 5.4792,-4.3965 9.8024,-9.52595 z m -291.92695,1.3742 c 13.09952,-1.03986 24.06996,-2.14329 24.37873,-2.45206 0.30878,-0.30878 -0.9261,-5.69451 -2.74417,-11.96828 -1.81807,-6.27376 -5.19449,-20.30333 -7.50317,-31.17681 -2.30867,-10.87348 -4.65699,-20.66996 -5.21847,-21.76996 -0.86696,-1.69847 -6.12513,-2 -34.87557,-2 h -33.85468 l 0.47125,3.31938 c 1.0766,7.58334 20.01482,50.81849 27.30985,62.34728 2.00979,3.17619 4.60382,5.65007 5.90228,5.62889 1.27415,-0.0208 13.03442,-0.88857 26.13395,-1.92844 z m 244.62445,-19.70045 c 11.1766,-22.7514 20.8036,-46.9849 19.5019,-49.09108 -0.8757,-1.417 -60.8076,-1.47986 -65.8596,-0.0691 -2.9999,0.83773 -3.581,2.49006 -7.5738,21.53376 -2.3786,11.34453 -5.814,26.02641 -7.6342,32.62641 -1.8203,6.6 -3.1806,12.13137 -3.0231,12.29194 0.4378,0.44618 40.636,3.97368 47.7127,4.18692 l 6.2324,0.1878 10.6437,-21.66666 z m -159.1084,15.56531 13.3333,-0.77504 v -31.5618 c 0,-30.38388 -0.1,-31.59416 -2.6667,-32.42889 -3.2422,-1.05426 -79.92165,-1.43347 -80.95476,-0.40036 -1.47065,1.47066 12.45376,60.80046 15.3853,65.55434 0.68984,1.11868 32.89656,0.89092 54.90286,-0.38825 z m 88.0644,0.66369 c 3.7718,-6.10279 16.7333,-62.87384 14.7978,-64.81357 -1.3346,-1.33744 -68.2274,-2.26893 -77.8622,-1.08425 l -7,0.8607 v 31.90407 31.90405 l 3.6666,0.1806 c 2.0167,0.0993 15.6667,0.58897 30.3334,1.08811 14.6666,0.49913 28.5812,1.01785 30.9213,1.15273 2.34,0.13488 4.6544,-0.40172 5.1431,-1.19244 z M 422.89012,485.95133 c -1.91803,-0.36716 -2.25205,-2.23759 -2.25205,-12.61082 v -12.1797 l 36.31268,-36.40089 36.3127,-36.40091 36.354,36.33595 36.354,36.33594 v 12.34243 c 0,11.89706 -0.1083,12.34408 -3,12.38833 -22.9864,0.35172 -138.41826,0.50801 -140.08133,0.18967 z M 141.73918,379.90805 35.506955,274.22421 l -0.20615,-8.58756 c -0.11338,-4.72315 -0.15888,-9.63755 -0.1011,-10.92089 0.0985,-2.18861 4.10469,-2.33333 64.59077,-2.33333 h 64.485735 l 71.84759,71.31569 c 39.51618,39.22363 72.16638,71.32362 72.556,71.33333 0.38962,0.009 32.40086,-32.08236 71.13609,-71.31569 l 70.42776,-71.33333 h 42.9339 42.934 l 71.1061,71.33333 c 39.1084,39.23333 71.4789,71.33333 71.9346,71.33333 0.4557,0 32.9264,-32.10445 72.1571,-71.34321 l 71.3287,-71.34321 64.6667,0.34321 64.6666,0.34322 0.4058,10 0.4057,9.99999 -107.0724,106.29517 -107.0724,106.29519 -51.5315,0.0381 -51.5315,0.0382 -70.5899,-71.33333 c -38.8244,-39.23333 -70.8583,-71.33333 -71.1863,-71.33333 -0.3281,0 -32.6616,32.1 -71.85236,71.33333 l -71.25589,71.33333 -51.3596,-0.0619 -51.3596,-0.0619 z m 129.74722,-65.65864 -36.27568,-36.99102 0.38034,-12.10466 0.38034,-12.10463 72.33334,-0.41091 72.33333,-0.41092 v 13.08666 13.08668 l -36.43799,36.41992 -36.438,36.41992 z m 370.76475,0.41804 -36.387,-36.41017 0.387,-12.60409 0.3869,-12.60409 72.3333,-0.34482 72.3334,-0.34481 v 12.96197 12.96197 l -36.3334,36.39711 -36.3333,36.39711 z M 151.30474,192.27888 c 0,-2.70821 16.23901,-25.16106 28.60023,-39.5441 32.32537,-37.61254 70.67998,-66.821826 118.7331,-90.422245 13.93333,-6.843104 33.02805,-15.196526 42.43272,-18.563162 141.18206,-50.5396568 302.97806,-25.854196 414.18896,63.193447 17.5442,14.04784 35.7874,31.71076 48.9981,47.43961 11.6086,13.82133 27.0469,35.41901 27.0469,37.83777 0,0.95398 -105.8069,1.40324 -340,1.44367 -243.13732,0.042 -340.00001,-0.3526 -340.00001,-1.38499 z m 47.22271,-18.89645 c 14.33036,-21.5553 25.67815,-35.33584 45.05967,-54.71953 9.37802,-9.37908 17.05095,-17.27278 17.05095,-17.54156 0,-0.26877 -3.03304,-0.90583 -6.74011,-1.415677 l -6.74009,-0.927001 -12.92657,9.769218 c -17.68881,13.36828 -49.46887,45.37533 -62.69449,63.14228 -5.99431,8.05259 -10.89874,15.10259 -10.89874,15.66667 0,0.56408 6.28135,1.0256 13.95855,1.0256 h 13.95855 z m 62.10963,-0.65411 c 9.32808,-17.75986 21.94994,-37.49827 33.70612,-52.71058 4.40546,-5.70059 7.77403,-10.59633 7.48572,-10.87945 -0.59525,-0.58453 -30.20932,-6.08919 -32.75876,-6.08919 -2.65914,0 -34.17656,31.18077 -44.97781,44.4974 -10.00721,12.33766 -27.45428,37.55144 -27.45428,39.67577 0,0.63809 12.54982,1.16016 27.88847,1.16016 h 27.88848 z m 68.13379,-2.34589 c 3.62661,-9.53333 10.69919,-25.7811 15.71683,-36.10616 l 9.12298,-18.77282 -21.4863,-2.76082 c -24.99387,-3.2115 -21.98231,-4.27296 -34.53628,12.17273 -15.60166,20.43814 -36.95003,55.94654 -36.95003,61.45836 0,1.80582 3.76863,2.01402 30.76947,1.69995 l 30.76948,-0.35791 z m 69.83873,15 c 0.37896,-1.65 2.18613,-10.2 4.01596,-19 1.82983,-8.8 5.09833,-22.58286 7.26335,-30.62861 2.16501,-8.04573 3.79174,-14.77324 3.61497,-14.95002 -0.75444,-0.75443 -50.77247,-4.48666 -52.29561,-3.90218 -4.90797,1.88337 -34.06068,66.65713 -31.71127,70.45857 0.34748,0.56223 15.88494,1.02224 34.52768,1.02224 h 33.89592 z m 88.77465,-2 c 0.061,-3.83243 0.016,-42.54088 -0.068,-57.85668 -0.011,-1.91645 -2.9682,-2.2957 -23.6786,-3.03614 -13.0167,-0.46537 -28.0013,-1.11905 -33.29928,-1.45263 -8.26106,-0.52016 -9.8139,-0.26775 -10.90592,1.7727 -1.87942,3.51174 -13.35646,50.4324 -14.3272,58.57275 l -0.83474,7 h 41.51694 41.5169 l 0.08,-5 z m 90.5872,1.64403 c 0,-6.1955 -8.7818,-44.05997 -13.5879,-58.58664 l -1.7455,-5.27595 -26,0.47393 c -14.3,0.26067 -28.4,0.62995 -31.3333,0.82064 -2.9333,0.19068 -6.9833,0.40159 -9,0.46868 l -3.6667,0.12198 v 31.77777 c 0,17.47779 0.4,32.17779 0.8889,32.66667 0.4889,0.48889 19.6889,0.88889 42.6667,0.88889 h 41.7778 z m 74.8653,-0.64403 c -1.1712,-8.34283 -23.5081,-58.47268 -28.9879,-65.05668 l -2.5441,-3.05669 -25.9363,2.10403 c -14.2649,1.15722 -26.0697,2.23752 -26.2328,2.40067 -0.1632,0.16316 1.4002,6.59185 3.4742,14.28599 3.089,11.45954 7.1242,29.17141 11.47,50.34513 l 0.6203,3.02244 34.3023,-0.35577 34.3023,-0.35579 z m 69.1346,1.87027 c 0,-6.48603 -30.931,-55.83397 -43.5631,-69.50135 l -6.4369,-6.96442 -20,2.6783 c -11,1.47307 -20.6403,2.89617 -21.423,3.16244 -0.7975,0.27128 2.7411,8.89697 8.0486,19.61944 7.9261,16.0129 13.2904,28.88029 20.9009,50.13532 1.0718,2.99315 1.1443,3 31.7739,3 27.2309,0 30.6996,-0.24064 30.6996,-2.12973 z m 64,0.94232 c 0,-2.25368 -15.5549,-24.85167 -26.2732,-38.16924 -11.369,-14.12623 -43.3457,-45.97668 -46.1588,-45.97668 -2.4137,0 -32.1474,5.48893 -32.7075,6.03792 -0.2601,0.25491 4.5989,7.25066 10.7978,15.54611 14.1715,18.96444 19.1593,26.8509 29.9447,47.34706 l 8.631,16.40224 h 27.883 c 15.4155,0 27.883,-0.53093 27.883,-1.18741 z m 35.241,0.004 c 0.4025,-0.65115 -3.8685,-7.40115 -9.491,-15 -12.622,-17.05861 -46.0139,-50.62962 -63.3432,-63.68293 l -12.9266,-9.736948 -6.74,0.927001 c -3.7071,0.509367 -6.7402,1.122867 -6.7402,1.362837 0,0.23997 8,8.43367 17.7777,18.20822 18.712,18.70605 31.628,34.56121 45.7047,56.10523 l 8.494,13 h 13.2665 c 7.2965,0 13.5957,-0.53276 13.9981,-1.18389 z m -333.6483,-72.48325 c 0.7649,-4.02482 -0.072,-50.590179 -0.9242,-51.442721 -1.2864,-1.286398 -39.9974,-2.659697 -41.4356,-1.469957 -4.0066,3.314247 -24.43522,51.154748 -22.6193,52.970668 0.6395,0.63951 30.5216,2.10409 55.5643,2.72331 8.1961,0.20266 8.8864,-10e-4 9.4148,-2.7813 z m 64.7407,0.842 c 4.5833,-0.39651 8.3333,-0.99936 8.3333,-1.33969 0,-2.29494 -10.732,-28.871087 -16.1997,-40.115998 l -6.6195,-13.613679 -15.5904,0.754781 c -8.5747,0.415131 -18.5904,1.149093 -22.257,1.631029 l -6.6667,0.876246 -0.3638,25.274927 c -0.2001,13.901214 -0.066,26.050644 0.2976,26.998724 0.5225,1.36145 5.9241,1.56938 25.6972,0.98919 13.7696,-0.40403 28.7857,-1.05902 33.369,-1.45553 z m -134.41503,-6.17534 c 2.50796,-8.49096 13.08243,-34.026241 17.42393,-42.075389 4.3491,-8.063242 4.9028,-7.531957 -10.00892,-9.604442 -5.86666,-0.815373 -11.61944,-1.755548 -12.78394,-2.089277 -2.6676,-0.764494 -16.86519,12.109414 -26.85792,24.353894 -8.08251,9.903811 -21.0248,28.297014 -21.0248,29.879844 0,1.05934 9.24972,2.22773 30.25514,3.82172 23.13544,1.75563 21.09983,2.13505 22.99651,-4.28635 z m 184.70313,2.85812 c 8.0419,-0.72783 14.8847,-1.58646 15.2063,-1.90808 0.3216,-0.32161 -2.1145,-4.64194 -5.4135,-9.60073 -15.1748,-22.809223 -37.473,-46.208586 -42.9207,-45.040316 -1.5548,0.333424 -7.6269,1.286334 -13.4935,2.117578 -5.8667,0.831244 -11.0035,1.715763 -11.4151,1.965599 -0.4117,0.249836 2.1053,6.26525 5.5933,13.367587 3.488,7.102336 7.9704,17.486891 9.9608,23.07679 1.9905,5.589902 4.4041,12.140232 5.3635,14.556302 l 1.7445,4.39285 10.3764,-0.80213 c 5.7071,-0.44117 16.9562,-1.39762 24.998,-2.12545 z m -239.1114,-11.49709 c 7.97115,-12.281658 18.98204,-25.918804 29.75923,-36.857203 10.09521,-10.246211 10.01488,-10.818319 -1.72489,-12.285107 -6.01646,-0.751706 -8.01932,-0.407708 -12.67815,2.17751 -24.03341,13.336315 -67.60988,49.24663 -62.09773,51.17325 2.64263,0.92366 30.18263,4.45358 36.07488,4.62388 4.56165,0.13184 5.18213,-0.38194 10.66666,-8.83233 z m 284.7055,6.82399 c 8.6815,-1.18158 16.5748,-2.57803 17.5409,-3.10323 3.9923,-2.1705 -32.7405,-33.114976 -55.8984,-47.089998 -11.7229,-7.074363 -12.1025,-7.190158 -19.1914,-5.854495 -10.872,2.048464 -11.0114,1.271953 2.9966,16.694074 7.1519,7.873887 17.2034,20.428792 22.3368,27.89979 10.7291,15.615159 8.2133,14.720659 32.2155,11.453859 z M 322.0671,89.446398 c 15.06436,-14.0766 32.60473,-27.789215 45.69243,-35.721199 4.14987,-2.515077 7.5452,-4.998421 7.5452,-5.518544 0,-0.520122 -1.78217,-1.337108 -3.96038,-1.815524 -8.04923,-1.767908 -54.20064,21.171554 -81.2766,40.398367 -6.91368,4.909446 -12.78191,9.580961 -13.04052,10.381146 -0.28167,0.871552 3.95647,2.270154 10.57032,3.488246 19.62187,3.61382 18.05871,4.1223 34.46955,-11.212492 z m 370.63125,11.398342 c 7.3002,-1.21239 13.273,-2.661973 13.273,-3.22129 0,-2.599663 -29.0938,-22.203625 -48,-32.343314 -19.6424,-10.53454 -42.6539,-19.779037 -46.9083,-18.844619 -2.0671,0.454004 -3.7583,1.23761 -3.7583,1.741346 0,0.503736 3.392,2.944763 7.5379,5.424503 12.7394,7.619743 32.8365,23.430822 46.6411,36.694139 7.2349,6.951193 14.2314,12.664425 15.5479,12.696065 1.3165,0.0316 8.3665,-0.93443 15.6667,-2.14683 z M 275.22175,90.568498 c 12.2328,-9.589761 34.66155,-23.875289 49.25073,-31.369239 7.54335,-3.874756 13.45814,-7.302053 13.14398,-7.616217 -0.31416,-0.314166 -8.86836,3.030096 -19.00935,7.431689 -25.53728,11.084215 -61.96904,31.42324 -61.96904,34.595907 0,1.110268 2.86339,1.906418 9.25035,2.572016 1.05437,0.10988 5.25437,-2.416494 9.33333,-5.614156 z m 451.1112,3.248494 c 1.0796,-1.005525 -26.8545,-18.082859 -41.6949,-25.489904 -12.9138,-6.445457 -38.9594,-17.429648 -39.6623,-16.726744 -0.3375,0.337471 4.3985,3.112923 10.5243,6.167671 15.0058,7.482821 34.0524,19.375195 47.8047,29.848447 10.5609,8.042849 11.6968,8.580882 16.6666,7.894626 2.9334,-0.405044 5.7961,-1.167388 6.3616,-1.694096 z M 486.99855,56.552595 c 1.278,-0.128387 1.6459,-4.097867 1.4986,-16.170164 -0.2229,-18.268036 -0.4514,-18.532954 -11.4123,-13.226884 -10.1246,4.901247 -29.2876,24.830539 -26.5286,27.589512 0.463,0.46304 7.2709,1.180445 15.1285,1.594233 13.0415,0.686772 16.2785,0.719167 21.3138,0.213303 z m 39.9729,-0.892403 c 3.1166,-0.425969 5.6666,-1.07962 5.6666,-1.452558 0,-2.161084 -9.0416,-13.206928 -15.5827,-19.036926 -7.3352,-6.537807 -20.5392,-13.027691 -23.1821,-11.394269 -1.2354,0.763514 -1.7993,31.597416 -0.5998,32.796911 0.8044,0.804432 26.1577,0.1174 33.698,-0.913158 z m -79.4608,-8.277761 c 2.3837,-3.483333 7.3408,-9.526965 11.0158,-13.430294 6.4762,-6.878553 6.5602,-7.067532 2.7301,-6.140694 -6.6113,1.599821 -26.7693,10.62866 -33.79423,15.13653 -10.52192,6.751898 -10.77752,7.666577 -2.56057,9.163278 3.8883,0.708248 9.5908,1.359003 12.6723,1.446119 5.2518,0.148476 5.874,-0.238174 9.9366,-6.174939 z m 114.7761,3.810965 c 2.705,-1.000672 2.5087,-1.348758 -3.0453,-5.398994 -9.5088,-6.934272 -27.5018,-15.475014 -37.8885,-17.984462 -3.8341,-0.926335 -3.7533,-0.743448 2.7144,6.142197 3.6664,3.903329 8.7447,10.015636 11.2851,13.582904 l 4.619,6.485942 9.7119,-0.878976 c 5.3415,-0.483437 11.013,-1.360312 12.6034,-1.948611 z M 418.63807,42.272463 c 4.4,-3.051033 10.00576,-6.568682 12.45724,-7.816997 11.50224,-5.857054 -2.96607,-2.36264 -23.45724,5.665424 -6.78334,2.657587 -12.33334,5.203067 -12.33334,5.656625 0,1.14947 12.36796,3.55426 14,2.722119 0.73334,-0.373911 4.93334,-3.176137 9.33334,-6.227171 z m 163.66668,5.254171 c 2.75,-0.454547 4.998,-1.197944 4.9956,-1.651992 -0.01,-1.840247 -38.2884,-15.643872 -39.6383,-14.293918 -0.2633,0.263256 2.6986,2.28824 6.582,4.499964 3.8834,2.211724 9.4607,5.843323 12.394,8.070221 5.6334,4.27666 7.6227,4.70531 15.6667,3.375725 z M 396.9714,38.599162 c 2.01667,-0.807417 3.66667,-1.936488 3.66667,-2.509048 0,-1.385342 0.2114,-1.424781 -8.79127,1.640083 -12.77081,4.347689 -12.06101,3.968116 -9.90827,5.29859 1.18354,0.731463 3.66679,0.395828 6.62931,-0.896013 2.60529,-1.136071 6.38689,-2.726196 8.40356,-3.533612 z m 205.00005,3.192552 c 0,-0.863791 -12.2526,-4.829741 -19.3334,-6.257865 -1.4666,-0.295813 1.4381,1.534281 6.4549,4.066876 8.1893,4.134069 12.8785,4.931836 12.8785,2.190989 z"
       style="fill:#000000;stroke-width:1.33333" />
  </g>
</svg>
