<svg xmlns="http://www.w3.org/2000/svg" viewBox="0 0 100.77 37.08"><path d="M14.76,21.34l-4.23-2L9.08,12.46l-1.24-.59-2.4,5.06L2,15.3,8.52,1.5l5.56,2.63A12.88,12.88,0,0,1,16,5.22,4.7,4.7,0,0,1,17.3,6.56a4,4,0,0,1,.61,1.76,3.85,3.85,0,0,1-.44,2,4.71,4.71,0,0,1-1.93,2.24,5.66,5.66,0,0,1-2.65.67Zm-1-12.21a2.08,2.08,0,0,0,.22-1,1.42,1.42,0,0,0-.39-.9,2.57,2.57,0,0,0-.64-.51c-.25-.15-.58-.32-1-.51l-1.16-.55L9,9.39l1,.47a8.23,8.23,0,0,0,1.27.49,2,2,0,0,0,1,0A1.84,1.84,0,0,0,13.1,10,2.76,2.76,0,0,0,13.71,9.13Z"/><path d="M23.59,24.33a6.89,6.89,0,0,1-4.12-2.76,5.54,5.54,0,0,1-.36-4.64l2.75-9.35,3.68,1.08L22.85,17.8a3.9,3.9,0,0,0-.09,2.44,2.34,2.34,0,0,0,1.66,1.3,2.38,2.38,0,0,0,2.07-.17,3.72,3.72,0,0,0,1.27-2.13l2.69-9.14,3.68,1.08-2.75,9.35a5.63,5.63,0,0,1-2.77,3.7A6.77,6.77,0,0,1,23.59,24.33Z"/><path d="M47.11,24.05A4.35,4.35,0,0,1,46.37,26,4.1,4.1,0,0,1,45,27.19a5.46,5.46,0,0,1-2,.66,9.85,9.85,0,0,1-2.63-.13l-6-.95L36.7,11.69l5.33.84a19.09,19.09,0,0,1,2.49.52,4.89,4.89,0,0,1,1.52.79,2.86,2.86,0,0,1,1,1.35,3.5,3.5,0,0,1,.14,1.75,3.61,3.61,0,0,1-.87,1.87,3.28,3.28,0,0,1-1.72,1v.08a4.18,4.18,0,0,1,2,1.55A3.55,3.55,0,0,1,47.11,24.05Zm-3.89-.68a1.8,1.8,0,0,0-.11-1.14,1.76,1.76,0,0,0-.75-.73,2.82,2.82,0,0,0-.93-.3l-1.61-.27-.7-.11-.6,3.78.21,0c1,.16,1.66.26,2.05.3A3.06,3.06,0,0,0,42,24.84a1.5,1.5,0,0,0,.86-.53A2,2,0,0,0,43.22,23.37Zm0-6.28a1.78,1.78,0,0,0-.07-.78,1.16,1.16,0,0,0-.5-.65,2.51,2.51,0,0,0-.85-.32l-1.53-.25-.26,0-.5,3.19.47.07c.65.11,1.11.17,1.37.2a2.08,2.08,0,0,0,.84-.09,1.22,1.22,0,0,0,.72-.49A2.26,2.26,0,0,0,43.24,17.09Z"/><path d="M62.42,24.84a4.26,4.26,0,0,1-.52,2,4,4,0,0,1-1.22,1.38,5.37,5.37,0,0,1-1.93.88,9.86,9.86,0,0,1-2.63.17L50,29l.67-15.25,5.39.23a19.17,19.17,0,0,1,2.54.24,5.1,5.1,0,0,1,1.6.61A3,3,0,0,1,61.39,16a3.41,3.41,0,0,1,.33,1.71,3.67,3.67,0,0,1-.65,2,3.35,3.35,0,0,1-1.6,1.21V21a4.21,4.21,0,0,1,2.21,1.31A3.5,3.5,0,0,1,62.42,24.84Zm-3.94-.25a1.89,1.89,0,0,0-.24-1.12,1.72,1.72,0,0,0-.83-.64,3,3,0,0,0-.95-.19l-1.63-.09-.71,0L54,26.34h.2c1,0,1.69.07,2.07.07a3.42,3.42,0,0,0,1.19-.22,1.62,1.62,0,0,0,.79-.63A2.08,2.08,0,0,0,58.48,24.59Zm-.69-6.24a1.69,1.69,0,0,0-.16-.77,1.15,1.15,0,0,0-.56-.59,2.33,2.33,0,0,0-.89-.21c-.34,0-.86-.06-1.54-.09h-.26l-.15,3.23.48,0c.66,0,1.12,0,1.38,0a2.14,2.14,0,0,0,.83-.18,1.25,1.25,0,0,0,.66-.57A2,2,0,0,0,57.79,18.35Z"/><path d="M65.69,29.4l-.87-15.24,10.31-.6.17,2.91-6.5.37L69,19.52l6-.35.16,2.91-6,.34.22,3.85,6.5-.37L76,28.81Z"/><path d="M93.92,26l-4.61.78L84.18,22l-1.36.23.94,5.52L80,28.4l-2.56-15,6.06-1a13.49,13.49,0,0,1,2.21-.21,4.74,4.74,0,0,1,1.83.36A3.83,3.83,0,0,1,89,13.56a3.89,3.89,0,0,1,.82,1.93,4.69,4.69,0,0,1-.3,2.94,5.52,5.52,0,0,1-1.79,2.07Zm-7.86-9.41a2.05,2.05,0,0,0-.38-.94,1.44,1.44,0,0,0-.83-.51,2.76,2.76,0,0,0-.82-.06,9.6,9.6,0,0,0-1.09.15l-1.27.21.69,4.05,1.08-.18A9,9,0,0,0,84.77,19a2.1,2.1,0,0,0,.86-.57,1.8,1.8,0,0,0,.43-.77A2.68,2.68,0,0,0,86.06,16.63Z"/></svg>