<svg xmlns="http://www.w3.org/2000/svg" viewBox="0 0 60.46 40.08"><path d="M9.81,38.89l-2.92-12L2.51,28l-.69-2.83,12.49-3L15,24.92,10.62,26l2.92,12Z"/><path d="M33.1,31.21l-3.56,1.4-2.49-6.29L22.2,28.23l2.48,6.3-3.57,1.41-5.6-14.21,3.57-1.4,2.05,5.19L26,23.61l-2.06-5.2L27.5,17Z"/><path d="M44.17,25l-7.12,4.11-1.34-2.31,1.9-1.1-5-8.61-1.9,1.1-1.34-2.31,7.13-4.11,1.33,2.31L36,15.22l5,8.6,1.9-1.09Z"/><path d="M58.27,13.92l-2.81,2.4L44.08,12.06,51,20.15l-2.66,2.28L38.41,10.82,42,7.76l9.39,3.49L45.69,4.6l2.66-2.28Z"/></svg>