<svg xmlns="http://www.w3.org/2000/svg" viewBox="0 0 31.46 77.08"><path d="M16.38,2.32l9.75,7.59L28.9,6.35l2.3,1.79L23.29,18.29,21,16.5l2.77-3.56L14,5.34Z"/><path d="M4.09,26l1.29-3.62,6.38,2.27,1.74-4.92L7.13,17.51l1.28-3.62L22.8,19l-1.29,3.61-5.26-1.87L14.5,25.67l5.27,1.87-1.29,3.61Z"/><path d="M3.13,40.79l.21-8.22L6,32.63l0,2.2,9.93.24.06-2.19,2.66.06-.2,8.22-2.67-.06.06-2.19-9.94-.25,0,2.19Z"/><path d="M5.62,54A7.25,7.25,0,0,1,6,48.15a8,8,0,0,1,5-3.66,8.08,8.08,0,0,1,6.13.22,7.14,7.14,0,0,1,3.68,4.58,10.62,10.62,0,0,1,.38,1.59,10.18,10.18,0,0,1,.14,1.42,8.73,8.73,0,0,1-.06,1.21c0,.45-.1.81-.15,1.09l-3.48,1.07-.11-.37q.15-.33.36-.84a10.37,10.37,0,0,0,.36-1.11,6.48,6.48,0,0,0,.18-1.28,4.11,4.11,0,0,0-.17-1.35,4.48,4.48,0,0,0-.7-1.38,3.75,3.75,0,0,0-1.26-1,4.45,4.45,0,0,0-1.79-.43,6.91,6.91,0,0,0-2.35.35A6.56,6.56,0,0,0,10,49.34a4.46,4.46,0,0,0-1.2,1.41,3.66,3.66,0,0,0-.4,1.52,4.19,4.19,0,0,0,.19,1.47,4.14,4.14,0,0,0,.66,1.31,5.8,5.8,0,0,0,.88.94,7.91,7.91,0,0,0,.88.67l.76.47.11.34L8.41,58.53l-.72-.8a8.74,8.74,0,0,1-.74-1,11.26,11.26,0,0,1-.71-1.19A9.76,9.76,0,0,1,5.62,54Z"/><path d="M18.32,75.38l-2.71-3.76,2.59-7H16.91l-4.18,3-2.25-3.11,12.38-8.94L25.1,58.7l-5.49,4,8.35,0,2.6,3.6L21.63,66Z"/></svg>