<svg xmlns="http://www.w3.org/2000/svg" viewBox="0 0 101.77 37.08"><path d="M17.52,24.79,14,23.36,17.75,14l-5,5L10.3,18l-.15-7.1-3.77,9.4L3,19,8.71,4.8l4.11,1.65.34,8.26L19.1,9l4.11,1.64Z"/><path d="M22.46,26.08,26,11.22,36,13.59l-.67,2.83L29,14.93l-.61,2.6,5.85,1.38-.67,2.83-5.84-1.37-.89,3.75,6.35,1.49-.67,2.84Z"/><path d="M51,23.15a7.72,7.72,0,0,1-1.36,3.69A6.92,6.92,0,0,1,47,29.15a6.62,6.62,0,0,1-2.69.69,20.47,20.47,0,0,1-3-.11l-4.75-.54L38.29,14l4.72.53a21,21,0,0,1,3,.54,6.58,6.58,0,0,1,2.51,1.28,6.92,6.92,0,0,1,2.08,2.85A8.1,8.1,0,0,1,51,23.15Zm-3.92-.47a5.81,5.81,0,0,0-.22-2.62,3.81,3.81,0,0,0-1.4-1.85,3.77,3.77,0,0,0-1.58-.65c-.56-.09-1.24-.18-2-.27h-.07l-1.07,9.5h.07c.86.09,1.59.16,2.18.19a3.47,3.47,0,0,0,1.74-.35,3.87,3.87,0,0,0,1.61-1.47A6,6,0,0,0,47.09,22.68Z"/><path d="M61.29,30.84l-8.23-.1,0-2.67,2.2,0,.13-9.94-2.2,0,0-2.66,8.23.11,0,2.66-2.2,0-.13,9.94,2.2,0Z"/><path d="M71.27,30.62a6.83,6.83,0,0,1-4.84-1.09,5.47,5.47,0,0,1-2-4.19l-.81-9.72,3.83-.32.78,9.5a3.91,3.91,0,0,0,.8,2.31,2.3,2.3,0,0,0,2,.61,2.36,2.36,0,0,0,1.88-.91,3.74,3.74,0,0,0,.42-2.44l-.79-9.49,3.83-.32.8,9.71a5.63,5.63,0,0,1-1.25,4.45A6.77,6.77,0,0,1,71.27,30.62Z"/><path d="M97.56,25.73l-3.72.85L91.61,16.7l-1.28,7-2.55.58-4.15-5.76,2.23,9.87-3.53.8L79,14.28l4.31-1,5,6.6,1.63-8.09,4.32-1Z"/></svg>